{
.appVersion = "3151";
.formatVersion = 3;
DisplayStrings = (
"6",
"7",
"8",
"9",
"asbcdefghijk
lmnopqrstuv
wxyz"
);
axes = (
{
name = Weight;
tag = wght;
}
);
customParameters = (
{
name = panose;
value = (
0,
0,
5,
0,
0,
0,
0,
0,
0,
0
);
},
{
name = unicodeRanges;
value = (
0
);
},
{
name = codePageRanges;
value = (
"1252"
);
},
{
name = glyphOrder;
value = (
.notdef,
space,
A,
B,
C,
D,
E,
F,
G,
H,
I,
J,
K,
L,
M,
N,
O,
P,
Q,
R,
S,
T,
U,
V,
W,
X,
Y,
Z,
a,
b,
c,
d,
e,
f,
g,
h,
i,
j,
k,
l,
m,
n,
o,
p,
q,
r,
s,
t,
u,
v,
w,
x,
y,
z,
zero,
one,
two,
three,
four,
five,
six,
seven,
eight,
nine,
period,
comma,
exclam,
question,
asterisk,
hyphen
);
}
);
date = "2021-07-26 00:15:11 +0000";
familyName = JagFigfont;
fontMaster = (
{
axesValues = (
0
);
customParameters = (
{
name = typoAscender;
value = 800;
},
{
name = typoDescender;
value = -200;
},
{
name = typoLineGap;
value = 200;
},
{
name = winAscent;
value = 1000;
},
{
name = winDescent;
value = 200;
},
{
name = hheaAscender;
value = 1000;
},
{
name = hheaDescender;
value = -200;
},
{
name = strikeoutPosition;
value = 300;
},
{
name = strikeoutSize;
value = 50;
}
);
id = m01;
metricValues = (
{
pos = 800;
},
{
pos = 700;
},
{
pos = 500;
},
{
},
{
pos = -200;
},
{
}
);
name = Regular;
},
{
axesValues = (
1000
);
customParameters = (
{
name = typoAscender;
value = 800;
},
{
name = typoDescender;
value = -200;
},
{
name = typoLineGap;
value = 200;
},
{
name = winAscent;
value = 1000;
},
{
name = winDescent;
value = 200;
},
{
name = hheaAscender;
value = 1000;
},
{
name = hheaDescender;
value = -200;
},
{
name = strikeoutPosition;
value = 300;
},
{
name = strikeoutSize;
value = 50;
}
);
id = "BE691341-D8A5-4739-82E3-AB614D387AD5";
metricValues = (
{
pos = 800;
},
{
pos = 700;
},
{
pos = 500;
},
{
},
{
pos = -200;
},
{
}
);
name = "wght=1000";
}
);
glyphs = (
{
glyphname = A;
layers = (
{
layerId = m01;
shapes = (
{
closed = 1;
nodes = (
(371,596,l),
(371,672,l),
(216,672,l),
(216,582,l),
(253,582,l),
(152,286,l),
(128,293,l),
(79,146,l),
(96,141,l),
(25,87,l),
(79,15,l),
(202,109,l),
(174,149,l),
(207,239,l),
(386,239,l),
(435,89,l),
(410,57,l),
(482,6,l),
(573,126,l),
(502,175,l)
);
},
{
closed = 1;
nodes = (
(359,330,l),
(263,330,l),
(315,479,l)
);
}
);
width = 600;
},
{
layerId = "BE691341-D8A5-4739-82E3-AB614D387AD5";
shapes = (
{
closed = 1;
nodes = (
(371,596,l),
(371,672,l),
(216,672,l),
(216,582,l),
(253,582,l),
(152,286,l),
(128,293,l),
(79,146,l),
(96,141,l),
(25,87,l),
(79,15,l),
(202,109,l),
(174,149,l),
(207,239,l),
(386,239,l),
(435,89,l),
(410,57,l),
(482,6,l),
(573,126,l),
(502,175,l)
);
},
{
closed = 1;
nodes = (
(359,330,l),
(263,330,l),
(315,479,l)
);
}
);
width = 600;
}
);
note = A;
unicode = 65;
},
{
glyphname = B;
layers = (
{
layerId = m01;
shapes = (
{
closed = 1;
nodes = (
(380,380,l),
(464,502,l),
(449,513,l),
(421,654,l),
(393,649,l),
(271,719,l),
(257,692,l),
(121,686,l),
(122,-18,l),
(215,-18,l),
(215,39,l),
(372,60,l),
(390,50,l),
(422,103,l),
(466,186,l),
(479,188,l),
(456,330,l),
(463,352,l)
);
},
{
closed = 1;
nodes = (
(215,597,l),
(290,601,l),
(342,571,l),
(354,507,l),
(287,406,l),
(215,408,l)
);
},
{
closed = 1;
nodes = (
(341,149,l),
(215,133,l),
(215,313,l),
(289,314,l),
(369,286,l),
(379,221,l)
);
}
);
width = 570;
},
{
layerId = "BE691341-D8A5-4739-82E3-AB614D387AD5";
shapes = (
{
closed = 1;
nodes = (
(380,380,l),
(464,502,l),
(449,513,l),
(421,654,l),
(393,649,l),
(271,719,l),
(257,692,l),
(121,686,l),
(122,-18,l),
(215,-18,l),
(215,39,l),
(372,60,l),
(390,50,l),
(422,103,l),
(466,186,l),
(479,188,l),
(456,330,l),
(463,352,l)
);
},
{
closed = 1;
nodes = (
(215,597,l),
(290,601,l),
(342,571,l),
(354,507,l),
(287,406,l),
(215,408,l)
);
},
{
closed = 1;
nodes = (
(341,149,l),
(215,133,l),
(215,313,l),
(289,314,l),
(369,286,l),
(379,221,l)
);
}
);
width = 570;
}
);
note = B;
unicode = 66;
},
{
glyphname = C;
layers = (
{
layerId = m01;
shapes = (
{
closed = 1;
nodes = (
(255,107,l),
(167,214,l),
(188,382,l),
(197,435,l),
(295,589,l),
(381,604,l),
(498,570,l),
(527,665,l),
(350,717,l),
(344,699,l),
(206,673,l),
(211,642,l),
(68,418,l),
(91,404,l),
(59,157,l),
(91,153,l),
(215,-3,l),
(232,9,l),
(356,-9,l),
(365,-32,l),
(541,41,l),
(508,131,l),
(386,86,l)
);
}
);
width = 600;
},
{
layerId = "BE691341-D8A5-4739-82E3-AB614D387AD5";
shapes = (
{
closed = 1;
nodes = (
(255,107,l),
(167,214,l),
(188,382,l),
(197,435,l),
(295,589,l),
(381,604,l),
(498,570,l),
(527,665,l),
(350,717,l),
(344,699,l),
(206,673,l),
(211,642,l),
(68,418,l),
(91,404,l),
(59,157,l),
(91,153,l),
(215,-3,l),
(232,9,l),
(356,-9,l),
(365,-32,l),
(541,41,l),
(508,131,l),
(386,86,l)
);
}
);
width = 600;
}
);
note = C;
unicode = 67;
},
{
glyphname = D;
layers = (
{
layerId = m01;
shapes = (
{
closed = 1;
nodes = (
(549,460,l),
(494,592,l),
(498,595,l),
(354,711,l),
(341,693,l),
(211,712,l),
(210,701,l),
(122,692,l),
(123,-6,l),
(214,-6,l),
(214,60,l),
(417,78,l),
(417,95,l),
(510,201,l),
(503,206,l),
(558,341,l),
(542,349,l),
(540,457,l)
);
},
{
closed = 1;
nodes = (
(448,323,l),
(406,222,l),
(352,163,l),
(214,153,l),
(214,608,l),
(229,612,l),
(346,595,l),
(416,537,l),
(448,463,l)
);
}
);
width = 640;
},
{
layerId = "BE691341-D8A5-4739-82E3-AB614D387AD5";
shapes = (
{
closed = 1;
nodes = (
(549,460,l),
(494,592,l),
(498,595,l),
(354,711,l),
(341,693,l),
(211,712,l),
(210,701,l),
(122,692,l),
(123,-6,l),
(214,-6,l),
(214,60,l),
(417,78,l),
(417,95,l),
(510,201,l),
(503,206,l),
(558,341,l),
(542,349,l),
(540,457,l)
);
},
{
closed = 1;
nodes = (
(448,323,l),
(406,222,l),
(352,163,l),
(214,153,l),
(214,608,l),
(229,612,l),
(346,595,l),
(416,537,l),
(448,463,l)
);
}
);
width = 640;
}
);
note = D;
unicode = 68;
},
{
glyphname = E;
layers = (
{
layerId = m01;
shapes = (
{
closed = 1;
nodes = (
(334,181,l),
(279,111,l),
(203,111,l),
(203,333,l),
(322,333,l),
(322,307,l),
(417,307,l),
(417,481,l),
(322,481,l),
(322,426,l),
(203,426,l),
(203,616,l),
(440,616,l),
(440,709,l),
(65,709,l),
(65,616,l),
(109,616,l),
(109,17,l),
(330,17,l),
(330,64,l),
(417,-3,l),
(475,70,l)
);
}
);
width = 570;
},
{
layerId = "BE691341-D8A5-4739-82E3-AB614D387AD5";
shapes = (
{
closed = 1;
nodes = (
(334,181,l),
(279,111,l),
(203,111,l),
(203,333,l),
(322,333,l),
(322,307,l),
(417,307,l),
(417,481,l),
(322,481,l),
(322,426,l),
(203,426,l),
(203,616,l),
(440,616,l),
(440,709,l),
(65,709,l),
(65,616,l),
(109,616,l),
(109,17,l),
(330,17,l),
(330,64,l),
(417,-3,l),
(475,70,l)
);
}
);
width = 570;
}
);
note = E;
unicode = 69;
},
{
glyphname = F;
layers = (
{
layerId = m01;
shapes = (
{
closed = 1;
nodes = (
(209,321,l),
(331,321,l),
(331,295,l),
(428,295,l),
(428,474,l),
(331,474,l),
(331,418,l),
(209,418,l),
(209,611,l),
(433,611,l),
(433,706,l),
(68,706,l),
(68,611,l),
(114,611,l),
(114,0,l),
(209,0,l)
);
}
);
width = 540;
},
{
layerId = "BE691341-D8A5-4739-82E3-AB614D387AD5";
shapes = (
{
closed = 1;
nodes = (
(209,321,l),
(331,321,l),
(331,295,l),
(428,295,l),
(428,474,l),
(331,474,l),
(331,418,l),
(209,418,l),
(209,611,l),
(433,611,l),
(433,706,l),
(68,706,l),
(68,611,l),
(114,611,l),
(114,0,l),
(209,0,l)
);
}
);
width = 540;
}
);
note = F;
unicode = 70;
},
{
glyphname = G;
layers = (
{
layerId = m01;
shapes = (
{
closed = 1;
nodes = (
(383,-17,l),
(385,-4,l),
(508,11,l),
(503,71,l),
(519,71,l),
(518,334,l),
(489,334,l),
(489,369,l),
(289,370,l),
(289,273,l),
(419,272,l),
(420,99,l),
(324,89,l),
(218,104,l),
(132,201,l),
(126,258,l),
(128,258,l),
(147,422,l),
(140,423,l),
(179,519,l),
(237,588,l),
(349,607,l),
(476,569,l),
(504,662,l),
(320,717,l),
(315,700,l),
(158,673,l),
(162,648,l),
(80,554,l),
(86,548,l),
(32,414,l),
(48,408,l),
(35,296,l),
(21,294,l),
(51,96,l),
(90,101,l),
(186,-7,l),
(203,7,l)
);
}
);
width = 570;
},
{
layerId = "BE691341-D8A5-4739-82E3-AB614D387AD5";
shapes = (
{
closed = 1;
nodes = (
(383,-17,l),
(385,-4,l),
(508,11,l),
(503,71,l),
(519,71,l),
(518,334,l),
(489,334,l),
(489,369,l),
(289,370,l),
(289,273,l),
(419,272,l),
(420,99,l),
(324,89,l),
(218,104,l),
(132,201,l),
(126,258,l),
(128,258,l),
(147,422,l),
(140,423,l),
(179,519,l),
(237,588,l),
(349,607,l),
(476,569,l),
(504,662,l),
(320,717,l),
(315,700,l),
(158,673,l),
(162,648,l),
(80,554,l),
(86,548,l),
(32,414,l),
(48,408,l),
(35,296,l),
(21,294,l),
(51,96,l),
(90,101,l),
(186,-7,l),
(203,7,l)
);
}
);
width = 570;
}
);
note = G;
unicode = 71;
},
{
glyphname = H;
layers = (
{
layerId = m01;
shapes = (
{
closed = 1;
nodes = (
(413,606,l),
(413,411,l),
(165,411,l),
(165,718,l),
(69,718,l),
(69,-17,l),
(165,-17,l),
(165,315,l),
(388,315,l),
(388,48,l),
(415,48,l),
(424,-26,l),
(520,-14,l),
(505,122,l),
(486,120,l),
(486,344,l),
(511,344,l),
(511,591,l),
(521,589,l),
(537,685,l),
(370,713,l),
(354,617,l)
);
}
);
width = 600;
},
{
layerId = "BE691341-D8A5-4739-82E3-AB614D387AD5";
shapes = (
{
closed = 1;
nodes = (
(413,606,l),
(413,411,l),
(165,411,l),
(165,718,l),
(69,718,l),
(69,-17,l),
(165,-17,l),
(165,315,l),
(388,315,l),
(388,48,l),
(415,48,l),
(424,-26,l),
(520,-14,l),
(505,122,l),
(486,120,l),
(486,344,l),
(511,344,l),
(511,591,l),
(521,589,l),
(537,685,l),
(370,713,l),
(354,617,l)
);
}
);
width = 600;
}
);
note = H;
unicode = 72;
},
{
glyphname = I;
layers = (
{
layerId = m01;
shapes = (
{
closed = 1;
nodes = (
(239,-11,l),
(239,710,l),
(142,710,l),
(142,-11,l)
);
}
);
width = 490;
},
{
layerId = "BE691341-D8A5-4739-82E3-AB614D387AD5";
shapes = (
{
closed = 1;
nodes = (
(239,-11,l),
(239,710,l),
(142,710,l),
(142,-11,l)
);
}
);
width = 490;
}
);
note = I;
unicode = 73;
},
{
glyphname = J;
layers = (
{
layerId = m01;
shapes = (
{
closed = 1;
nodes = (
(146,79,l),
(125,91,l),
(125,586,l),
(145,578,l),
(176,667,l),
(25,722,l),
(-8,633,l),
(33,620,l),
(33,67,l),
(26,55,l),
(-47,12,l),
(35,-127,l),
(116,-79,l),
(88,-29,l)
);
}
);
width = 374;
},
{
layerId = "BE691341-D8A5-4739-82E3-AB614D387AD5";
shapes = (
{
closed = 1;
nodes = (
(146,79,l),
(125,91,l),
(125,586,l),
(145,578,l),
(176,667,l),
(25,722,l),
(-8,633,l),
(33,620,l),
(33,67,l),
(26,55,l),
(-47,12,l),
(35,-127,l),
(116,-79,l),
(88,-29,l)
);
}
);
width = 374;
}
);
note = J;
unicode = 74;
},
{
glyphname = K;
layers = (
{
layerId = m01;
shapes = (
{
closed = 1;
nodes = (
(441,5,l),
(449,99,l),
(362,107,l),
(160,348,l),
(309,539,l),
(321,522,l),
(453,619,l),
(397,695,l),
(331,645,l),
(296,673,l),
(254,621,l),
(101,427,l),
(101,708,l),
(8,708,l),
(8,-3,l),
(101,-3,l),
(101,270,l),
(281,57,l),
(278,21,l)
);
}
);
width = 530;
},
{
layerId = "BE691341-D8A5-4739-82E3-AB614D387AD5";
shapes = (
{
closed = 1;
nodes = (
(441,5,l),
(449,99,l),
(362,107,l),
(160,348,l),
(309,539,l),
(321,522,l),
(453,619,l),
(397,695,l),
(331,645,l),
(296,673,l),
(254,621,l),
(101,427,l),
(101,708,l),
(8,708,l),
(8,-3,l),
(101,-3,l),
(101,270,l),
(281,57,l),
(278,21,l)
);
}
);
width = 530;
}
);
note = K;
unicode = 75;
},
{
glyphname = L;
layers = (
{
layerId = m01;
shapes = (
{
closed = 1;
nodes = (
(509,94,l),
(231,94,l),
(231,605,l),
(257,605,l),
(257,700,l),
(91,700,l),
(91,605,l),
(137,605,l),
(137,-1,l),
(509,-1,l)
);
}
);
width = 600;
},
{
layerId = "BE691341-D8A5-4739-82E3-AB614D387AD5";
shapes = (
{
closed = 1;
nodes = (
(509,94,l),
(231,94,l),
(231,605,l),
(257,605,l),
(257,700,l),
(91,700,l),
(91,605,l),
(137,605,l),
(137,-1,l),
(509,-1,l)
);
}
);
width = 600;
}
);
note = L;
unicode = 76;
},
{
glyphname = M;
layers = (
{
layerId = m01;
shapes = (
{
closed = 1;
nodes = (
(334,91,l),
(508,440,l),
(508,-17,l),
(602,-17,l),
(602,569,l),
(628,561,l),
(658,650,l),
(495,703,l),
(467,614,l),
(484,607,l),
(321,275,l),
(178,576,l),
(190,584,l),
(103,717,l),
(22,668,l),
(41,638,l),
(41,-17,l),
(135,-17,l),
(135,446,l),
(269,168,l),
(250,132,l)
);
}
);
width = 640;
},
{
layerId = "BE691341-D8A5-4739-82E3-AB614D387AD5";
shapes = (
{
closed = 1;
nodes = (
(334,91,l),
(508,440,l),
(508,-17,l),
(602,-17,l),
(602,569,l),
(628,561,l),
(658,650,l),
(495,703,l),
(467,614,l),
(484,607,l),
(321,275,l),
(178,576,l),
(190,584,l),
(103,717,l),
(22,668,l),
(41,638,l),
(41,-17,l),
(135,-17,l),
(135,446,l),
(269,168,l),
(250,132,l)
);
}
);
width = 640;
}
);
note = M;
unicode = 77;
},
{
glyphname = N;
layers = (
{
layerId = m01;
shapes = (
{
closed = 1;
nodes = (
(587,67,l),
(560,67,l),
(560,686,l),
(467,686,l),
(467,144,l),
(277,557,l),
(292,569,l),
(186,717,l),
(113,658,l),
(139,620,l),
(139,-17,l),
(232,-17,l),
(232,428,l),
(426,10,l),
(426,-14,l),
(587,-14,l)
);
}
);
width = 650;
},
{
layerId = "BE691341-D8A5-4739-82E3-AB614D387AD5";
shapes = (
{
closed = 1;
nodes = (
(587,67,l),
(560,67,l),
(560,686,l),
(467,686,l),
(467,144,l),
(277,557,l),
(292,569,l),
(186,717,l),
(113,658,l),
(139,620,l),
(139,-17,l),
(232,-17,l),
(232,428,l),
(426,10,l),
(426,-14,l),
(587,-14,l)
);
}
);
width = 650;
}
);
note = N;
unicode = 78;
},
{
glyphname = O;
layers = (
{
layerId = m01;
shapes = (
{
closed = 1;
nodes = (
(397,22,l),
(497,80,l),
(511,75,l),
(565,209,l),
(573,208,l),
(588,350,l),
(570,538,l),
(556,536,l),
(494,639,l),
(482,632,l),
(355,700,l),
(346,684,l),
(224,662,l),
(214,671,l),
(100,540,l),
(108,533,l),
(55,404,l),
(70,398,l),
(51,234,l),
(72,231,l),
(120,117,l),
(221,0,l),
(247,23,l),
(393,0,l)
);
},
{
closed = 1;
nodes = (
(247,120,l),
(197,177,l),
(153,285,l),
(169,410,l),
(162,411,l),
(200,504,l),
(257,571,l),
(360,589,l),
(438,546,l),
(480,479,l),
(493,355,l),
(482,259,l),
(441,159,l),
(348,104,l)
);
}
);
width = 620;
},
{
layerId = "BE691341-D8A5-4739-82E3-AB614D387AD5";
shapes = (
{
closed = 1;
nodes = (
(397,22,l),
(497,80,l),
(511,75,l),
(565,209,l),
(573,208,l),
(588,350,l),
(570,538,l),
(556,536,l),
(494,639,l),
(482,632,l),
(355,700,l),
(346,684,l),
(224,662,l),
(214,671,l),
(100,540,l),
(108,533,l),
(55,404,l),
(70,398,l),
(51,234,l),
(72,231,l),
(120,117,l),
(221,0,l),
(247,23,l),
(393,0,l)
);
},
{
closed = 1;
nodes = (
(247,120,l),
(197,177,l),
(153,285,l),
(169,410,l),
(162,411,l),
(200,504,l),
(257,571,l),
(360,589,l),
(438,546,l),
(480,479,l),
(493,355,l),
(482,259,l),
(441,159,l),
(348,104,l)
);
}
);
width = 620;
}
);
note = O;
unicode = 79;
},
{
glyphname = P;
layers = (
{
layerId = m01;
shapes = (
{
closed = 1;
nodes = (
(498,498,l),
(470,518,l),
(449,634,l),
(434,631,l),
(312,706,l),
(301,687,l),
(237,686,l),
(237,702,l),
(144,702,l),
(143,6,l),
(237,6,l),
(237,305,l),
(419,336,l),
(414,366,l)
);
},
{
closed = 1;
nodes = (
(335,416,l),
(237,399,l),
(237,594,l),
(309,596,l),
(368,561,l),
(380,484,l)
);
}
);
width = 620;
},
{
layerId = "BE691341-D8A5-4739-82E3-AB614D387AD5";
shapes = (
{
closed = 1;
nodes = (
(498,498,l),
(470,518,l),
(449,634,l),
(434,631,l),
(312,706,l),
(301,687,l),
(237,686,l),
(237,702,l),
(144,702,l),
(143,6,l),
(237,6,l),
(237,305,l),
(419,336,l),
(414,366,l)
);
},
{
closed = 1;
nodes = (
(335,416,l),
(237,399,l),
(237,594,l),
(309,596,l),
(368,561,l),
(380,484,l)
);
}
);
width = 620;
}
);
note = P;
unicode = 80;
},
{
glyphname = Q;
layers = (
{
layerId = m01;
shapes = (
{
closed = 1;
nodes = (
(553,-95,l),
(555,0,l),
(495,2,l),
(383,88,l),
(460,187,l),
(511,323,l),
(497,452,l),
(510,457,l),
(456,595,l),
(353,713,l),
(334,698,l),
(187,720,l),
(185,705,l),
(76,643,l),
(64,649,l),
(11,520,l),
(2,521,l),
(-15,369,l),
(0,214,l),
(13,216,l),
(63,91,l),
(84,99,l),
(212,29,l),
(222,66,l),
(296,45,l),
(291,39,l),
(382,-31,l),
(381,-95,l)
);
},
{
closed = 1;
nodes = (
(374,226,l),
(304,142,l),
(222,163,l),
(214,137,l),
(127,183,l),
(90,277,l),
(79,369,l),
(91,460,l),
(141,569,l),
(225,618,l),
(322,603,l),
(374,546,l),
(405,466,l),
(416,335,l)
);
}
);
width = 570;
},
{
layerId = "BE691341-D8A5-4739-82E3-AB614D387AD5";
shapes = (
{
closed = 1;
nodes = (
(553,-95,l),
(555,0,l),
(495,2,l),
(383,88,l),
(460,187,l),
(511,323,l),
(497,452,l),
(510,457,l),
(456,595,l),
(353,713,l),
(334,698,l),
(187,720,l),
(185,705,l),
(76,643,l),
(64,649,l),
(11,520,l),
(2,521,l),
(-15,369,l),
(0,214,l),
(13,216,l),
(63,91,l),
(84,99,l),
(212,29,l),
(222,66,l),
(296,45,l),
(291,39,l),
(382,-31,l),
(381,-95,l)
);
},
{
closed = 1;
nodes = (
(374,226,l),
(304,142,l),
(222,163,l),
(214,137,l),
(127,183,l),
(90,277,l),
(79,369,l),
(91,460,l),
(141,569,l),
(225,618,l),
(322,603,l),
(374,546,l),
(405,466,l),
(416,335,l)
);
}
);
width = 570;
}
);
note = Q;
unicode = 81;
},
{
glyphname = R;
layers = (
{
layerId = m01;
shapes = (
{
closed = 1;
nodes = (
(428,305,l),
(438,320,l),
(401,339,l),
(487,505,l),
(475,511,l),
(453,654,l),
(424,650,l),
(307,719,l),
(297,701,l),
(231,697,l),
(231,713,l),
(135,713,l),
(135,-10,l),
(231,-10,l),
(231,318,l),
(341,263,l),
(435,-11,l),
(526,20,l)
);
},
{
closed = 1;
nodes = (
(316,383,l),
(231,426,l),
(231,599,l),
(312,603,l),
(367,571,l),
(378,504,l)
);
}
);
width = 630;
},
{
layerId = "BE691341-D8A5-4739-82E3-AB614D387AD5";
shapes = (
{
closed = 1;
nodes = (
(428,305,l),
(438,320,l),
(401,339,l),
(487,505,l),
(475,511,l),
(453,654,l),
(424,650,l),
(307,719,l),
(297,701,l),
(231,697,l),
(231,713,l),
(135,713,l),
(135,-10,l),
(231,-10,l),
(231,318,l),
(341,263,l),
(435,-11,l),
(526,20,l)
);
},
{
closed = 1;
nodes = (
(316,383,l),
(231,426,l),
(231,599,l),
(312,603,l),
(367,571,l),
(378,504,l)
);
}
);
width = 630;
}
);
note = R;
unicode = 82;
},
{
glyphname = S;
layers = (
{
layerId = m01;
shapes = (
{
closed = 1;
nodes = (
(425,84,l),
(394,269,l),
(411,297,l),
(223,415,l),
(217,407,l),
(132,465,l),
(119,524,l),
(155,574,l),
(263,593,l),
(306,535,l),
(383,590,l),
(286,727,l),
(227,684,l),
(129,667,l),
(109,679,l),
(20,549,l),
(48,386,l),
(71,391,l),
(192,308,l),
(197,319,l),
(299,255,l),
(319,140,l),
(209,76,l),
(141,83,l),
(27,160,l),
(-26,83,l),
(92,-4,l),
(92,-9,l),
(207,-19,l),
(214,-29,l)
);
}
);
width = 500;
},
{
layerId = "BE691341-D8A5-4739-82E3-AB614D387AD5";
shapes = (
{
closed = 1;
nodes = (
(425,84,l),
(394,269,l),
(411,297,l),
(223,415,l),
(217,407,l),
(132,465,l),
(119,524,l),
(155,574,l),
(263,593,l),
(306,535,l),
(383,590,l),
(286,727,l),
(227,684,l),
(129,667,l),
(109,679,l),
(20,549,l),
(48,386,l),
(71,391,l),
(192,308,l),
(197,319,l),
(299,255,l),
(319,140,l),
(209,76,l),
(141,83,l),
(27,160,l),
(-26,83,l),
(92,-4,l),
(92,-9,l),
(207,-19,l),
(214,-29,l)
);
}
);
width = 500;
}
);
note = S;
unicode = 83;
},
{
glyphname = T;
layers = (
{
layerId = m01;
shapes = (
{
closed = 1;
nodes = (
(285,580,l),
(360,580,l),
(360,564,l),
(452,564,l),
(452,700,l),
(360,700,l),
(360,672,l),
(285,672,l),
(285,700,l),
(-31,700,l),
(-31,580,l),
(60,580,l),
(60,608,l),
(193,608,l),
(193,0,l),
(285,0,l)
);
}
);
width = 510;
},
{
layerId = "BE691341-D8A5-4739-82E3-AB614D387AD5";
shapes = (
{
closed = 1;
nodes = (
(285,580,l),
(360,580,l),
(360,564,l),
(452,564,l),
(452,700,l),
(360,700,l),
(360,672,l),
(285,672,l),
(285,700,l),
(-31,700,l),
(-31,580,l),
(60,580,l),
(60,608,l),
(193,608,l),
(193,0,l),
(285,0,l)
);
}
);
width = 510;
}
);
note = T;
unicode = 84;
},
{
glyphname = U;
layers = (
{
layerId = m01;
shapes = (
{
closed = 1;
nodes = (
(438,-16,l),
(441,8,l),
(557,140,l),
(543,151,l),
(573,348,l),
(564,350,l),
(564,629,l),
(557,629,l),
(598,670,l),
(530,735,l),
(415,621,l),
(469,566,l),
(469,310,l),
(448,161,l),
(385,88,l),
(244,109,l),
(204,186,l),
(220,186,l),
(220,591,l),
(235,591,l),
(235,685,l),
(62,685,l),
(62,591,l),
(125,591,l),
(125,209,l),
(94,192,l),
(173,44,l),
(170,24,l),
(340,-2,l)
);
}
);
width = 630;
},
{
layerId = "BE691341-D8A5-4739-82E3-AB614D387AD5";
shapes = (
{
closed = 1;
nodes = (
(438,-16,l),
(441,8,l),
(557,140,l),
(543,151,l),
(573,348,l),
(564,350,l),
(564,629,l),
(557,629,l),
(598,670,l),
(530,735,l),
(415,621,l),
(469,566,l),
(469,310,l),
(448,161,l),
(385,88,l),
(244,109,l),
(204,186,l),
(220,186,l),
(220,591,l),
(235,591,l),
(235,685,l),
(62,685,l),
(62,591,l),
(125,591,l),
(125,209,l),
(94,192,l),
(173,44,l),
(170,24,l),
(340,-2,l)
);
}
);
width = 630;
}
);
note = U;
unicode = 85;
},
{
glyphname = V;
layers = (
{
layerId = m01;
shapes = (
{
closed = 1;
nodes = (
(290,77,l),
(289,14,l),
(509,0,l),
(515,98,l),
(463,101,l),
(610,584,l),
(663,584,l),
(662,682,l),
(495,682,l),
(496,583,l),
(508,583,l),
(397,214,l),
(374,138,l),
(225,613,l),
(225,682,l),
(58,682,l),
(58,584,l),
(133,584,l)
);
}
);
width = 660;
},
{
layerId = "BE691341-D8A5-4739-82E3-AB614D387AD5";
shapes = (
{
closed = 1;
nodes = (
(290,77,l),
(289,14,l),
(509,0,l),
(515,98,l),
(463,101,l),
(610,584,l),
(663,584,l),
(662,682,l),
(495,682,l),
(496,583,l),
(508,583,l),
(397,214,l),
(374,138,l),
(225,613,l),
(225,682,l),
(58,682,l),
(58,584,l),
(133,584,l)
);
}
);
width = 660;
}
);
note = V;
unicode = 86;
},
{
glyphname = W;
layers = (
{
layerId = m01;
shapes = (
{
closed = 1;
nodes = (
(857,577,l),
(745,166,l),
(633,565,l),
(658,654,l),
(505,700,l),
(479,612,l),
(513,601,l),
(395,165,l),
(272,606,l),
(272,677,l),
(113,677,l),
(113,585,l),
(182,585,l),
(328,57,l),
(314,27,l),
(402,-8,l),
(440,86,l),
(467,79,l),
(569,448,l),
(678,59,l),
(700,64,l),
(721,-2,l),
(800,20,l),
(954,576,l),
(1007,576,l),
(1007,667,l),
(844,668,l),
(843,577,l)
);
}
);
width = 870;
},
{
layerId = "BE691341-D8A5-4739-82E3-AB614D387AD5";
shapes = (
{
closed = 1;
nodes = (
(857,577,l),
(745,166,l),
(633,565,l),
(658,654,l),
(505,700,l),
(479,612,l),
(513,601,l),
(395,165,l),
(272,606,l),
(272,677,l),
(113,677,l),
(113,585,l),
(182,585,l),
(328,57,l),
(314,27,l),
(402,-8,l),
(440,86,l),
(467,79,l),
(569,448,l),
(678,59,l),
(700,64,l),
(721,-2,l),
(800,20,l),
(954,576,l),
(1007,576,l),
(1007,667,l),
(844,668,l),
(843,577,l)
);
}
);
width = 870;
}
);
note = W;
unicode = 87;
},
{
glyphname = X;
layers = (
{
layerId = m01;
shapes = (
{
closed = 1;
nodes = (
(538,561,l),
(459,432,l),
(274,742,l),
(195,695,l),
(403,347,l),
(186,10,l),
(263,-39,l),
(442,241,l),
(599,-24,l),
(678,24,l),
(501,322,l),
(646,561,l),
(695,561,l),
(695,651,l),
(538,650,l)
);
}
);
width = 740;
},
{
layerId = "BE691341-D8A5-4739-82E3-AB614D387AD5";
shapes = (
{
closed = 1;
nodes = (
(538,561,l),
(459,432,l),
(274,742,l),
(195,695,l),
(403,347,l),
(186,10,l),
(263,-39,l),
(442,241,l),
(599,-24,l),
(678,24,l),
(501,322,l),
(646,561,l),
(695,561,l),
(695,651,l),
(538,650,l)
);
}
);
width = 740;
}
);
note = X;
unicode = 88;
},
{
glyphname = Y;
layers = (
{
layerId = m01;
shapes = (
{
closed = 1;
nodes = (
(489,619,l),
(371,360,l),
(253,604,l),
(254,667,l),
(75,669,l),
(73,577,l),
(165,576,l),
(315,264,l),
(313,-21,l),
(408,-21,l),
(408,250,l),
(419,245,l),
(572,582,l),
(592,575,l),
(627,658,l),
(461,730,l),
(424,645,l)
);
}
);
width = 650;
},
{
layerId = "BE691341-D8A5-4739-82E3-AB614D387AD5";
shapes = (
{
closed = 1;
nodes = (
(489,619,l),
(371,360,l),
(253,604,l),
(254,667,l),
(75,669,l),
(73,577,l),
(165,576,l),
(315,264,l),
(313,-21,l),
(408,-21,l),
(408,250,l),
(419,245,l),
(572,582,l),
(592,575,l),
(627,658,l),
(461,730,l),
(424,645,l)
);
}
);
width = 650;
}
);
note = Y;
unicode = 89;
},
{
glyphname = Z;
layers = (
{
layerId = m01;
shapes = (
{
closed = 1;
nodes = (
(213,17,l),
(531,17,l),
(531,174,l),
(441,174,l),
(441,107,l),
(236,107,l),
(556,663,l),
(479,709,l),
(468,690,l),
(227,689,l),
(227,707,l),
(138,707,l),
(138,552,l),
(218,552,l),
(218,599,l),
(421,599,l),
(159,157,l),
(149,159,l),
(105,10,l),
(126,4,l),
(126,-15,l),
(213,-15,l)
);
}
);
width = 630;
},
{
layerId = "BE691341-D8A5-4739-82E3-AB614D387AD5";
shapes = (
{
closed = 1;
nodes = (
(213,17,l),
(531,17,l),
(531,174,l),
(441,174,l),
(441,107,l),
(236,107,l),
(556,663,l),
(479,709,l),
(468,690,l),
(227,689,l),
(227,707,l),
(138,707,l),
(138,552,l),
(218,552,l),
(218,599,l),
(421,599,l),
(159,157,l),
(149,159,l),
(105,10,l),
(126,4,l),
(126,-15,l),
(213,-15,l)
);
}
);
width = 630;
}
);
note = Z;
unicode = 90;
},
{
glyphname = a;
lastChange = "2023-05-12 18:31:49 +0000";
layers = (
{
layerId = m01;
shapes = (
{
closed = 1;
nodes = (
(182,569,l),
(168,483,l),
(192,479,l),
(207,565,l)
);
},
{
closed = 1;
nodes = (
(30,337,l),
(113,312,l),
(121,336,l),
(38,361,l)
);
},
{
closed = 1;
nodes = (
(309,414,l),
(314,439,l),
(229,456,l),
(224,432,l)
);
},
{
closed = 1;
nodes = (
(247,433,l),
(240,457,l),
(156,433,l),
(163,408,l)
);
},
{
closed = 1;
nodes = (
(186,423,l),
(162,431,l),
(136,348,l),
(160,341,l)
);
},
{
closed = 1;
nodes = (
(184,329,l),
(172,351,l),
(95,311,l),
(107,289,l)
);
},
{
closed = 1;
nodes = (
(271,246,l),
(257,267,l),
(185,218,l),
(199,198,l)
);
},
{
closed = 1;
nodes = (
(298,160,l),
(284,180,l),
(212,130,l),
(227,110,l)
);
},
{
closed = 1;
nodes = (
(340,218,l),
(341,243,l),
(254,245,l),
(253,220,l)
);
},
{
closed = 1;
nodes = (
(289,64,l),
(276,85,l),
(201,41,l),
(214,19,l)
);
},
{
closed = 1;
nodes = (
(197,230,l),
(172,235,l),
(155,150,l),
(179,145,l)
);
},
{
closed = 1;
nodes = (
(150,154,l),
(146,130,l),
(232,116,l),
(236,141,l)
);
},
{
closed = 1;
nodes = (
(395,284,l),
(416,271,l),
(460,346,l),
(439,359,l)
);
},
{
closed = 1;
nodes = (
(400,320,l),
(375,320,l),
(375,233,l),
(400,233,l)
);
},
{
closed = 1;
nodes = (
(400,242,l),
(375,242,l),
(375,155,l),
(400,155,l)
);
},
{
closed = 1;
nodes = (
(400,164,l),
(375,164,l),
(375,77,l),
(400,77,l)
);
},
{
closed = 1;
nodes = (
(375,86,l),
(375,0,l),
(400,0,l),
(400,86,l)
);
},
{
closed = 1;
nodes = (
(260,25,l),
(260,0,l),
(347,0,l),
(347,25,l)
);
},
{
closed = 1;
nodes = (
(330,25,l),
(330,0,l),
(417,0,l),
(417,25,l)
);
},
{
closed = 1;
nodes = (
(309,118,l),
(284,118,l),
(285,31,l),
(310,31,l)
);
},
{
closed = 1;
nodes = (
(309,236,l),
(284,236,l),
(284,149,l),
(309,149,l)
);
},
{
closed = 1;
nodes = (
(103,228,l),
(79,233,l),
(59,149,l),
(84,143,l)
);
},
{
closed = 1;
nodes = (
(92,165,l),
(67,160,l),
(83,75,l),
(107,79,l)
);
},
{
closed = 1;
nodes = (
(73,85,l),
(67,61,l),
(152,42,l),
(157,66,l)
);
},
{
closed = 1;
nodes = (
(145,69,l),
(139,45,l),
(224,26,l),
(229,50,l)
);
},
{
closed = 1;
nodes = (
(239,346,l),
(221,364,l),
(160,302,l),
(177,284,l)
);
},
{
closed = 1;
nodes = (
(193,294,l),
(181,316,l),
(106,273,l),
(118,252,l)
);
},
{
closed = 1;
nodes = (
(132,260,l),
(120,281,l),
(44,238,l),
(57,217,l)
);
},
{
closed = 1;
nodes = (
(312,312,l),
(311,337,l),
(225,336,l),
(225,311,l)
);
},
{
closed = 1;
nodes = (
(311,353,l),
(336,359,l),
(316,444,l),
(292,438,l)
);
},
{
closed = 1;
nodes = (
(328,285,l),
(352,291,l),
(332,376,l),
(308,370,l)
);
},
{
closed = 1;
nodes = (
(64,419,l),
(88,411,l),
(115,494,l),
(91,501,l)
);
},
{
closed = 1;
nodes = (
(45,359,l),
(69,351,l),
(96,434,l),
(72,442,l)
);
},
{
closed = 1;
nodes = (
(278,513,l),
(283,538,l),
(198,555,l),
(192,531,l)
);
},
{
closed = 1;
nodes = (
(347,499,l),
(352,524,l),
(267,541,l),
(262,517,l)
);
},
{
closed = 1;
nodes = (
(377,473,l),
(401,478,l),
(381,563,l),
(357,557,l)
);
},
{
closed = 1;
nodes = (
(329,516,l),
(336,492,l),
(419,517,l),
(412,541,l)
);
},
{
closed = 1;
nodes = (
(78,508,l),
(83,483,l),
(168,502,l),
(162,527,l)
);
},
{
closed = 1;
nodes = (
(394,402,l),
(418,408,l),
(398,492,l),
(374,486,l)
);
},
{
closed = 1;
nodes = (
(409,337,l),
(434,343,l),
(414,427,l),
(389,421,l)
);
}
);
width = 560;
},
{
layerId = "BE691341-D8A5-4739-82E3-AB614D387AD5";
shapes = (
{
closed = 1;
nodes = (
(222,627,l),
(193,456,l),
(242,447,l),
(272,618,l)
);
},
{
closed = 1;
nodes = (
(30,351,l),
(196,299,l),
(211,347,l),
(45,399,l)
);
},
{
closed = 1;
nodes = (
(393,406,l),
(404,455,l),
(234,491,l),
(223,442,l)
);
},
{
closed = 1;
nodes = (
(393,406,l),
(404,455,l),
(234,491,l),
(223,442,l)
);
},
{
closed = 1;
nodes = (
(256,474,l),
(209,489,l),
(156,324,l),
(203,308,l)
);
},
{
closed = 1;
nodes = (
(256,474,l),
(209,489,l),
(156,324,l),
(203,308,l)
);
},
{
closed = 1;
nodes = (
(428,217,l),
(430,267,l),
(256,272,l),
(254,222,l)
);
},
{
closed = 1;
nodes = (
(385,187,l),
(356,228,l),
(214,128,l),
(243,87,l)
);
},
{
closed = 1;
nodes = (
(428,217,l),
(430,267,l),
(256,272,l),
(254,222,l)
);
},
{
closed = 1;
nodes = (
(405,23,l),
(430,66,l),
(279,152,l),
(254,108,l)
);
},
{
closed = 1;
nodes = (
(263,283,l),
(214,293,l),
(179,123,l),
(228,112,l)
);
},
{
closed = 1;
nodes = (
(179,123,l),
(228,112,l),
(263,283,l),
(214,293,l)
);
},
{
closed = 1;
nodes = (
(452,305,l),
(501,316,l),
(461,486,l),
(412,474,l)
);
},
{
closed = 1;
nodes = (
(457,376,l),
(407,376,l),
(407,202,l),
(457,202,l)
);
},
{
closed = 1;
nodes = (
(457,376,l),
(407,376,l),
(407,202,l),
(457,202,l)
);
},
{
closed = 1;
nodes = (
(457,237,l),
(407,237,l),
(407,63,l),
(457,63,l)
);
},
{
closed = 1;
nodes = (
(407,237,l),
(407,63,l),
(457,63,l),
(457,237,l)
);
},
{
closed = 1;
nodes = (
(332,50,l),
(332,0,l),
(505,0,l),
(505,50,l)
);
},
{
closed = 1;
nodes = (
(332,50,l),
(332,0,l),
(505,0,l),
(505,50,l)
);
},
{
closed = 1;
nodes = (
(279,152,l),
(254,108,l),
(405,23,l),
(430,66,l)
);
},
{
closed = 1;
nodes = (
(385,187,l),
(356,228,l),
(214,128,l),
(243,87,l)
);
},
{
closed = 1;
nodes = (
(142,223,l),
(92,214,l),
(123,43,l),
(173,52,l)
);
},
{
closed = 1;
nodes = (
(142,223,l),
(92,214,l),
(123,43,l),
(173,52,l)
);
},
{
closed = 1;
nodes = (
(146,105,l),
(135,56,l),
(304,17,l),
(315,66,l)
);
},
{
closed = 1;
nodes = (
(146,105,l),
(135,56,l),
(304,17,l),
(315,66,l)
);
},
{
closed = 1;
nodes = (
(323,380,l),
(287,416,l),
(165,292,l),
(200,257,l)
);
},
{
closed = 1;
nodes = (
(221,283,l),
(196,327,l),
(45,241,l),
(70,198,l)
);
},
{
closed = 1;
nodes = (
(221,283,l),
(196,327,l),
(45,241,l),
(70,198,l)
);
},
{
closed = 1;
nodes = (
(323,380,l),
(287,416,l),
(165,292,l),
(200,257,l)
);
},
{
closed = 1;
nodes = (
(371,253,l),
(420,265,l),
(379,434,l),
(331,422,l)
);
},
{
closed = 1;
nodes = (
(371,253,l),
(420,265,l),
(379,434,l),
(331,422,l)
);
},
{
closed = 1;
nodes = (
(83,391,l),
(131,376,l),
(183,542,l),
(136,557,l)
);
},
{
closed = 1;
nodes = (
(45,399,l),
(30,351,l),
(196,299,l),
(211,347,l)
);
},
{
closed = 1;
nodes = (
(272,618,l),
(222,627,l),
(193,456,l),
(242,447,l)
);
},
{
closed = 1;
nodes = (
(432,491,l),
(442,540,l),
(272,575,l),
(262,526,l)
);
},
{
closed = 1;
nodes = (
(420,440,l),
(469,452,l),
(429,621,l),
(380,609,l)
);
},
{
closed = 1;
nodes = (
(272,575,l),
(262,526,l),
(432,491,l),
(442,540,l)
);
},
{
closed = 1;
nodes = (
(83,391,l),
(131,376,l),
(183,542,l),
(136,557,l)
);
},
{
closed = 1;
nodes = (
(420,440,l),
(469,452,l),
(429,621,l),
(380,609,l)
);
},
{
closed = 1;
nodes = (
(452,305,l),
(501,316,l),
(461,486,l),
(412,474,l)
);
}
);
width = 535;
}
);
note = a;
unicode = 97;
},
{
glyphname = b;
lastChange = "2023-05-12 17:55:58 +0000";
layers = (
{
layerId = m01;
shapes = (
{
closed = 1;
nodes = (
(417,140,l),
(398,156,l),
(341,90,l),
(360,74,l)
);
},
{
closed = 1;
nodes = (
(149,37,l),
(138,59,l),
(59,22,l),
(70,0,l)
);
},
{
closed = 1;
nodes = (
(97,36,l),
(60,115,l),
(38,104,l),
(74,25,l)
);
},
{
closed = 1;
nodes = (
(120,126,l),
(110,149,l),
(30,113,l),
(41,90,l)
);
},
{
closed = 1;
nodes = (
(212,66,l),
(201,89,l),
(122,52,l),
(133,29,l)
);
},
{
closed = 1;
nodes = (
(226,3,l),
(211,89,l),
(187,85,l),
(202,-1,l)
);
},
{
closed = 1;
nodes = (
(116,127,l),
(116,214,l),
(91,214,l),
(91,127,l)
);
},
{
closed = 1;
nodes = (
(312,42,l),
(307,66,l),
(222,50,l),
(227,25,l)
);
},
{
closed = 1;
nodes = (
(116,196,l),
(116,283,l),
(91,283,l),
(91,196,l)
);
},
{
closed = 1;
nodes = (
(284,131,l),
(279,156,l),
(194,138,l),
(199,113,l)
);
},
{
closed = 1;
nodes = (
(245,184,l),
(234,207,l),
(155,172,l),
(165,149,l)
);
},
{
closed = 1;
nodes = (
(371,87,l),
(352,103,l),
(296,37,l),
(315,21,l)
);
},
{
closed = 1;
nodes = (
(116,266,l),
(116,353,l),
(91,353,l),
(91,266,l)
);
},
{
closed = 1;
nodes = (
(207,196,l),
(207,283,l),
(182,283,l),
(182,196,l)
);
},
{
closed = 1;
nodes = (
(336,187,l),
(317,203,l),
(262,136,l),
(282,120,l)
);
},
{
closed = 1;
nodes = (
(116,335,l),
(116,422,l),
(91,422,l),
(91,335,l)
);
},
{
closed = 1;
nodes = (
(207,266,l),
(207,353,l),
(182,353,l),
(182,266,l)
);
},
{
closed = 1;
nodes = (
(116,405,l),
(116,492,l),
(91,492,l),
(91,405,l)
);
},
{
closed = 1;
nodes = (
(352,261,l),
(327,264,l),
(316,178,l),
(341,175,l)
);
},
{
closed = 1;
nodes = (
(207,335,l),
(207,422,l),
(182,422,l),
(182,335,l)
);
},
{
closed = 1;
nodes = (
(441,204,l),
(416,207,l),
(407,120,l),
(432,118,l)
);
},
{
closed = 1;
nodes = (
(116,474,l),
(116,561,l),
(91,561,l),
(91,474,l)
);
},
{
closed = 1;
nodes = (
(360,330,l),
(336,333,l),
(325,247,l),
(350,244,l)
);
},
{
closed = 1;
nodes = (
(284,407,l),
(274,430,l),
(195,393,l),
(206,370,l)
);
},
{
closed = 1;
nodes = (
(448,273,l),
(423,276,l),
(414,190,l),
(439,187,l)
);
},
{
closed = 1;
nodes = (
(247,496,l),
(236,518,l),
(159,478,l),
(170,455,l)
);
},
{
closed = 1;
nodes = (
(356,317,l),
(337,402,l),
(312,396,l),
(331,311,l)
);
},
{
closed = 1;
nodes = (
(116,544,l),
(116,631,l),
(91,631,l),
(91,544,l)
);
},
{
closed = 1;
nodes = (
(345,400,l),
(271,444,l),
(258,423,l),
(333,379,l)
);
},
{
closed = 1;
nodes = (
(464,253,l),
(447,338,l),
(422,333,l),
(439,248,l)
);
},
{
closed = 1;
nodes = (
(207,499,l),
(207,586,l),
(182,586,l),
(182,499,l)
);
},
{
closed = 1;
nodes = (
(116,613,l),
(116,700,l),
(91,700,l),
(91,613,l)
);
},
{
closed = 1;
nodes = (
(309,528,l),
(297,550,l),
(220,510,l),
(232,488,l)
);
},
{
closed = 1;
nodes = (
(450,321,l),
(433,406,l),
(408,401,l),
(425,316,l)
);
},
{
closed = 1;
nodes = (
(207,568,l),
(207,655,l),
(182,655,l),
(182,568,l)
);
},
{
closed = 1;
nodes = (
(116,683,l),
(116,770,l),
(91,770,l),
(91,683,l)
);
},
{
closed = 1;
nodes = (
(369,496,l),
(294,540,l),
(281,518,l),
(356,474,l)
);
},
{
closed = 1;
nodes = (
(436,389,l),
(419,474,l),
(394,469,l),
(412,384,l)
);
},
{
closed = 1;
nodes = (
(429,461,l),
(354,505,l),
(341,483,l),
(416,439,l)
);
},
{
closed = 1;
nodes = (
(207,638,l),
(207,725,l),
(182,725,l),
(182,638,l)
);
},
{
closed = 1;
nodes = (
(180,750,l),
(180,775,l),
(94,775,l),
(94,750,l)
);
},
{
closed = 1;
nodes = (
(207,707,l),
(207,794,l),
(182,794,l),
(182,707,l)
);
}
);
width = 494;
},
{
layerId = "BE691341-D8A5-4739-82E3-AB614D387AD5";
shapes = (
{
closed = 1;
nodes = (
(465,87,l),
(440,130,l),
(290,43,l),
(315,0,l)
);
},
{
closed = 1;
nodes = (
(238,46,l),
(216,92,l),
(59,18,l),
(81,-28,l)
);
},
{
closed = 1;
nodes = (
(51,63,l),
(209,135,l),
(188,180,l),
(30,109,l)
);
},
{
closed = 1;
nodes = (
(209,135,l),
(188,180,l),
(30,109,l),
(51,63,l)
);
},
{
closed = 1;
nodes = (
(238,46,l),
(216,92,l),
(59,18,l),
(81,-28,l)
);
},
{
closed = 1;
nodes = (
(290,-35,l),
(260,136,l),
(211,128,l),
(241,-43,l)
);
},
{
closed = 1;
nodes = (
(51,63,l),
(209,135,l),
(188,180,l),
(30,109,l)
);
},
{
closed = 1;
nodes = (
(260,136,l),
(211,128,l),
(241,-43,l),
(290,-35,l)
);
},
{
closed = 1;
nodes = (
(173,156,l),
(173,329,l),
(123,329,l),
(123,156,l)
);
},
{
closed = 1;
nodes = (
(373,130,l),
(363,180,l),
(193,144,l),
(203,95,l)
);
},
{
closed = 1;
nodes = (
(373,130,l),
(363,180,l),
(193,144,l),
(203,95,l)
);
},
{
closed = 1;
nodes = (
(465,87,l),
(440,130,l),
(290,43,l),
(315,0,l)
);
},
{
closed = 1;
nodes = (
(173,156,l),
(173,329,l),
(123,329,l),
(123,156,l)
);
},
{
closed = 1;
nodes = (
(264,155,l),
(264,329,l),
(214,329,l),
(214,155,l)
);
},
{
closed = 1;
nodes = (
(373,130,l),
(363,180,l),
(193,144,l),
(203,95,l)
);
},
{
closed = 1;
nodes = (
(173,295,l),
(173,468,l),
(123,468,l),
(123,295,l)
);
},
{
closed = 1;
nodes = (
(264,155,l),
(264,329,l),
(214,329,l),
(214,155,l)
);
},
{
closed = 1;
nodes = (
(173,295,l),
(173,468,l),
(123,468,l),
(123,295,l)
);
},
{
closed = 1;
nodes = (
(414,305,l),
(364,311,l),
(343,139,l),
(392,133,l)
);
},
{
closed = 1;
nodes = (
(264,294,l),
(264,468,l),
(214,468,l),
(214,294,l)
);
},
{
closed = 1;
nodes = (
(552,199,l),
(521,238,l),
(384,131,l),
(415,92,l)
);
},
{
closed = 1;
nodes = (
(173,434,l),
(173,607,l),
(123,607,l),
(123,434,l)
);
},
{
closed = 1;
nodes = (
(414,305,l),
(364,311,l),
(343,139,l),
(392,133,l)
);
},
{
closed = 1;
nodes = (
(373,417,l),
(352,462,l),
(195,388,l),
(216,343,l)
);
},
{
closed = 1;
nodes = (
(552,199,l),
(521,238,l),
(384,131,l),
(415,92,l)
);
},
{
closed = 1;
nodes = (
(264,468,l),
(214,468,l),
(214,294,l),
(264,294,l)
);
},
{
closed = 1;
nodes = (
(422,280,l),
(384,449,l),
(335,438,l),
(373,269,l)
);
},
{
closed = 1;
nodes = (
(173,434,l),
(173,607,l),
(123,607,l),
(123,434,l)
);
},
{
closed = 1;
nodes = (
(352,462,l),
(195,388,l),
(216,343,l),
(373,417,l)
);
},
{
closed = 1;
nodes = (
(457,211,l),
(558,352,l),
(518,381,l),
(416,240,l)
);
},
{
closed = 1;
nodes = (
(264,458,l),
(264,632,l),
(214,632,l),
(214,458,l)
);
},
{
closed = 1;
nodes = (
(173,573,l),
(173,746,l),
(123,746,l),
(123,573,l)
);
},
{
closed = 1;
nodes = (
(398,539,l),
(374,584,l),
(220,503,l),
(244,459,l)
);
},
{
closed = 1;
nodes = (
(457,211,l),
(558,352,l),
(518,381,l),
(416,240,l)
);
},
{
closed = 1;
nodes = (
(264,458,l),
(264,632,l),
(214,632,l),
(214,458,l)
);
},
{
closed = 1;
nodes = (
(173,573,l),
(173,746,l),
(123,746,l),
(123,573,l)
);
},
{
closed = 1;
nodes = (
(517,452,l),
(367,540,l),
(342,497,l),
(492,409,l)
);
},
{
closed = 1;
nodes = (
(422,280,l),
(384,449,l),
(335,438,l),
(373,269,l)
);
},
{
closed = 1;
nodes = (
(501,352,l),
(467,522,l),
(418,512,l),
(452,342,l)
);
},
{
closed = 1;
nodes = (
(264,597,l),
(264,771,l),
(214,771,l),
(214,597,l)
);
},
{
closed = 1;
nodes = (
(268,740,l),
(268,790,l),
(94,790,l),
(94,740,l)
);
},
{
closed = 1;
nodes = (
(264,597,l),
(264,771,l),
(214,771,l),
(214,597,l)
);
}
);
width = 588;
}
);
note = b;
unicode = 98;
},
{
glyphname = c;
lastChange = "2023-05-12 17:56:05 +0000";
layers = (
{
layerId = m01;
shapes = (
{
closed = 1;
nodes = (
(374,408,l),
(309,466,l),
(293,447,l),
(357,389,l)
);
},
{
closed = 1;
nodes = (
(134,104,l),
(65,158,l),
(50,138,l),
(118,84,l)
);
},
{
closed = 1;
nodes = (
(188,61,l),
(120,115,l),
(104,95,l),
(173,41,l)
);
},
{
closed = 1;
nodes = (
(214,-10,l),
(200,76,l),
(175,72,l),
(190,-14,l)
);
},
{
closed = 1;
nodes = (
(103,194,l),
(83,210,l),
(30,141,l),
(50,125,l)
);
},
{
closed = 1;
nodes = (
(292,11,l),
(289,36,l),
(203,25,l),
(206,0,l)
);
},
{
closed = 1;
nodes = (
(104,274,l),
(79,277,l),
(68,191,l),
(93,187,l)
);
},
{
closed = 1;
nodes = (
(361,19,l),
(358,44,l),
(272,33,l),
(275,9,l)
);
},
{
closed = 1;
nodes = (
(234,148,l),
(165,201,l),
(150,181,l),
(219,128,l)
);
},
{
closed = 1;
nodes = (
(289,106,l),
(220,159,l),
(205,139,l),
(274,86,l)
);
},
{
closed = 1;
nodes = (
(112,343,l),
(87,346,l),
(77,259,l),
(101,256,l)
);
},
{
closed = 1;
nodes = (
(200,267,l),
(175,270,l),
(164,184,l),
(189,181,l)
);
},
{
closed = 1;
nodes = (
(430,28,l),
(427,53,l),
(341,42,l),
(344,17,l)
);
},
{
closed = 1;
nodes = (
(358,115,l),
(356,140,l),
(269,129,l),
(272,104,l)
);
},
{
closed = 1;
nodes = (
(111,390,l),
(88,399,l),
(54,319,l),
(77,310,l)
);
},
{
closed = 1;
nodes = (
(209,336,l),
(185,339,l),
(173,253,l),
(198,250,l)
);
},
{
closed = 1;
nodes = (
(423,40,l),
(414,126,l),
(389,123,l),
(399,37,l)
);
},
{
closed = 1;
nodes = (
(427,123,l),
(425,148,l),
(338,138,l),
(341,113,l)
);
},
{
closed = 1;
nodes = (
(138,454,l),
(115,463,l),
(81,383,l),
(104,374,l)
);
},
{
closed = 1;
nodes = (
(233,333,l),
(180,403,l),
(160,387,l),
(213,318,l)
);
},
{
closed = 1;
nodes = (
(165,518,l),
(142,527,l),
(108,447,l),
(131,438,l)
);
},
{
closed = 1;
nodes = (
(263,430,l),
(250,452,l),
(175,410,l),
(187,388,l)
);
},
{
closed = 1;
nodes = (
(229,520,l),
(217,542,l),
(141,500,l),
(153,478,l)
);
},
{
closed = 1;
nodes = (
(323,464,l),
(311,486,l),
(235,444,l),
(247,422,l)
);
},
{
closed = 1;
nodes = (
(290,553,l),
(278,575,l),
(202,533,l),
(214,511,l)
);
},
{
closed = 1;
nodes = (
(421,445,l),
(402,461,l),
(345,396,l),
(363,379,l)
);
},
{
closed = 1;
nodes = (
(333,571,l),
(268,628,l),
(251,609,l),
(317,552,l)
);
},
{
closed = 1;
nodes = (
(386,526,l),
(320,583,l),
(304,564,l),
(370,507,l)
);
},
{
closed = 1;
nodes = (
(438,480,l),
(373,537,l),
(356,518,l),
(422,461,l)
);
},
{
closed = 1;
nodes = (
(466,497,l),
(447,513,l),
(390,448,l),
(409,432,l)
);
}
);
width = 496;
},
{
layerId = "BE691341-D8A5-4739-82E3-AB614D387AD5";
shapes = (
{
closed = 1;
nodes = (
(437,397,l),
(307,513,l),
(274,476,l),
(403,360,l)
);
},
{
closed = 1;
nodes = (
(198,96,l),
(61,204,l),
(30,164,l),
(167,57,l)
);
},
{
closed = 1;
nodes = (
(198,96,l),
(61,204,l),
(30,164,l),
(167,57,l)
);
},
{
closed = 1;
nodes = (
(256,-41,l),
(227,130,l),
(177,122,l),
(207,-49,l)
);
},
{
closed = 1;
nodes = (
(143,325,l),
(94,331,l),
(73,158,l),
(122,152,l)
);
},
{
closed = 1;
nodes = (
(227,130,l),
(177,122,l),
(207,-49,l),
(256,-41,l)
);
},
{
closed = 1;
nodes = (
(143,325,l),
(94,331,l),
(73,158,l),
(122,152,l)
);
},
{
closed = 1;
nodes = (
(428,22,l),
(422,71,l),
(249,50,l),
(255,0,l)
);
},
{
closed = 1;
nodes = (
(298,141,l),
(160,247,l),
(130,207,l),
(268,101,l)
);
},
{
closed = 1;
nodes = (
(419,167,l),
(247,146,l),
(253,96,l),
(425,117,l)
);
},
{
closed = 1;
nodes = (
(161,434,l),
(115,454,l),
(47,294,l),
(93,274,l)
);
},
{
closed = 1;
nodes = (
(160,247,l),
(130,207,l),
(268,101,l),
(298,141,l)
);
},
{
closed = 1;
nodes = (
(428,22,l),
(422,71,l),
(249,50,l),
(255,0,l)
);
},
{
closed = 1;
nodes = (
(425,117,l),
(419,167,l),
(247,146,l),
(253,96,l)
);
},
{
closed = 1;
nodes = (
(161,434,l),
(115,454,l),
(47,294,l),
(93,274,l)
);
},
{
closed = 1;
nodes = (
(250,387,l),
(200,393,l),
(177,221,l),
(227,214,l)
);
},
{
closed = 1;
nodes = (
(463,7,l),
(444,180,l),
(394,174,l),
(413,2,l)
);
},
{
closed = 1;
nodes = (
(444,180,l),
(394,174,l),
(413,2,l),
(463,7,l)
);
},
{
closed = 1;
nodes = (
(215,562,l),
(169,582,l),
(101,422,l),
(148,402,l)
);
},
{
closed = 1;
nodes = (
(227,214,l),
(250,387,l),
(200,393,l),
(177,221,l)
);
},
{
closed = 1;
nodes = (
(215,562,l),
(169,582,l),
(101,422,l),
(148,402,l)
);
},
{
closed = 1;
nodes = (
(316,479,l),
(278,512,l),
(165,380,l),
(203,347,l)
);
},
{
closed = 1;
nodes = (
(351,588,l),
(319,627,l),
(185,517,l),
(216,478,l)
);
},
{
closed = 1;
nodes = (
(316,479,l),
(278,512,l),
(165,380,l),
(203,347,l)
);
},
{
closed = 1;
nodes = (
(351,588,l),
(319,627,l),
(185,517,l),
(216,478,l)
);
},
{
closed = 1;
nodes = (
(403,360,l),
(437,397,l),
(307,513,l),
(274,476,l)
);
},
{
closed = 1;
nodes = (
(449,516,l),
(318,630,l),
(285,592,l),
(416,478,l)
);
},
{
closed = 1;
nodes = (
(449,516,l),
(318,630,l),
(285,592,l),
(416,478,l)
);
},
{
closed = 1;
nodes = (
(412,400,l),
(526,531,l),
(489,564,l),
(374,433,l)
);
},
{
closed = 1;
nodes = (
(526,531,l),
(489,564,l),
(374,433,l),
(412,400,l)
);
}
);
width = 556;
}
);
note = c;
unicode = 99;
},
{
glyphname = d;
lastChange = "2023-05-12 17:56:14 +0000";
layers = (
{
layerId = m01;
shapes = (
{
closed = 1;
nodes = (
(193,175,l),
(137,242,l),
(118,226,l),
(173,159,l)
);
},
{
closed = 1;
nodes = (
(217,-1,l),
(161,66,l),
(142,50,l),
(197,-17,l)
);
},
{
closed = 1;
nodes = (
(172,53,l),
(117,119,l),
(97,103,l),
(153,37,l)
);
},
{
closed = 1;
nodes = (
(128,106,l),
(72,173,l),
(53,157,l),
(109,90,l)
);
},
{
closed = 1;
nodes = (
(61,227,l),
(36,229,l),
(30,142,l),
(55,140,l)
);
},
{
closed = 1;
nodes = (
(288,24,l),
(203,42,l),
(198,17,l),
(283,0,l)
);
},
{
closed = 1;
nodes = (
(82,289,l),
(57,293,l),
(43,207,l),
(68,203,l)
);
},
{
closed = 1;
nodes = (
(322,62,l),
(297,67,l),
(281,-18,l),
(305,-23,l)
);
},
{
closed = 1;
nodes = (
(237,121,l),
(182,188,l),
(162,172,l),
(218,106,l)
);
},
{
closed = 1;
nodes = (
(302,119,l),
(217,136,l),
(212,112,l),
(297,94,l)
);
},
{
closed = 1;
nodes = (
(94,347,l),
(71,357,l),
(37,277,l),
(60,267,l)
);
},
{
closed = 1;
nodes = (
(387,29,l),
(308,65,l),
(298,42,l),
(376,6,l)
);
},
{
closed = 1;
nodes = (
(309,145,l),
(286,156,l),
(250,77,l),
(273,66,l)
);
},
{
closed = 1;
nodes = (
(450,0,l),
(371,36,l),
(361,13,l),
(440,-23,l)
);
},
{
closed = 1;
nodes = (
(182,308,l),
(157,313,l),
(143,227,l),
(167,223,l)
);
},
{
closed = 1;
nodes = (
(122,411,l),
(99,421,l),
(65,341,l),
(88,331,l)
);
},
{
closed = 1;
nodes = (
(325,114,l),
(325,201,l),
(300,201,l),
(300,114,l)
);
},
{
closed = 1;
nodes = (
(474,77,l),
(452,88,l),
(415,9,l),
(437,-2,l)
);
},
{
closed = 1;
nodes = (
(209,370,l),
(185,379,l),
(154,298,l),
(177,289,l)
);
},
{
closed = 1;
nodes = (
(487,87,l),
(409,124,l),
(398,102,l),
(477,65,l)
);
},
{
closed = 1;
nodes = (
(325,183,l),
(325,270,l),
(300,270,l),
(300,183,l)
);
},
{
closed = 1;
nodes = (
(421,99,l),
(421,186,l),
(396,186,l),
(396,99,l)
);
},
{
closed = 1;
nodes = (
(149,475,l),
(126,485,l),
(92,405,l),
(115,395,l)
);
},
{
closed = 1;
nodes = (
(264,398,l),
(251,420,l),
(177,376,l),
(189,354,l)
);
},
{
closed = 1;
nodes = (
(325,253,l),
(325,340,l),
(300,340,l),
(300,253,l)
);
},
{
closed = 1;
nodes = (
(421,168,l),
(421,255,l),
(396,255,l),
(396,168,l)
);
},
{
closed = 1;
nodes = (
(215,480,l),
(203,502,l),
(126,460,l),
(138,438,l)
);
},
{
closed = 1;
nodes = (
(325,322,l),
(325,409,l),
(300,409,l),
(300,322,l)
);
},
{
closed = 1;
nodes = (
(421,238,l),
(421,325,l),
(396,325,l),
(396,238,l)
);
},
{
closed = 1;
nodes = (
(328,416,l),
(241,426,l),
(238,401,l),
(325,391,l)
);
},
{
closed = 1;
nodes = (
(276,513,l),
(264,535,l),
(188,494,l),
(200,472,l)
);
},
{
closed = 1;
nodes = (
(421,307,l),
(421,394,l),
(396,394,l),
(396,307,l)
);
},
{
closed = 1;
nodes = (
(328,511,l),
(242,523,l),
(239,498,l),
(325,486,l)
);
},
{
closed = 1;
nodes = (
(421,377,l),
(421,464,l),
(396,464,l),
(396,377,l)
);
},
{
closed = 1;
nodes = (
(325,497,l),
(325,584,l),
(300,584,l),
(300,497,l)
);
},
{
closed = 1;
nodes = (
(421,446,l),
(421,533,l),
(396,533,l),
(396,446,l)
);
},
{
closed = 1;
nodes = (
(325,567,l),
(325,654,l),
(300,654,l),
(300,567,l)
);
},
{
closed = 1;
nodes = (
(421,516,l),
(421,603,l),
(396,603,l),
(396,516,l)
);
},
{
closed = 1;
nodes = (
(325,636,l),
(325,723,l),
(300,723,l),
(300,636,l)
);
},
{
closed = 1;
nodes = (
(421,585,l),
(421,672,l),
(396,672,l),
(396,585,l)
);
},
{
closed = 1;
nodes = (
(325,706,l),
(325,792,l),
(300,792,l),
(300,706,l)
);
},
{
closed = 1;
nodes = (
(421,655,l),
(421,741,l),
(396,741,l),
(396,655,l)
);
},
{
closed = 1;
nodes = (
(407,755,l),
(407,780,l),
(320,780,l),
(320,755,l)
);
},
{
closed = 1;
nodes = (
(421,724,l),
(421,811,l),
(396,811,l),
(396,724,l)
);
}
);
width = 517;
},
{
layerId = "BE691341-D8A5-4739-82E3-AB614D387AD5";
shapes = (
{
closed = 1;
nodes = (
(187,174,l),
(216,345,l),
(167,353,l),
(138,182,l)
);
},
{
closed = 1;
nodes = (
(269,-30,l),
(158,103,l),
(119,71,l),
(230,-62,l)
);
},
{
closed = 1;
nodes = (
(180,76,l),
(69,210,l),
(30,178,l),
(142,44,l)
);
},
{
closed = 1;
nodes = (
(180,76,l),
(69,210,l),
(30,178,l),
(142,44,l)
);
},
{
closed = 1;
nodes = (
(116,326,l),
(67,334,l),
(39,162,l),
(88,154,l)
);
},
{
closed = 1;
nodes = (
(308,108,l),
(275,-63,l),
(324,-72,l),
(357,99,l)
);
},
{
closed = 1;
nodes = (
(116,326,l),
(67,334,l),
(39,162,l),
(88,154,l)
);
},
{
closed = 1;
nodes = (
(357,99,l),
(308,108,l),
(275,-63,l),
(324,-72,l)
);
},
{
closed = 1;
nodes = (
(289,92,l),
(178,226,l),
(140,194,l),
(251,60,l)
);
},
{
closed = 1;
nodes = (
(308,196,l),
(235,38,l),
(281,17,l),
(353,175,l)
);
},
{
closed = 1;
nodes = (
(165,442,l),
(119,462,l),
(51,302,l),
(97,282,l)
);
},
{
closed = 1;
nodes = (
(509,-11,l),
(352,62,l),
(331,16,l),
(489,-57,l)
);
},
{
closed = 1;
nodes = (
(353,175,l),
(308,196,l),
(235,38,l),
(281,17,l)
);
},
{
closed = 1;
nodes = (
(509,-11,l),
(352,62,l),
(331,16,l),
(489,-57,l)
);
},
{
closed = 1;
nodes = (
(216,345,l),
(167,353,l),
(138,182,l),
(187,174,l)
);
},
{
closed = 1;
nodes = (
(165,442,l),
(119,462,l),
(51,302,l),
(97,282,l)
);
},
{
closed = 1;
nodes = (
(353,136,l),
(353,310,l),
(303,310,l),
(303,136,l)
);
},
{
closed = 1;
nodes = (
(390,150,l),
(368,105,l),
(525,31,l),
(547,76,l)
);
},
{
closed = 1;
nodes = (
(323,406,l),
(297,449,l),
(148,360,l),
(173,317,l)
);
},
{
closed = 1;
nodes = (
(547,76,l),
(390,150,l),
(368,105,l),
(525,31,l)
);
},
{
closed = 1;
nodes = (
(353,136,l),
(353,310,l),
(303,310,l),
(303,136,l)
);
},
{
closed = 1;
nodes = (
(448,121,l),
(448,294,l),
(398,294,l),
(398,121,l)
);
},
{
closed = 1;
nodes = (
(274,486,l),
(250,530,l),
(97,447,l),
(121,403,l)
);
},
{
closed = 1;
nodes = (
(323,406,l),
(297,449,l),
(148,360,l),
(173,317,l)
);
},
{
closed = 1;
nodes = (
(353,275,l),
(353,448,l),
(303,448,l),
(303,275,l)
);
},
{
closed = 1;
nodes = (
(448,121,l),
(448,294,l),
(398,294,l),
(398,121,l)
);
},
{
closed = 1;
nodes = (
(274,486,l),
(250,530,l),
(97,447,l),
(121,403,l)
);
},
{
closed = 1;
nodes = (
(353,275,l),
(353,448,l),
(303,448,l),
(303,275,l)
);
},
{
closed = 1;
nodes = (
(448,260,l),
(448,433,l),
(398,433,l),
(398,260,l)
);
},
{
closed = 1;
nodes = (
(388,514,l),
(216,537,l),
(209,487,l),
(381,464,l)
);
},
{
closed = 1;
nodes = (
(381,464,l),
(388,514,l),
(216,537,l),
(209,487,l)
);
},
{
closed = 1;
nodes = (
(448,260,l),
(448,433,l),
(398,433,l),
(398,260,l)
);
},
{
closed = 1;
nodes = (
(388,514,l),
(216,537,l),
(209,487,l),
(381,464,l)
);
},
{
closed = 1;
nodes = (
(448,399,l),
(448,572,l),
(398,572,l),
(398,399,l)
);
},
{
closed = 1;
nodes = (
(353,519,l),
(353,693,l),
(303,693,l),
(303,519,l)
);
},
{
closed = 1;
nodes = (
(448,399,l),
(448,572,l),
(398,572,l),
(398,399,l)
);
},
{
closed = 1;
nodes = (
(353,519,l),
(353,693,l),
(303,693,l),
(303,519,l)
);
},
{
closed = 1;
nodes = (
(448,538,l),
(448,711,l),
(398,711,l),
(398,538,l)
);
},
{
closed = 1;
nodes = (
(353,658,l),
(353,832,l),
(303,832,l),
(303,658,l)
);
},
{
closed = 1;
nodes = (
(448,538,l),
(448,711,l),
(398,711,l),
(398,538,l)
);
},
{
closed = 1;
nodes = (
(353,658,l),
(353,832,l),
(303,832,l),
(303,658,l)
);
},
{
closed = 1;
nodes = (
(448,677,l),
(448,850,l),
(398,850,l),
(398,677,l)
);
},
{
closed = 1;
nodes = (
(398,677,l),
(448,677,l),
(448,850,l),
(398,850,l)
);
},
{
closed = 1;
nodes = (
(448,677,l),
(448,850,l),
(398,850,l),
(398,677,l)
);
}
);
width = 577;
}
);
note = d;
unicode = 100;
},
{
glyphname = e;
lastChange = "2023-05-12 17:56:23 +0000";
layers = (
{
layerId = m01;
shapes = (
{
closed = 1;
nodes = (
(356,523,l),
(298,588,l),
(279,571,l),
(337,506,l)
);
},
{
closed = 1;
nodes = (
(113,112,l),
(90,120,l),
(63,37,l),
(87,30,l)
);
},
{
closed = 1;
nodes = (
(191,46,l),
(109,75,l),
(101,51,l),
(183,23,l)
);
},
{
closed = 1;
nodes = (
(106,104,l),
(77,186,l),
(53,177,l),
(83,95,l)
);
},
{
closed = 1;
nodes = (
(257,24,l),
(175,52,l),
(167,28,l),
(249,0,l)
);
},
{
closed = 1;
nodes = (
(83,169,l),
(53,251,l),
(30,243,l),
(59,161,l)
);
},
{
closed = 1;
nodes = (
(311,3,l),
(303,27,l),
(221,0,l),
(229,-24,l)
);
},
{
closed = 1;
nodes = (
(235,132,l),
(153,161,l),
(144,137,l),
(226,109,l)
);
},
{
closed = 1;
nodes = (
(86,301,l),
(61,303,l),
(53,216,l),
(78,214,l)
);
},
{
closed = 1;
nodes = (
(377,25,l),
(369,49,l),
(287,22,l),
(295,-2,l)
);
},
{
closed = 1;
nodes = (
(188,159,l),
(158,241,l),
(135,232,l),
(164,151,l)
);
},
{
closed = 1;
nodes = (
(300,110,l),
(218,138,l),
(210,114,l),
(292,86,l)
);
},
{
closed = 1;
nodes = (
(93,370,l),
(68,372,l),
(59,286,l),
(84,283,l)
);
},
{
closed = 1;
nodes = (
(185,306,l),
(160,309,l),
(149,223,l),
(174,220,l)
);
},
{
closed = 1;
nodes = (
(366,121,l),
(359,145,l),
(276,118,l),
(284,94,l)
);
},
{
closed = 1;
nodes = (
(443,47,l),
(435,71,l),
(353,43,l),
(361,20,l)
);
},
{
closed = 1;
nodes = (
(112,426,l),
(89,435,l),
(57,354,l),
(81,345,l)
);
},
{
closed = 1;
nodes = (
(264,270,l),
(264,295,l),
(177,295,l),
(177,270,l)
);
},
{
closed = 1;
nodes = (
(432,142,l),
(425,166,l),
(342,139,l),
(350,115,l)
);
},
{
closed = 1;
nodes = (
(509,69,l),
(501,93,l),
(419,65,l),
(427,42,l)
);
},
{
closed = 1;
nodes = (
(487,35,l),
(461,118,l),
(437,110,l),
(463,27,l)
);
},
{
closed = 1;
nodes = (
(138,490,l),
(114,500,l),
(83,419,l),
(106,409,l)
);
},
{
closed = 1;
nodes = (
(214,417,l),
(190,426,l),
(158,346,l),
(181,336,l)
);
},
{
closed = 1;
nodes = (
(228,366,l),
(228,391,l),
(141,391,l),
(141,366,l)
);
},
{
closed = 1;
nodes = (
(334,270,l),
(334,295,l),
(247,295,l),
(247,270,l)
);
},
{
closed = 1;
nodes = (
(466,101,l),
(440,184,l),
(416,176,l),
(442,93,l)
);
},
{
closed = 1;
nodes = (
(383,253,l),
(380,278,l),
(294,269,l),
(296,244,l)
);
},
{
closed = 1;
nodes = (
(298,366,l),
(298,391,l),
(211,391,l),
(211,366,l)
);
},
{
closed = 1;
nodes = (
(172,512,l),
(167,537,l),
(82,520,l),
(87,495,l)
);
},
{
closed = 1;
nodes = (
(264,434,l),
(259,459,l),
(174,440,l),
(179,416,l)
);
},
{
closed = 1;
nodes = (
(452,259,l),
(450,284,l),
(363,276,l),
(366,251,l)
);
},
{
closed = 1;
nodes = (
(333,342,l),
(326,429,l),
(301,427,l),
(308,340,l)
);
},
{
closed = 1;
nodes = (
(240,525,l),
(235,550,l),
(150,533,l),
(155,509,l)
);
},
{
closed = 1;
nodes = (
(321,418,l),
(265,483,l),
(246,467,l),
(303,401,l)
);
},
{
closed = 1;
nodes = (
(435,280,l),
(428,367,l),
(403,365,l),
(410,278,l)
);
},
{
closed = 1;
nodes = (
(308,539,l),
(303,563,l),
(218,546,l),
(223,522,l)
);
},
{
closed = 1;
nodes = (
(430,350,l),
(423,436,l),
(398,434,l),
(405,348,l)
);
},
{
closed = 1;
nodes = (
(402,471,l),
(344,536,l),
(325,519,l),
(383,455,l)
);
},
{
closed = 1;
nodes = (
(424,419,l),
(417,506,l),
(392,504,l),
(399,417,l)
);
}
);
width = 539;
},
{
layerId = "BE691341-D8A5-4739-82E3-AB614D387AD5";
shapes = (
{
closed = 1;
nodes = (
(420,483,l),
(304,612,l),
(267,579,l),
(383,450,l)
);
},
{
closed = 1;
nodes = (
(165,134,l),
(117,149,l),
(64,-16,l),
(112,-31,l)
);
},
{
closed = 1;
nodes = (
(329,6,l),
(165,62,l),
(148,15,l),
(313,-42,l)
);
},
{
closed = 1;
nodes = (
(112,-31,l),
(165,134,l),
(117,149,l),
(64,-16,l)
);
},
{
closed = 1;
nodes = (
(329,6,l),
(165,62,l),
(148,15,l),
(313,-42,l)
);
},
{
closed = 1;
nodes = (
(136,117,l),
(77,280,l),
(30,263,l),
(89,100,l)
);
},
{
closed = 1;
nodes = (
(449,11,l),
(433,59,l),
(268,4,l),
(284,-44,l)
);
},
{
closed = 1;
nodes = (
(372,91,l),
(208,148,l),
(191,101,l),
(356,44,l)
);
},
{
closed = 1;
nodes = (
(136,396,l),
(86,401,l),
(69,228,l),
(119,223,l)
);
},
{
closed = 1;
nodes = (
(449,11,l),
(433,59,l),
(268,4,l),
(284,-44,l)
);
},
{
closed = 1;
nodes = (
(241,107,l),
(182,270,l),
(135,253,l),
(194,90,l)
);
},
{
closed = 1;
nodes = (
(372,91,l),
(208,148,l),
(191,101,l),
(356,44,l)
);
},
{
closed = 1;
nodes = (
(136,396,l),
(86,401,l),
(69,228,l),
(119,223,l)
);
},
{
closed = 1;
nodes = (
(334,241,l),
(334,291,l),
(161,291,l),
(161,241,l)
);
},
{
closed = 1;
nodes = (
(504,128,l),
(489,176,l),
(323,122,l),
(339,74,l)
);
},
{
closed = 1;
nodes = (
(581,55,l),
(565,102,l),
(400,48,l),
(416,0,l)
);
},
{
closed = 1;
nodes = (
(192,510,l),
(145,529,l),
(82,367,l),
(128,349,l)
);
},
{
closed = 1;
nodes = (
(334,241,l),
(334,291,l),
(161,291,l),
(161,241,l)
);
},
{
closed = 1;
nodes = (
(504,128,l),
(489,176,l),
(323,122,l),
(339,74,l)
);
},
{
closed = 1;
nodes = (
(581,55,l),
(565,102,l),
(400,48,l),
(416,0,l)
);
},
{
closed = 1;
nodes = (
(539,-19,l),
(486,147,l),
(439,132,l),
(491,-34,l)
);
},
{
closed = 1;
nodes = (
(192,510,l),
(145,529,l),
(82,367,l),
(128,349,l)
);
},
{
closed = 1;
nodes = (
(336,415,l),
(325,464,l),
(155,427,l),
(166,378,l)
);
},
{
closed = 1;
nodes = (
(298,338,l),
(298,388,l),
(124,388,l),
(124,338,l)
);
},
{
closed = 1;
nodes = (
(325,280,l),
(375,284,l),
(362,457,l),
(312,454,l)
);
},
{
closed = 1;
nodes = (
(539,-19,l),
(486,147,l),
(439,132,l),
(491,-34,l)
);
},
{
closed = 1;
nodes = (
(454,228,l),
(449,278,l),
(276,262,l),
(281,212,l)
);
},
{
closed = 1;
nodes = (
(298,338,l),
(298,388,l),
(124,388,l),
(124,338,l)
);
},
{
closed = 1;
nodes = (
(312,505,l),
(302,555,l),
(132,521,l),
(141,472,l)
);
},
{
closed = 1;
nodes = (
(336,415,l),
(325,464,l),
(155,427,l),
(166,378,l)
);
},
{
closed = 1;
nodes = (
(454,228,l),
(449,278,l),
(276,262,l),
(281,212,l)
);
},
{
closed = 1;
nodes = (
(375,284,l),
(362,457,l),
(312,454,l),
(325,280,l)
);
},
{
closed = 1;
nodes = (
(312,505,l),
(302,555,l),
(132,521,l),
(141,472,l)
);
},
{
closed = 1;
nodes = (
(375,284,l),
(362,457,l),
(312,454,l),
(325,280,l)
);
},
{
closed = 1;
nodes = (
(477,222,l),
(464,395,l),
(414,391,l),
(427,218,l)
);
},
{
closed = 1;
nodes = (
(383,450,l),
(420,483,l),
(304,612,l),
(267,579,l)
);
},
{
closed = 1;
nodes = (
(477,222,l),
(464,395,l),
(414,391,l),
(427,218,l)
);
},
{
closed = 1;
nodes = (
(467,361,l),
(453,534,l),
(403,530,l),
(417,357,l)
);
},
{
closed = 1;
nodes = (
(467,361,l),
(453,534,l),
(403,530,l),
(417,357,l)
);
}
);
width = 611;
}
);
note = e;
unicode = 101;
},
{
glyphname = f;
lastChange = "2023-05-12 17:56:32 +0000";
layers = (
{
layerId = m01;
shapes = (
{
closed = 1;
nodes = (
(177,583,l),
(102,627,l),
(89,605,l),
(164,561,l)
);
},
{
closed = 1;
nodes = (
(147,-30,l),
(147,57,l),
(122,57,l),
(122,-30,l)
);
},
{
closed = 1;
nodes = (
(247,0,l),
(247,25,l),
(160,25,l),
(160,0,l)
);
},
{
closed = 1;
nodes = (
(147,39,l),
(147,126,l),
(122,126,l),
(122,39,l)
);
},
{
closed = 1;
nodes = (
(240,14,l),
(240,101,l),
(215,101,l),
(215,14,l)
);
},
{
closed = 1;
nodes = (
(147,109,l),
(147,195,l),
(122,195,l),
(122,109,l)
);
},
{
closed = 1;
nodes = (
(240,84,l),
(240,171,l),
(215,171,l),
(215,84,l)
);
},
{
closed = 1;
nodes = (
(147,178,l),
(147,265,l),
(122,265,l),
(122,178,l)
);
},
{
closed = 1;
nodes = (
(240,153,l),
(240,240,l),
(215,240,l),
(215,153,l)
);
},
{
closed = 1;
nodes = (
(147,248,l),
(147,334,l),
(122,334,l),
(122,248,l)
);
},
{
closed = 1;
nodes = (
(240,223,l),
(240,310,l),
(215,310,l),
(215,223,l)
);
},
{
closed = 1;
nodes = (
(147,317,l),
(147,404,l),
(122,404,l),
(122,317,l)
);
},
{
closed = 1;
nodes = (
(55,434,l),
(55,521,l),
(30,521,l),
(30,434,l)
);
},
{
closed = 1;
nodes = (
(240,292,l),
(240,379,l),
(215,379,l),
(215,292,l)
);
},
{
closed = 1;
nodes = (
(147,387,l),
(147,473,l),
(122,473,l),
(122,387,l)
);
},
{
closed = 1;
nodes = (
(149,458,l),
(149,483,l),
(62,483,l),
(62,458,l)
);
},
{
closed = 1;
nodes = (
(55,504,l),
(55,591,l),
(30,591,l),
(30,504,l)
);
},
{
closed = 1;
nodes = (
(240,362,l),
(240,449,l),
(215,449,l),
(215,362,l)
);
},
{
closed = 1;
nodes = (
(140,550,l),
(140,575,l),
(53,575,l),
(53,550,l)
);
},
{
closed = 1;
nodes = (
(308,425,l),
(308,450,l),
(221,450,l),
(221,425,l)
);
},
{
closed = 1;
nodes = (
(240,494,l),
(240,581,l),
(215,581,l),
(215,494,l)
);
},
{
closed = 1;
nodes = (
(156,674,l),
(134,686,l),
(91,611,l),
(113,598,l)
);
},
{
closed = 1;
nodes = (
(377,425,l),
(377,450,l),
(291,450,l),
(291,425,l)
);
},
{
closed = 1;
nodes = (
(334,519,l),
(334,544,l),
(247,544,l),
(247,519,l)
);
},
{
closed = 1;
nodes = (
(240,564,l),
(240,650,l),
(215,650,l),
(215,564,l)
);
},
{
closed = 1;
nodes = (
(348,463,l),
(348,550,l),
(323,550,l),
(323,463,l)
);
},
{
closed = 1;
nodes = (
(191,734,l),
(169,746,l),
(126,671,l),
(147,659,l)
);
},
{
closed = 1;
nodes = (
(291,670,l),
(204,675,l),
(203,650,l),
(289,645,l)
);
},
{
closed = 1;
nodes = (
(225,794,l),
(203,807,l),
(160,731,l),
(182,719,l)
);
},
{
closed = 1;
nodes = (
(241,762,l),
(164,802,l),
(153,780,l),
(230,740,l)
);
},
{
closed = 1;
nodes = (
(360,666,l),
(274,671,l),
(272,646,l),
(359,641,l)
);
},
{
closed = 1;
nodes = (
(308,763,l),
(221,770,l),
(219,745,l),
(305,738,l)
);
},
{
closed = 1;
nodes = (
(363,738,l),
(338,741,l),
(331,654,l),
(356,652,l)
);
},
{
closed = 1;
nodes = (
(377,757,l),
(290,764,l),
(288,739,l),
(375,732,l)
);
}
);
width = 407;
},
{
layerId = "BE691341-D8A5-4739-82E3-AB614D387AD5";
shapes = (
{
closed = 1;
nodes = (
(233,576,l),
(83,664,l),
(58,621,l),
(208,533,l)
);
},
{
closed = 1;
nodes = (
(172,0,l),
(172,174,l),
(122,174,l),
(122,0,l)
);
},
{
closed = 1;
nodes = (
(303,-8,l),
(303,42,l),
(129,42,l),
(129,-8,l)
);
},
{
closed = 1;
nodes = (
(172,0,l),
(172,174,l),
(122,174,l),
(122,0,l)
);
},
{
closed = 1;
nodes = (
(303,42,l),
(129,42,l),
(129,-8,l),
(303,-8,l)
);
},
{
closed = 1;
nodes = (
(172,139,l),
(172,313,l),
(122,313,l),
(122,139,l)
);
},
{
closed = 1;
nodes = (
(265,45,l),
(265,219,l),
(215,219,l),
(215,45,l)
);
},
{
closed = 1;
nodes = (
(172,139,l),
(172,313,l),
(122,313,l),
(122,139,l)
);
},
{
closed = 1;
nodes = (
(265,45,l),
(265,219,l),
(215,219,l),
(215,45,l)
);
},
{
closed = 1;
nodes = (
(172,278,l),
(172,452,l),
(122,452,l),
(122,278,l)
);
},
{
closed = 1;
nodes = (
(265,184,l),
(265,358,l),
(215,358,l),
(215,184,l)
);
},
{
closed = 1;
nodes = (
(172,278,l),
(172,452,l),
(122,452,l),
(122,278,l)
);
},
{
closed = 1;
nodes = (
(81,465,l),
(81,639,l),
(30,639,l),
(30,465,l)
);
},
{
closed = 1;
nodes = (
(265,184,l),
(265,358,l),
(215,358,l),
(215,184,l)
);
},
{
closed = 1;
nodes = (
(31,450,l),
(205,450,l),
(205,500,l),
(31,500,l)
);
},
{
closed = 1;
nodes = (
(205,450,l),
(205,500,l),
(31,500,l),
(31,450,l)
);
},
{
closed = 1;
nodes = (
(81,465,l),
(81,639,l),
(30,639,l),
(30,465,l)
);
},
{
closed = 1;
nodes = (
(265,323,l),
(265,497,l),
(215,497,l),
(215,323,l)
);
},
{
closed = 1;
nodes = (
(208,533,l),
(233,576,l),
(83,664,l),
(58,621,l)
);
},
{
closed = 1;
nodes = (
(433,417,l),
(433,468,l),
(260,468,l),
(260,417,l)
);
},
{
closed = 1;
nodes = (
(265,358,l),
(265,525,l),
(215,525,l),
(215,358,l)
);
},
{
closed = 1;
nodes = (
(236,770,l),
(192,795,l),
(106,644,l),
(149,619,l)
);
},
{
closed = 1;
nodes = (
(433,417,l),
(433,468,l),
(260,468,l),
(260,417,l)
);
},
{
closed = 1;
nodes = (
(390,511,l),
(390,561,l),
(217,561,l),
(217,511,l)
);
},
{
closed = 1;
nodes = (
(265,525,l),
(265,699,l),
(215,699,l),
(215,525,l)
);
},
{
closed = 1;
nodes = (
(217,511,l),
(390,511,l),
(390,561,l),
(217,561,l)
);
},
{
closed = 1;
nodes = (
(236,770,l),
(192,795,l),
(106,644,l),
(149,619,l)
);
},
{
closed = 1;
nodes = (
(265,497,l),
(265,699,l),
(215,699,l),
(215,497,l)
);
},
{
closed = 1;
nodes = (
(275,713,l),
(298,758,l),
(144,838,l),
(121,793,l)
);
},
{
closed = 1;
nodes = (
(298,758,l),
(144,838,l),
(121,793,l),
(275,713,l)
);
},
{
closed = 1;
nodes = (
(417,680,l),
(244,691,l),
(241,641,l),
(414,630,l)
);
},
{
closed = 1;
nodes = (
(434,770,l),
(261,785,l),
(256,735,l),
(429,720,l)
);
},
{
closed = 1;
nodes = (
(414,630,l),
(417,680,l),
(244,691,l),
(241,641,l)
);
},
{
closed = 1;
nodes = (
(434,770,l),
(261,785,l),
(256,735,l),
(429,720,l)
);
}
);
width = 464;
}
);
note = f;
unicode = 102;
},
{
glyphname = g;
lastChange = "2023-05-12 17:56:37 +0000";
layers = (
{
layerId = m01;
shapes = (
{
closed = 1;
nodes = (
(161,-39,l),
(98,22,l),
(81,4,l),
(143,-57,l)
);
},
{
closed = 1;
nodes = (
(201,-166,l),
(115,-161,l),
(113,-186,l),
(200,-191,l)
);
},
{
closed = 1;
nodes = (
(110,-110,l),
(48,-48,l),
(30,-66,l),
(92,-127,l)
);
},
{
closed = 1;
nodes = (
(159,-159,l),
(97,-97,l),
(80,-115,l),
(141,-176,l)
);
},
{
closed = 1;
nodes = (
(111,-15,l),
(93,2,l),
(33,-61,l),
(51,-78,l)
);
},
{
closed = 1;
nodes = (
(271,-171,l),
(184,-165,l),
(183,-190,l),
(269,-196,l)
);
},
{
closed = 1;
nodes = (
(210,-87,l),
(148,-27,l),
(131,-44,l),
(193,-105,l)
);
},
{
closed = 1;
nodes = (
(340,-175,l),
(253,-170,l),
(252,-195,l),
(339,-200,l)
);
},
{
closed = 1;
nodes = (
(279,-78,l),
(192,-68,l),
(189,-93,l),
(276,-103,l)
);
},
{
closed = 1;
nodes = (
(370,-119,l),
(355,-99,l),
(285,-150,l),
(299,-170,l)
);
},
{
closed = 1;
nodes = (
(185,80,l),
(105,113,l),
(96,90,l),
(176,57,l)
);
},
{
closed = 1;
nodes = (
(133,94,l),
(105,176,l),
(82,168,l),
(110,86,l)
);
},
{
closed = 1;
nodes = (
(334,-36,l),
(318,-16,l),
(250,-70,l),
(265,-89,l)
);
},
{
closed = 1;
nodes = (
(250,55,l),
(169,87,l),
(160,64,l),
(241,31,l)
);
},
{
closed = 1;
nodes = (
(111,160,l),
(83,242,l),
(59,234,l),
(87,152,l)
);
},
{
closed = 1;
nodes = (
(426,-79,l),
(411,-59,l),
(341,-109,l),
(356,-130,l)
);
},
{
closed = 1;
nodes = (
(298,68,l),
(281,86,l),
(218,27,l),
(235,8,l)
);
},
{
closed = 1;
nodes = (
(335,48,l),
(310,51,l),
(300,-36,l),
(325,-39,l)
);
},
{
closed = 1;
nodes = (
(91,295,l),
(66,298,l),
(56,212,l),
(81,209,l)
);
},
{
closed = 1;
nodes = (
(240,153,l),
(158,184,l),
(150,160,l),
(231,130,l)
);
},
{
closed = 1;
nodes = (
(457,-77,l),
(403,-9,l),
(383,-24,l),
(437,-92,l)
);
},
{
closed = 1;
nodes = (
(194,182,l),
(163,263,l),
(140,254,l),
(170,173,l)
);
},
{
closed = 1;
nodes = (
(343,117,l),
(318,120,l),
(308,33,l),
(333,30,l)
);
},
{
closed = 1;
nodes = (
(349,116,l),
(332,134,l),
(269,74,l),
(286,56,l)
);
},
{
closed = 1;
nodes = (
(100,364,l),
(75,367,l),
(64,281,l),
(89,278,l)
);
},
{
closed = 1;
nodes = (
(423,54,l),
(398,57,l),
(388,-30,l),
(413,-33,l)
);
},
{
closed = 1;
nodes = (
(295,183,l),
(279,202,l),
(213,146,l),
(229,127,l)
);
},
{
closed = 1;
nodes = (
(110,398,l),
(91,414,l),
(34,349,l),
(53,333,l)
);
},
{
closed = 1;
nodes = (
(183,327,l),
(158,330,l),
(147,244,l),
(171,241,l)
);
},
{
closed = 1;
nodes = (
(431,123,l),
(406,126,l),
(396,39,l),
(421,36,l)
);
},
{
closed = 1;
nodes = (
(314,168,l),
(314,255,l),
(289,255,l),
(289,168,l)
);
},
{
closed = 1;
nodes = (
(192,396,l),
(167,399,l),
(156,313,l),
(181,310,l)
);
},
{
closed = 1;
nodes = (
(156,450,l),
(137,467,l),
(80,401,l),
(99,385,l)
);
},
{
closed = 1;
nodes = (
(223,391,l),
(204,407,l),
(146,343,l),
(165,326,l)
);
},
{
closed = 1;
nodes = (
(439,192,l),
(414,195,l),
(404,108,l),
(429,105,l)
);
},
{
closed = 1;
nodes = (
(403,146,l),
(403,233,l),
(377,233,l),
(377,146,l)
);
},
{
closed = 1;
nodes = (
(314,238,l),
(314,325,l),
(289,325,l),
(289,238,l)
);
},
{
closed = 1;
nodes = (
(171,441,l),
(154,526,l),
(130,521,l),
(147,436,l)
);
},
{
closed = 1;
nodes = (
(280,408,l),
(275,432,l),
(190,416,l),
(194,391,l)
);
},
{
closed = 1;
nodes = (
(403,216,l),
(403,303,l),
(377,303,l),
(377,216,l)
);
},
{
closed = 1;
nodes = (
(314,307,l),
(314,394,l),
(289,394,l),
(289,307,l)
);
},
{
closed = 1;
nodes = (
(326,392,l),
(319,416,l),
(235,393,l),
(242,369,l)
);
},
{
closed = 1;
nodes = (
(258,490,l),
(254,515,l),
(168,502,l),
(172,477,l)
);
},
{
closed = 1;
nodes = (
(403,285,l),
(403,372,l),
(377,372,l),
(377,285,l)
);
},
{
closed = 1;
nodes = (
(327,500,l),
(323,525,l),
(237,512,l),
(241,488,l)
);
},
{
closed = 1;
nodes = (
(403,355,l),
(403,442,l),
(377,442,l),
(377,355,l)
);
},
{
closed = 1;
nodes = (
(377,488,l),
(372,513,l),
(287,496,l),
(292,472,l)
);
},
{
closed = 1;
nodes = (
(486,427,l),
(480,452,l),
(396,430,l),
(402,406,l)
);
},
{
closed = 1;
nodes = (
(455,424,l),
(434,508,l),
(410,502,l),
(431,417,l)
);
},
{
closed = 1;
nodes = (
(445,502,l),
(440,526,l),
(355,510,l),
(360,485,l)
);
}
);
width = 516;
},
{
layerId = "BE691341-D8A5-4739-82E3-AB614D387AD5";
shapes = (
{
closed = 1;
nodes = (
(286,-101,l),
(161,21,l),
(126,-15,l),
(251,-136,l)
);
},
{
closed = 1;
nodes = (
(234,-173,l),
(111,-50,l),
(75,-85,l),
(198,-208,l)
);
},
{
closed = 1;
nodes = (
(66,-110,l),
(186,16,l),
(149,50,l),
(30,-76,l)
);
},
{
closed = 1;
nodes = (
(234,-173,l),
(111,-50,l),
(75,-85,l),
(198,-208,l)
);
},
{
closed = 1;
nodes = (
(186,16,l),
(149,50,l),
(30,-76,l),
(66,-110,l)
);
},
{
closed = 1;
nodes = (
(350,-153,l),
(177,-142,l),
(174,-192,l),
(347,-203,l)
);
},
{
closed = 1;
nodes = (
(286,-101,l),
(161,21,l),
(126,-15,l),
(251,-136,l)
);
},
{
closed = 1;
nodes = (
(350,-153,l),
(177,-142,l),
(174,-192,l),
(347,-203,l)
);
},
{
closed = 1;
nodes = (
(380,28,l),
(243,-79,l),
(274,-118,l),
(411,-11,l)
);
},
{
closed = 1;
nodes = (
(448,-96,l),
(418,-56,l),
(277,-157,l),
(307,-198,l)
);
},
{
closed = 1;
nodes = (
(266,84,l),
(105,149,l),
(86,102,l),
(247,37,l)
);
},
{
closed = 1;
nodes = (
(172,131,l),
(116,295,l),
(69,279,l),
(125,114,l)
);
},
{
closed = 1;
nodes = (
(411,-11,l),
(380,28,l),
(243,-79,l),
(274,-118,l)
);
},
{
closed = 1;
nodes = (
(266,84,l),
(105,149,l),
(86,102,l),
(247,37,l)
);
},
{
closed = 1;
nodes = (
(172,131,l),
(116,295,l),
(69,279,l),
(125,114,l)
);
},
{
closed = 1;
nodes = (
(448,-96,l),
(418,-56,l),
(277,-157,l),
(307,-198,l)
);
},
{
closed = 1;
nodes = (
(374,96,l),
(340,133,l),
(213,14,l),
(248,-23,l)
);
},
{
closed = 1;
nodes = (
(396,166,l),
(346,172,l),
(326,-1,l),
(376,-6,l)
);
},
{
closed = 1;
nodes = (
(152,413,l),
(103,419,l),
(82,247,l),
(132,241,l)
);
},
{
closed = 1;
nodes = (
(256,153,l),
(195,316,l),
(148,298,l),
(209,136,l)
);
},
{
closed = 1;
nodes = (
(529,-95,l),
(421,41,l),
(382,10,l),
(490,-126,l)
);
},
{
closed = 1;
nodes = (
(256,153,l),
(195,316,l),
(148,298,l),
(209,136,l)
);
},
{
closed = 1;
nodes = (
(396,166,l),
(346,172,l),
(326,-1,l),
(376,-6,l)
);
},
{
closed = 1;
nodes = (
(374,96,l),
(340,133,l),
(213,14,l),
(248,-23,l)
);
},
{
closed = 1;
nodes = (
(152,413,l),
(103,419,l),
(82,247,l),
(132,241,l)
);
},
{
closed = 1;
nodes = (
(421,41,l),
(382,10,l),
(490,-126,l),
(529,-95,l)
);
},
{
closed = 1;
nodes = (
(372,209,l),
(340,247,l),
(207,135,l),
(239,97,l)
);
},
{
closed = 1;
nodes = (
(229,482,l),
(192,515,l),
(77,385,l),
(115,352,l)
);
},
{
closed = 1;
nodes = (
(245,445,l),
(196,452,l),
(173,280,l),
(223,273,l)
);
},
{
closed = 1;
nodes = (
(484,172,l),
(434,178,l),
(414,6,l),
(464,0,l)
);
},
{
closed = 1;
nodes = (
(239,97,l),
(372,209,l),
(340,247,l),
(207,135,l)
);
},
{
closed = 1;
nodes = (
(245,445,l),
(196,452,l),
(173,280,l),
(223,273,l)
);
},
{
closed = 1;
nodes = (
(229,482,l),
(192,515,l),
(77,385,l),
(115,352,l)
);
},
{
closed = 1;
nodes = (
(296,423,l),
(259,456,l),
(143,326,l),
(181,293,l)
);
},
{
closed = 1;
nodes = (
(484,172,l),
(434,178,l),
(414,6,l),
(464,0,l)
);
},
{
closed = 1;
nodes = (
(450,111,l),
(450,285,l),
(400,285,l),
(400,111,l)
);
},
{
closed = 1;
nodes = (
(362,202,l),
(362,376,l),
(312,376,l),
(312,202,l)
);
},
{
closed = 1;
nodes = (
(330,542,l),
(159,516,l),
(166,466,l),
(338,492,l)
);
},
{
closed = 1;
nodes = (
(376,333,l),
(403,375,l),
(256,468,l),
(229,425,l)
);
},
{
closed = 1;
nodes = (
(450,111,l),
(450,285,l),
(400,285,l),
(400,111,l)
);
},
{
closed = 1;
nodes = (
(362,202,l),
(362,376,l),
(312,376,l),
(312,202,l)
);
},
{
closed = 1;
nodes = (
(376,333,l),
(403,375,l),
(256,468,l),
(229,425,l)
);
},
{
closed = 1;
nodes = (
(338,492,l),
(330,542,l),
(159,516,l),
(166,466,l)
);
},
{
closed = 1;
nodes = (
(450,250,l),
(450,424,l),
(400,424,l),
(400,250,l)
);
},
{
closed = 1;
nodes = (
(457,492,l),
(448,542,l),
(277,508,l),
(287,459,l)
);
},
{
closed = 1;
nodes = (
(450,250,l),
(450,424,l),
(400,424,l),
(400,250,l)
);
},
{
closed = 1;
nodes = (
(457,492,l),
(448,542,l),
(277,508,l),
(287,459,l)
);
},
{
closed = 1;
nodes = (
(566,434,l),
(554,483,l),
(386,439,l),
(398,390,l)
);
},
{
closed = 1;
nodes = (
(513,392,l),
(471,561,l),
(422,549,l),
(464,380,l)
);
},
{
closed = 1;
nodes = (
(464,380,l),
(513,392,l),
(471,561,l),
(422,549,l)
);
}
);
width = 596;
}
);
note = g;
unicode = 103;
},
{
glyphname = h;
lastChange = "2023-05-12 17:56:44 +0000";
layers = (
{
layerId = m01;
shapes = (
{
closed = 1;
nodes = (
(253,649,l),
(195,714,l),
(176,697,l),
(235,632,l)
);
},
{
closed = 1;
nodes = (
(126,-38,l),
(126,49,l),
(101,49,l),
(101,-38,l)
);
},
{
closed = 1;
nodes = (
(208,-25,l),
(208,0,l),
(121,0,l),
(121,-25,l)
);
},
{
closed = 1;
nodes = (
(126,32,l),
(126,118,l),
(101,118,l),
(101,32,l)
);
},
{
closed = 1;
nodes = (
(220,-29,l),
(220,58,l),
(195,58,l),
(195,-29,l)
);
},
{
closed = 1;
nodes = (
(126,101,l),
(126,188,l),
(101,188,l),
(101,101,l)
);
},
{
closed = 1;
nodes = (
(220,40,l),
(220,127,l),
(195,127,l),
(195,40,l)
);
},
{
closed = 1;
nodes = (
(126,171,l),
(126,257,l),
(101,257,l),
(101,171,l)
);
},
{
closed = 1;
nodes = (
(352,-33,l),
(352,53,l),
(327,53,l),
(327,-33,l)
);
},
{
closed = 1;
nodes = (
(220,110,l),
(220,197,l),
(195,197,l),
(195,110,l)
);
},
{
closed = 1;
nodes = (
(433,-22,l),
(433,3,l),
(346,3,l),
(346,-22,l)
);
},
{
closed = 1;
nodes = (
(126,240,l),
(126,327,l),
(101,327,l),
(101,240,l)
);
},
{
closed = 1;
nodes = (
(352,36,l),
(352,123,l),
(327,123,l),
(327,36,l)
);
},
{
closed = 1;
nodes = (
(220,179,l),
(220,266,l),
(195,266,l),
(195,179,l)
);
},
{
closed = 1;
nodes = (
(446,-28,l),
(446,59,l),
(421,59,l),
(421,-28,l)
);
},
{
closed = 1;
nodes = (
(126,309,l),
(126,396,l),
(101,396,l),
(101,309,l)
);
},
{
closed = 1;
nodes = (
(352,106,l),
(352,192,l),
(327,192,l),
(327,106,l)
);
},
{
closed = 1;
nodes = (
(220,249,l),
(220,336,l),
(195,336,l),
(195,249,l)
);
},
{
closed = 1;
nodes = (
(446,42,l),
(446,129,l),
(421,129,l),
(421,42,l)
);
},
{
closed = 1;
nodes = (
(126,379,l),
(126,466,l),
(101,466,l),
(101,379,l)
);
},
{
closed = 1;
nodes = (
(352,175,l),
(352,262,l),
(327,262,l),
(327,175,l)
);
},
{
closed = 1;
nodes = (
(220,318,l),
(220,405,l),
(195,405,l),
(195,318,l)
);
},
{
closed = 1;
nodes = (
(446,111,l),
(446,198,l),
(421,198,l),
(421,111,l)
);
},
{
closed = 1;
nodes = (
(126,448,l),
(126,535,l),
(101,535,l),
(101,448,l)
);
},
{
closed = 1;
nodes = (
(352,245,l),
(352,331,l),
(327,331,l),
(327,245,l)
);
},
{
closed = 1;
nodes = (
(300,403,l),
(291,426,l),
(210,395,l),
(219,371,l)
);
},
{
closed = 1;
nodes = (
(446,181,l),
(446,268,l),
(421,268,l),
(421,181,l)
);
},
{
closed = 1;
nodes = (
(126,518,l),
(126,605,l),
(101,605,l),
(101,518,l)
);
},
{
closed = 1;
nodes = (
(256,486,l),
(248,509,l),
(166,480,l),
(174,457,l)
);
},
{
closed = 1;
nodes = (
(352,314,l),
(352,401,l),
(327,401,l),
(327,314,l)
);
},
{
closed = 1;
nodes = (
(446,250,l),
(446,337,l),
(421,337,l),
(421,250,l)
);
},
{
closed = 1;
nodes = (
(362,402,l),
(290,451,l),
(276,430,l),
(347,381,l)
);
},
{
closed = 1;
nodes = (
(126,587,l),
(126,674,l),
(101,674,l),
(101,587,l)
);
},
{
closed = 1;
nodes = (
(220,504,l),
(220,591,l),
(195,591,l),
(195,504,l)
);
},
{
closed = 1;
nodes = (
(115,663,l),
(57,727,l),
(38,710,l),
(97,646,l)
);
},
{
closed = 1;
nodes = (
(320,513,l),
(311,537,l),
(230,505,l),
(239,482,l)
);
},
{
closed = 1;
nodes = (
(446,320,l),
(446,407,l),
(421,407,l),
(421,320,l)
);
},
{
closed = 1;
nodes = (
(111,755,l),
(94,774,l),
(30,716,l),
(47,697,l)
);
},
{
closed = 1;
nodes = (
(334,547,l),
(314,561,l),
(264,490,l),
(284,476,l)
);
},
{
closed = 1;
nodes = (
(220,574,l),
(220,661,l),
(195,661,l),
(195,574,l)
);
},
{
closed = 1;
nodes = (
(394,494,l),
(322,543,l),
(308,523,l),
(380,473,l)
);
},
{
closed = 1;
nodes = (
(451,455,l),
(379,504,l),
(365,483,l),
(437,434,l)
);
},
{
closed = 1;
nodes = (
(487,455,l),
(467,470,l),
(416,399,l),
(436,385,l)
);
},
{
closed = 1;
nodes = (
(206,701,l),
(148,765,l),
(130,748,l),
(188,684,l)
);
},
{
closed = 1;
nodes = (
(160,752,l),
(103,817,l),
(84,801,l),
(141,735,l)
);
}
);
width = 517;
},
{
layerId = "BE691341-D8A5-4739-82E3-AB614D387AD5";
shapes = (
{
closed = 1;
nodes = (
(322,660,l),
(205,789,l),
(168,755,l),
(285,626,l)
);
},
{
closed = 1;
nodes = (
(169,-47,l),
(169,127,l),
(119,127,l),
(119,-47,l)
);
},
{
closed = 1;
nodes = (
(263,136,l),
(213,136,l),
(213,-38,l),
(263,-38,l)
);
},
{
closed = 1;
nodes = (
(169,92,l),
(169,266,l),
(119,266,l),
(119,92,l)
);
},
{
closed = 1;
nodes = (
(263,-38,l),
(263,136,l),
(213,136,l),
(213,-38,l)
);
},
{
closed = 1;
nodes = (
(169,92,l),
(169,266,l),
(119,266,l),
(119,92,l)
);
},
{
closed = 1;
nodes = (
(263,101,l),
(263,275,l),
(213,275,l),
(213,101,l)
);
},
{
closed = 1;
nodes = (
(169,231,l),
(169,405,l),
(119,405,l),
(119,231,l)
);
},
{
closed = 1;
nodes = (
(395,27,l),
(395,201,l),
(345,201,l),
(345,27,l)
);
},
{
closed = 1;
nodes = (
(263,101,l),
(263,275,l),
(213,275,l),
(213,101,l)
);
},
{
closed = 1;
nodes = (
(507,0,l),
(507,50,l),
(333,50,l),
(333,0,l)
);
},
{
closed = 1;
nodes = (
(169,231,l),
(169,405,l),
(119,405,l),
(119,231,l)
);
},
{
closed = 1;
nodes = (
(395,27,l),
(395,201,l),
(345,201,l),
(345,27,l)
);
},
{
closed = 1;
nodes = (
(263,136,l),
(263,275,l),
(213,275,l),
(213,136,l)
);
},
{
closed = 1;
nodes = (
(507,50,l),
(333,50,l),
(333,0,l),
(507,0,l)
);
},
{
closed = 1;
nodes = (
(169,370,l),
(169,544,l),
(119,544,l),
(119,370,l)
);
},
{
closed = 1;
nodes = (
(395,166,l),
(395,305,l),
(345,305,l),
(345,166,l)
);
},
{
closed = 1;
nodes = (
(263,240,l),
(263,414,l),
(213,414,l),
(213,240,l)
);
},
{
closed = 1;
nodes = (
(489,33,l),
(489,207,l),
(439,207,l),
(439,33,l)
);
},
{
closed = 1;
nodes = (
(169,370,l),
(169,544,l),
(119,544,l),
(119,370,l)
);
},
{
closed = 1;
nodes = (
(395,166,l),
(395,340,l),
(345,340,l),
(345,166,l)
);
},
{
closed = 1;
nodes = (
(263,240,l),
(263,414,l),
(213,414,l),
(213,240,l)
);
},
{
closed = 1;
nodes = (
(489,33,l),
(489,207,l),
(437,208,l),
(439,33,l)
);
},
{
closed = 1;
nodes = (
(169,509,l),
(169,683,l),
(119,683,l),
(119,509,l)
);
},
{
closed = 1;
nodes = (
(395,201,l),
(395,340,l),
(345,340,l),
(345,201,l)
);
},
{
closed = 1;
nodes = (
(375,442,l),
(357,489,l),
(195,425,l),
(214,378,l)
);
},
{
closed = 1;
nodes = (
(489,172,l),
(489,346,l),
(439,346,l),
(439,172,l)
);
},
{
closed = 1;
nodes = (
(169,509,l),
(169,683,l),
(119,683,l),
(119,509,l)
);
},
{
closed = 1;
nodes = (
(396,552,l),
(377,599,l),
(216,535,l),
(234,489,l)
);
},
{
closed = 1;
nodes = (
(395,305,l),
(395,479,l),
(345,479,l),
(345,305,l)
);
},
{
closed = 1;
nodes = (
(489,172,l),
(489,346,l),
(439,346,l),
(439,172,l)
);
},
{
closed = 1;
nodes = (
(395,305,l),
(395,479,l),
(345,479,l),
(345,305,l)
);
},
{
closed = 1;
nodes = (
(184,674,l),
(67,802,l),
(30,768,l),
(147,640,l)
);
},
{
closed = 1;
nodes = (
(263,495,l),
(263,669,l),
(213,669,l),
(213,495,l)
);
},
{
closed = 1;
nodes = (
(184,674,l),
(67,802,l),
(30,768,l),
(147,640,l)
);
},
{
closed = 1;
nodes = (
(396,552,l),
(377,599,l),
(216,535,l),
(234,489,l)
);
},
{
closed = 1;
nodes = (
(489,311,l),
(489,485,l),
(439,485,l),
(439,311,l)
);
},
{
closed = 1;
nodes = (
(125,897,l),
(83,869,l),
(180,725,l),
(222,753,l)
);
},
{
closed = 1;
nodes = (
(400,610,l),
(359,638,l),
(259,497,l),
(300,468,l)
);
},
{
closed = 1;
nodes = (
(263,495,l),
(263,669,l),
(213,669,l),
(213,495,l)
);
},
{
closed = 1;
nodes = (
(524,475,l),
(381,573,l),
(353,532,l),
(496,434,l)
);
},
{
closed = 1;
nodes = (
(524,475,l),
(381,573,l),
(353,532,l),
(496,434,l)
);
},
{
closed = 1;
nodes = (
(489,485,l),
(439,485,l),
(439,311,l),
(489,311,l)
);
},
{
closed = 1;
nodes = (
(322,660,l),
(205,789,l),
(168,755,l),
(285,626,l)
);
},
{
closed = 1;
nodes = (
(222,753,l),
(125,897,l),
(83,869,l),
(180,725,l)
);
}
);
width = 554;
}
);
note = h;
unicode = 104;
},
{
glyphname = i;
lastChange = "2023-05-12 17:56:49 +0000";
layers = (
{
layerId = m01;
shapes = (
{
closed = 1;
nodes = (
(208,802,l),
(198,825,l),
(118,791,l),
(128,768,l)
);
},
{
closed = 1;
nodes = (
(118,-31,l),
(118,56,l),
(93,56,l),
(93,-31,l)
);
},
{
closed = 1;
nodes = (
(162,0,l),
(162,25,l),
(75,25,l),
(75,0,l)
);
},
{
closed = 1;
nodes = (
(118,38,l),
(118,125,l),
(93,125,l),
(93,38,l)
);
},
{
closed = 1;
nodes = (
(232,0,l),
(232,25,l),
(145,25,l),
(145,0,l)
);
},
{
closed = 1;
nodes = (
(118,108,l),
(118,195,l),
(93,195,l),
(93,108,l)
);
},
{
closed = 1;
nodes = (
(212,27,l),
(212,114,l),
(187,114,l),
(187,27,l)
);
},
{
closed = 1;
nodes = (
(118,177,l),
(118,264,l),
(93,264,l),
(93,177,l)
);
},
{
closed = 1;
nodes = (
(212,96,l),
(212,183,l),
(187,183,l),
(187,96,l)
);
},
{
closed = 1;
nodes = (
(118,247,l),
(118,334,l),
(93,334,l),
(93,247,l)
);
},
{
closed = 1;
nodes = (
(212,166,l),
(212,253,l),
(187,253,l),
(187,166,l)
);
},
{
closed = 1;
nodes = (
(118,316,l),
(118,403,l),
(93,403,l),
(93,316,l)
);
},
{
closed = 1;
nodes = (
(212,235,l),
(212,322,l),
(187,322,l),
(187,235,l)
);
},
{
closed = 1;
nodes = (
(118,386,l),
(118,473,l),
(93,473,l),
(93,386,l)
);
},
{
closed = 1;
nodes = (
(212,305,l),
(212,392,l),
(187,392,l),
(187,305,l)
);
},
{
closed = 1;
nodes = (
(118,455,l),
(118,542,l),
(93,542,l),
(93,455,l)
);
},
{
closed = 1;
nodes = (
(212,374,l),
(212,461,l),
(187,461,l),
(187,374,l)
);
},
{
closed = 1;
nodes = (
(118,525,l),
(118,611,l),
(93,611,l),
(93,525,l)
);
},
{
closed = 1;
nodes = (
(212,444,l),
(212,531,l),
(187,531,l),
(187,444,l)
);
},
{
closed = 1;
nodes = (
(120,652,l),
(40,686,l),
(30,662,l),
(111,629,l)
);
},
{
closed = 1;
nodes = (
(202,572,l),
(202,597,l),
(115,597,l),
(115,572,l)
);
},
{
closed = 1;
nodes = (
(212,513,l),
(212,600,l),
(187,600,l),
(187,513,l)
);
},
{
closed = 1;
nodes = (
(184,626,l),
(104,659,l),
(95,636,l),
(175,603,l)
);
},
{
closed = 1;
nodes = (
(114,751,l),
(90,761,l),
(58,680,l),
(82,671,l)
);
},
{
closed = 1;
nodes = (
(200,715,l),
(177,724,l),
(144,644,l),
(168,634,l)
);
},
{
closed = 1;
nodes = (
(139,816,l),
(116,825,l),
(84,745,l),
(107,735,l)
);
},
{
closed = 1;
nodes = (
(267,725,l),
(257,748,l),
(177,716,l),
(186,692,l)
);
},
{
closed = 1;
nodes = (
(201,794,l),
(121,828,l),
(111,805,l),
(191,771,l)
);
},
{
closed = 1;
nodes = (
(236,744,l),
(205,825,l),
(181,816,l),
(212,735,l)
);
}
);
width = 297;
},
{
layerId = "BE691341-D8A5-4739-82E3-AB614D387AD5";
shapes = (
{
closed = 1;
nodes = (
(252,820,l),
(233,866,l),
(73,798,l),
(93,752,l)
);
},
{
closed = 1;
nodes = (
(130,-62,l),
(130,77,l),
(80,77,l),
(80,-62,l)
);
},
{
closed = 1;
nodes = (
(80,-62,l),
(130,-62,l),
(130,77,l),
(80,77,l)
);
},
{
closed = 1;
nodes = (
(130,77,l),
(130,216,l),
(80,216,l),
(80,77,l)
);
},
{
closed = 1;
nodes = (
(275,0,l),
(275,50,l),
(101,50,l),
(101,0,l)
);
},
{
closed = 1;
nodes = (
(130,112,l),
(130,251,l),
(80,251,l),
(80,112,l)
);
},
{
closed = 1;
nodes = (
(275,50,l),
(101,50,l),
(101,0,l),
(275,0,l)
);
},
{
closed = 1;
nodes = (
(130,216,l),
(130,355,l),
(80,355,l),
(80,216,l)
);
},
{
closed = 1;
nodes = (
(224,65,l),
(224,239,l),
(174,239,l),
(174,65,l)
);
},
{
closed = 1;
nodes = (
(130,251,l),
(130,390,l),
(80,390,l),
(80,251,l)
);
},
{
closed = 1;
nodes = (
(224,65,l),
(224,239,l),
(174,239,l),
(174,65,l)
);
},
{
closed = 1;
nodes = (
(130,251,l),
(130,390,l),
(80,390,l),
(80,251,l)
);
},
{
closed = 1;
nodes = (
(224,204,l),
(224,343,l),
(174,343,l),
(174,204,l)
);
},
{
closed = 1;
nodes = (
(130,355,l),
(130,529,l),
(80,529,l),
(80,355,l)
);
},
{
closed = 1;
nodes = (
(224,239,l),
(224,378,l),
(174,378,l),
(174,239,l)
);
},
{
closed = 1;
nodes = (
(130,355,l),
(130,529,l),
(80,529,l),
(80,355,l)
);
},
{
closed = 1;
nodes = (
(224,343,l),
(224,482,l),
(174,482,l),
(174,343,l)
);
},
{
closed = 1;
nodes = (
(130,494,l),
(130,668,l),
(80,668,l),
(80,494,l)
);
},
{
closed = 1;
nodes = (
(224,343,l),
(224,517,l),
(174,517,l),
(174,343,l)
);
},
{
closed = 1;
nodes = (
(229,634,l),
(68,700,l),
(49,653,l),
(210,587,l)
);
},
{
closed = 1;
nodes = (
(224,656,l),
(174,656,l),
(174,482,l),
(224,482,l)
);
},
{
closed = 1;
nodes = (
(224,482,l),
(224,656,l),
(174,656,l),
(174,482,l)
);
},
{
closed = 1;
nodes = (
(229,634,l),
(68,700,l),
(49,653,l),
(210,587,l)
);
},
{
closed = 1;
nodes = (
(141,800,l),
(94,818,l),
(30,657,l),
(77,638,l)
);
},
{
closed = 1;
nodes = (
(311,742,l),
(292,789,l),
(131,724,l),
(150,677,l)
);
},
{
closed = 1;
nodes = (
(141,800,l),
(94,818,l),
(30,657,l),
(77,638,l)
);
},
{
closed = 1;
nodes = (
(311,742,l),
(292,789,l),
(131,724,l),
(150,677,l)
);
},
{
closed = 1;
nodes = (
(246,802,l),
(85,869,l),
(66,823,l),
(226,755,l)
);
},
{
closed = 1;
nodes = (
(93,752,l),
(252,820,l),
(233,866,l),
(73,798,l)
);
}
);
width = 341;
}
);
note = i;
unicode = 105;
},
{
glyphname = j;
layers = (
{
layerId = m01;
shapes = (
{
closed = 1;
nodes = (
(207,-114,l),
(191,-95,l),
(125,-152,l),
(142,-171,l)
);
},
{
closed = 1;
nodes = (
(158,-169,l),
(71,-163,l),
(70,-188,l),
(156,-194,l)
);
},
{
closed = 1;
nodes = (
(106,-153,l),
(48,-88,l),
(30,-105,l),
(87,-170,l)
);
},
{
closed = 1;
nodes = (
(127,-63,l),
(111,-44,l),
(45,-100,l),
(61,-119,l)
);
},
{
closed = 1;
nodes = (
(180,-18,l),
(163,1,l),
(97,-55,l),
(114,-74,l)
);
},
{
closed = 1;
nodes = (
(267,-93,l),
(181,-83,l),
(178,-108,l),
(265,-118,l)
);
},
{
closed = 1;
nodes = (
(169,72,l),
(144,75,l),
(133,-11,l),
(158,-14,l)
);
},
{
closed = 1;
nodes = (
(256,8,l),
(231,13,l),
(215,-73,l),
(240,-77,l)
);
},
{
closed = 1;
nodes = (
(166,57,l),
(166,143,l),
(141,143,l),
(141,57,l)
);
},
{
closed = 1;
nodes = (
(268,76,l),
(244,81,l),
(228,-5,l),
(253,-9,l)
);
},
{
closed = 1;
nodes = (
(166,126,l),
(166,213,l),
(141,213,l),
(141,126,l)
);
},
{
closed = 1;
nodes = (
(257,53,l),
(257,140,l),
(232,140,l),
(232,53,l)
);
},
{
closed = 1;
nodes = (
(166,196,l),
(166,282,l),
(141,282,l),
(141,196,l)
);
},
{
closed = 1;
nodes = (
(257,123,l),
(257,209,l),
(232,209,l),
(232,123,l)
);
},
{
closed = 1;
nodes = (
(166,265,l),
(166,352,l),
(141,352,l),
(141,265,l)
);
},
{
closed = 1;
nodes = (
(257,192,l),
(257,279,l),
(232,279,l),
(232,192,l)
);
},
{
closed = 1;
nodes = (
(166,335,l),
(166,421,l),
(141,421,l),
(141,335,l)
);
},
{
closed = 1;
nodes = (
(257,261,l),
(257,348,l),
(232,348,l),
(232,261,l)
);
},
{
closed = 1;
nodes = (
(143,501,l),
(119,509,l),
(92,426,l),
(116,419,l)
);
},
{
closed = 1;
nodes = (
(166,404,l),
(166,491,l),
(141,491,l),
(141,404,l)
);
},
{
closed = 1;
nodes = (
(257,331,l),
(257,418,l),
(232,418,l),
(232,331,l)
);
},
{
closed = 1;
nodes = (
(164,567,l),
(140,575,l),
(114,492,l),
(137,485,l)
);
},
{
closed = 1;
nodes = (
(309,413,l),
(227,443,l),
(219,419,l),
(300,389,l)
);
},
{
closed = 1;
nodes = (
(235,536,l),
(152,563,l),
(145,539,l),
(227,512,l)
);
},
{
closed = 1;
nodes = (
(315,515,l),
(291,523,l),
(262,441,l),
(286,433,l)
);
},
{
closed = 1;
nodes = (
(170,591,l),
(136,671,l),
(113,661,l),
(147,581,l)
);
},
{
closed = 1;
nodes = (
(301,514,l),
(218,541,l),
(211,518,l),
(293,490,l)
);
},
{
closed = 1;
nodes = (
(250,595,l),
(170,628,l),
(161,605,l),
(241,572,l)
);
},
{
closed = 1;
nodes = (
(192,725,l),
(169,734,l),
(136,654,l),
(159,644,l)
);
},
{
closed = 1;
nodes = (
(269,675,l),
(246,685,l),
(214,604,l),
(237,595,l)
);
},
{
closed = 1;
nodes = (
(218,789,l),
(195,798,l),
(162,718,l),
(185,709,l)
);
},
{
closed = 1;
nodes = (
(336,683,l),
(327,707,l),
(245,677,l),
(254,654,l)
);
},
{
closed = 1;
nodes = (
(279,763,l),
(270,786,l),
(189,753,l),
(199,730,l)
);
},
{
closed = 1;
nodes = (
(306,703,l),
(275,784,l),
(252,775,l),
(283,694,l)
);
}
);
width = 366;
},
{
layerId = "BE691341-D8A5-4739-82E3-AB614D387AD5";
shapes = (
{
closed = 1;
nodes = (
(287,-108,l),
(254,-70,l),
(123,-184,l),
(156,-222,l)
);
},
{
closed = 1;
nodes = (
(183,-191,l),
(68,-60,l),
(30,-93,l),
(145,-224,l)
);
},
{
closed = 1;
nodes = (
(183,-191,l),
(68,-60,l),
(30,-93,l),
(145,-224,l)
);
},
{
closed = 1;
nodes = (
(240,15,l),
(196,39,l),
(114,-114,l),
(158,-138,l)
);
},
{
closed = 1;
nodes = (
(240,15,l),
(196,39,l),
(114,-114,l),
(158,-138,l)
);
},
{
closed = 1;
nodes = (
(254,-70,l),
(123,-184,l),
(156,-222,l),
(287,-108,l)
);
},
{
closed = 1;
nodes = (
(217,174,l),
(167,174,l),
(167,0,l),
(217,0,l)
);
},
{
closed = 1;
nodes = (
(315,35,l),
(265,45,l),
(234,-126,l),
(283,-135,l)
);
},
{
closed = 1;
nodes = (
(217,0,l),
(217,174,l),
(167,174,l),
(167,0,l)
);
},
{
closed = 1;
nodes = (
(308,136,l),
(258,136,l),
(258,-3,l),
(308,-3,l)
);
},
{
closed = 1;
nodes = (
(217,139,l),
(217,278,l),
(167,278,l),
(167,139,l)
);
},
{
closed = 1;
nodes = (
(308,-3,l),
(308,170,l),
(258,170,l),
(258,-3,l)
);
},
{
closed = 1;
nodes = (
(217,174,l),
(217,313,l),
(167,313,l),
(167,174,l)
);
},
{
closed = 1;
nodes = (
(308,136,l),
(308,275,l),
(258,275,l),
(258,136,l)
);
},
{
closed = 1;
nodes = (
(217,278,l),
(217,452,l),
(167,452,l),
(167,278,l)
);
},
{
closed = 1;
nodes = (
(308,136,l),
(308,275,l),
(258,275,l),
(258,136,l)
);
},
{
closed = 1;
nodes = (
(217,278,l),
(217,452,l),
(167,452,l),
(167,278,l)
);
},
{
closed = 1;
nodes = (
(308,170,l),
(308,309,l),
(258,309,l),
(258,170,l)
);
},
{
closed = 1;
nodes = (
(207,526,l),
(159,541,l),
(106,376,l),
(153,360,l)
);
},
{
closed = 1;
nodes = (
(153,360,l),
(207,526,l),
(159,541,l),
(106,376,l)
);
},
{
closed = 1;
nodes = (
(308,275,l),
(308,448,l),
(258,448,l),
(258,275,l)
);
},
{
closed = 1;
nodes = (
(154,576,l),
(138,528,l),
(303,474,l),
(319,521,l)
);
},
{
closed = 1;
nodes = (
(308,275,l),
(308,448,l),
(258,448,l),
(258,275,l)
);
},
{
closed = 1;
nodes = (
(319,521,l),
(154,576,l),
(138,528,l),
(303,474,l)
);
},
{
closed = 1;
nodes = (
(379,539,l),
(332,555,l),
(275,391,l),
(322,375,l)
);
},
{
closed = 1;
nodes = (
(334,577,l),
(173,643,l),
(154,597,l),
(315,531,l)
);
},
{
closed = 1;
nodes = (
(319,521,l),
(154,576,l),
(138,528,l),
(303,474,l)
);
},
{
closed = 1;
nodes = (
(334,577,l),
(173,643,l),
(154,597,l),
(315,531,l)
);
},
{
closed = 1;
nodes = (
(258,747,l),
(212,766,l),
(147,605,l),
(193,586,l)
);
},
{
closed = 1;
nodes = (
(419,674,l),
(402,721,l),
(239,662,l),
(256,614,l)
);
},
{
closed = 1;
nodes = (
(258,747,l),
(212,766,l),
(147,605,l),
(193,586,l)
);
},
{
closed = 1;
nodes = (
(419,674,l),
(402,721,l),
(239,662,l),
(256,614,l)
);
},
{
closed = 1;
nodes = (
(363,755,l),
(344,801,l),
(183,736,l),
(202,689,l)
);
},
{
closed = 1;
nodes = (
(202,689,l),
(363,755,l),
(344,801,l),
(183,736,l)
);
}
);
width = 449;
}
);
note = j;
unicode = 106;
},
{
glyphname = k;
lastChange = "2023-05-12 17:56:56 +0000";
layers = (
{
layerId = m01;
shapes = (
{
closed = 1;
nodes = (
(180,750,l),
(122,815,l),
(103,798,l),
(161,734,l)
);
},
{
closed = 1;
nodes = (
(189,-5,l),
(189,21,l),
(102,21,l),
(102,-5,l)
);
},
{
closed = 1;
nodes = (
(123,0,l),
(124,87,l),
(99,87,l),
(98,0,l)
);
},
{
closed = 1;
nodes = (
(215,-23,l),
(215,64,l),
(190,64,l),
(190,-23,l)
);
},
{
closed = 1;
nodes = (
(124,69,l),
(124,156,l),
(99,156,l),
(99,69,l)
);
},
{
closed = 1;
nodes = (
(215,47,l),
(215,133,l),
(190,133,l),
(190,47,l)
);
},
{
closed = 1;
nodes = (
(124,139,l),
(125,225,l),
(100,226,l),
(99,139,l)
);
},
{
closed = 1;
nodes = (
(348,-3,l),
(292,64,l),
(273,48,l),
(328,-19,l)
);
},
{
closed = 1;
nodes = (
(215,116,l),
(215,203,l),
(190,203,l),
(190,116,l)
);
},
{
closed = 1;
nodes = (
(125,208,l),
(125,295,l),
(100,295,l),
(100,208,l)
);
},
{
closed = 1;
nodes = (
(340,60,l),
(285,127,l),
(265,112,l),
(320,44,l)
);
},
{
closed = 1;
nodes = (
(424,24,l),
(338,32,l),
(335,7,l),
(422,-1,l)
);
},
{
closed = 1;
nodes = (
(296,114,l),
(241,181,l),
(222,165,l),
(276,98,l)
);
},
{
closed = 1;
nodes = (
(252,168,l),
(197,235,l),
(178,219,l),
(232,152,l)
);
},
{
closed = 1;
nodes = (
(125,278,l),
(126,364,l),
(100,365,l),
(100,278,l)
);
},
{
closed = 1;
nodes = (
(493,18,l),
(407,26,l),
(404,1,l),
(491,-7,l)
);
},
{
closed = 1;
nodes = (
(125,347,l),
(126,434,l),
(101,434,l),
(100,347,l)
);
},
{
closed = 1;
nodes = (
(421,106,l),
(364,171,l),
(345,155,l),
(402,89,l)
);
},
{
closed = 1;
nodes = (
(375,158,l),
(318,224,l),
(299,207,l),
(356,142,l)
);
},
{
closed = 1;
nodes = (
(363,170,l),
(310,238,l),
(290,223,l),
(343,154,l)
);
},
{
closed = 1;
nodes = (
(486,103,l),
(461,105,l),
(453,19,l),
(478,17,l)
);
},
{
closed = 1;
nodes = (
(320,225,l),
(267,293,l),
(247,278,l),
(301,209,l)
);
},
{
closed = 1;
nodes = (
(485,109,l),
(398,118,l),
(396,93,l),
(482,84,l)
);
},
{
closed = 1;
nodes = (
(301,331,l),
(282,347,l),
(226,280,l),
(245,264,l)
);
},
{
closed = 1;
nodes = (
(126,417,l),
(126,503,l),
(101,504,l),
(101,417,l)
);
},
{
closed = 1;
nodes = (
(219,356,l),
(219,443,l),
(194,443,l),
(194,356,l)
);
},
{
closed = 1;
nodes = (
(126,486,l),
(127,573,l),
(102,573,l),
(101,486,l)
);
},
{
closed = 1;
nodes = (
(279,447,l),
(260,463,l),
(203,398,l),
(222,381,l)
);
},
{
closed = 1;
nodes = (
(345,384,l),
(326,400,l),
(270,334,l),
(290,317,l)
);
},
{
closed = 1;
nodes = (
(219,425,l),
(219,512,l),
(194,512,l),
(194,425,l)
);
},
{
closed = 1;
nodes = (
(127,556,l),
(127,642,l),
(102,643,l),
(102,556,l)
);
},
{
closed = 1;
nodes = (
(219,495,l),
(219,582,l),
(194,582,l),
(194,495,l)
);
},
{
closed = 1;
nodes = (
(297,439,l),
(275,523,l),
(251,517,l),
(272,433,l)
);
},
{
closed = 1;
nodes = (
(390,437,l),
(371,453,l),
(315,387,l),
(334,371,l)
);
},
{
closed = 1;
nodes = (
(153,644,l),
(95,709,l),
(76,692,l),
(134,628,l)
);
},
{
closed = 1;
nodes = (
(106,696,l),
(48,761,l),
(30,744,l),
(88,679,l)
);
},
{
closed = 1;
nodes = (
(219,564,l),
(219,651,l),
(194,651,l),
(194,564,l)
);
},
{
closed = 1;
nodes = (
(344,517,l),
(338,541,l),
(254,522,l),
(259,497,l)
);
},
{
closed = 1;
nodes = (
(437,446,l),
(431,470,l),
(347,451,l),
(352,426,l)
);
},
{
closed = 1;
nodes = (
(132,788,l),
(116,807,l),
(51,748,l),
(68,730,l)
);
},
{
closed = 1;
nodes = (
(258,692,l),
(242,710,l),
(177,652,l),
(194,634,l)
);
},
{
closed = 1;
nodes = (
(412,533,l),
(406,557,l),
(321,537,l),
(327,513,l)
);
},
{
closed = 1;
nodes = (
(226,699,l),
(168,763,l),
(150,746,l),
(208,682,l)
);
},
{
closed = 1;
nodes = (
(466,434,l),
(446,519,l),
(422,513,l),
(441,428,l)
);
},
{
closed = 1;
nodes = (
(450,502,l),
(431,586,l),
(406,581,l),
(426,496,l)
);
}
);
width = 523;
},
{
layerId = "BE691341-D8A5-4739-82E3-AB614D387AD5";
shapes = (
{
closed = 1;
nodes = (
(257,734,l),
(140,863,l),
(103,830,l),
(220,701,l)
);
},
{
closed = 1;
nodes = (
(216,-59,l),
(266,-59,l),
(266,115,l),
(216,115,l)
);
},
{
closed = 1;
nodes = (
(174,-36,l),
(175,138,l),
(125,138,l),
(124,-36,l)
);
},
{
closed = 1;
nodes = (
(266,-59,l),
(266,115,l),
(216,115,l),
(216,-59,l)
);
},
{
closed = 1;
nodes = (
(174,-36,l),
(175,138,l),
(125,138,l),
(124,-36,l)
);
},
{
closed = 1;
nodes = (
(266,80,l),
(266,254,l),
(216,254,l),
(216,80,l)
);
},
{
closed = 1;
nodes = (
(175,103,l),
(176,277,l),
(126,277,l),
(125,103,l)
);
},
{
closed = 1;
nodes = (
(424,-21,l),
(313,113,l),
(274,81,l),
(385,-53,l)
);
},
{
closed = 1;
nodes = (
(266,80,l),
(266,254,l),
(216,254,l),
(216,80,l)
);
},
{
closed = 1;
nodes = (
(175,103,l),
(176,277,l),
(126,277,l),
(125,103,l)
);
},
{
closed = 1;
nodes = (
(424,-21,l),
(313,113,l),
(274,81,l),
(385,-53,l)
);
},
{
closed = 1;
nodes = (
(576,34,l),
(403,50,l),
(399,0,l),
(572,-15,l)
);
},
{
closed = 1;
nodes = (
(373,94,l),
(262,231,l),
(223,199,l),
(333,64,l)
);
},
{
closed = 1;
nodes = (
(373,94,l),
(262,231,l),
(223,199,l),
(333,64,l)
);
},
{
closed = 1;
nodes = (
(176,242,l),
(177,416,l),
(127,416,l),
(126,242,l)
);
},
{
closed = 1;
nodes = (
(576,34,l),
(403,50,l),
(399,0,l),
(572,-15,l)
);
},
{
closed = 1;
nodes = (
(177,381,l),
(178,520,l),
(127,520,l),
(127,381,l)
);
},
{
closed = 1;
nodes = (
(452,141,l),
(338,272,l),
(300,240,l),
(414,108,l)
);
},
{
closed = 1;
nodes = (
(452,141,l),
(338,272,l),
(300,240,l),
(414,108,l)
);
},
{
closed = 1;
nodes = (
(438,151,l),
(332,288,l),
(292,257,l),
(399,120,l)
);
},
{
closed = 1;
nodes = (
(563,75,l),
(568,125,l),
(395,143,l),
(390,93,l)
);
},
{
closed = 1;
nodes = (
(438,151,l),
(332,288,l),
(292,257,l),
(399,120,l)
);
},
{
closed = 1;
nodes = (
(568,125,l),
(395,143,l),
(390,93,l),
(563,75,l)
);
},
{
closed = 1;
nodes = (
(377,364,l),
(338,396,l),
(227,263,l),
(265,231,l)
);
},
{
closed = 1;
nodes = (
(177,416,l),
(178,555,l),
(128,555,l),
(127,416,l)
);
},
{
closed = 1;
nodes = (
(270,320,l),
(270,494,l),
(220,494,l),
(220,320,l)
);
},
{
closed = 1;
nodes = (
(177,381,l),
(178,555,l),
(128,555,l),
(127,381,l)
);
},
{
closed = 1;
nodes = (
(315,576,l),
(266,564,l),
(309,395,l),
(358,408,l)
);
},
{
closed = 1;
nodes = (
(377,364,l),
(338,396,l),
(227,263,l),
(265,231,l)
);
},
{
closed = 1;
nodes = (
(270,320,l),
(270,494,l),
(220,494,l),
(220,320,l)
);
},
{
closed = 1;
nodes = (
(178,520,l),
(179,694,l),
(128,694,l),
(127,520,l)
);
},
{
closed = 1;
nodes = (
(270,459,l),
(270,633,l),
(220,633,l),
(220,459,l)
);
},
{
closed = 1;
nodes = (
(358,408,l),
(315,576,l),
(266,564,l),
(309,395,l)
);
},
{
closed = 1;
nodes = (
(466,470,l),
(428,502,l),
(316,369,l),
(354,337,l)
);
},
{
closed = 1;
nodes = (
(183,680,l),
(67,809,l),
(30,776,l),
(146,647,l)
);
},
{
closed = 1;
nodes = (
(183,680,l),
(67,809,l),
(30,776,l),
(146,647,l)
);
},
{
closed = 1;
nodes = (
(270,459,l),
(270,633,l),
(220,633,l),
(220,459,l)
);
},
{
closed = 1;
nodes = (
(495,538,l),
(484,587,l),
(315,548,l),
(326,499,l)
);
},
{
closed = 1;
nodes = (
(466,470,l),
(428,502,l),
(316,369,l),
(354,337,l)
);
},
{
closed = 1;
nodes = (
(140,863,l),
(103,830,l),
(220,701,l),
(257,734,l)
);
},
{
closed = 1;
nodes = (
(338,719,l),
(304,757,l),
(175,640,l),
(208,603,l)
);
},
{
closed = 1;
nodes = (
(495,538,l),
(484,587,l),
(315,548,l),
(326,499,l)
);
},
{
closed = 1;
nodes = (
(304,757,l),
(175,640,l),
(208,603,l),
(338,719,l)
);
},
{
closed = 1;
nodes = (
(526,402,l),
(487,572,l),
(439,560,l),
(477,391,l)
);
},
{
closed = 1;
nodes = (
(526,402,l),
(487,572,l),
(439,560,l),
(477,391,l)
);
}
);
width = 606;
}
);
note = k;
unicode = 107;
},
{
glyphname = l;
lastChange = "2023-05-12 17:57:01 +0000";
layers = (
{
layerId = m01;
shapes = (
{
closed = 1;
nodes = (
(107,700,l),
(49,765,l),
(30,748,l),
(88,683,l)
);
},
{
closed = 1;
nodes = (
(127,3,l),
(127,90,l),
(102,90,l),
(102,3,l)
);
},
{
closed = 1;
nodes = (
(194,0,l),
(194,25,l),
(107,25,l),
(107,0,l)
);
},
{
closed = 1;
nodes = (
(127,73,l),
(127,159,l),
(102,159,l),
(102,73,l)
);
},
{
closed = 1;
nodes = (
(222,-19,l),
(222,67,l),
(196,67,l),
(196,-19,l)
);
},
{
closed = 1;
nodes = (
(127,142,l),
(127,229,l),
(102,229,l),
(102,142,l)
);
},
{
closed = 1;
nodes = (
(222,50,l),
(222,137,l),
(196,137,l),
(196,50,l)
);
},
{
closed = 1;
nodes = (
(127,212,l),
(127,298,l),
(102,298,l),
(102,212,l)
);
},
{
closed = 1;
nodes = (
(222,120,l),
(222,206,l),
(196,206,l),
(196,120,l)
);
},
{
closed = 1;
nodes = (
(127,281,l),
(127,368,l),
(102,368,l),
(102,281,l)
);
},
{
closed = 1;
nodes = (
(222,189,l),
(222,276,l),
(196,276,l),
(196,189,l)
);
},
{
closed = 1;
nodes = (
(127,350,l),
(127,437,l),
(102,437,l),
(102,350,l)
);
},
{
closed = 1;
nodes = (
(222,259,l),
(222,345,l),
(196,345,l),
(196,259,l)
);
},
{
closed = 1;
nodes = (
(127,420,l),
(127,507,l),
(102,507,l),
(102,420,l)
);
},
{
closed = 1;
nodes = (
(222,328,l),
(222,415,l),
(196,415,l),
(196,328,l)
);
},
{
closed = 1;
nodes = (
(127,489,l),
(127,576,l),
(102,576,l),
(102,489,l)
);
},
{
closed = 1;
nodes = (
(222,397,l),
(222,484,l),
(196,484,l),
(196,397,l)
);
},
{
closed = 1;
nodes = (
(127,559,l),
(127,646,l),
(102,646,l),
(102,559,l)
);
},
{
closed = 1;
nodes = (
(222,467,l),
(222,554,l),
(196,554,l),
(196,467,l)
);
},
{
closed = 1;
nodes = (
(153,648,l),
(95,713,l),
(76,696,l),
(134,631,l)
);
},
{
closed = 1;
nodes = (
(222,536,l),
(222,623,l),
(196,623,l),
(196,536,l)
);
},
{
closed = 1;
nodes = (
(126,791,l),
(109,810,l),
(44,753,l),
(61,734,l)
);
},
{
closed = 1;
nodes = (
(222,606,l),
(222,693,l),
(196,693,l),
(196,606,l)
);
},
{
closed = 1;
nodes = (
(256,679,l),
(197,743,l),
(179,726,l),
(237,662,l)
);
},
{
closed = 1;
nodes = (
(209,730,l),
(151,795,l),
(132,778,l),
(190,714,l)
);
},
{
closed = 1;
nodes = (
(162,782,l),
(104,846,l),
(85,829,l),
(144,765,l)
);
}
);
width = 286;
},
{
background = {
shapes = (
{
closed = 1;
nodes = (
(30,813,l),
(145,683,l),
(183,716,l),
(67,846,l)
);
},
{
closed = 1;
nodes = (
(127,556,l),
(177,556,l),
(177,730,l),
(127,730,l)
);
},
{
closed = 1;
nodes = (
(127,417,l),
(177,417,l),
(177,591,l),
(127,591,l)
);
},
{
closed = 1;
nodes = (
(127,278,l),
(177,278,l),
(177,452,l),
(127,452,l)
);
},
{
closed = 1;
nodes = (
(127,139,l),
(177,139,l),
(177,313,l),
(127,313,l)
);
},
{
closed = 1;
nodes = (
(127,0,l),
(177,0,l),
(177,174,l),
(127,174,l)
);
},
{
closed = 1;
nodes = (
(222,-22,l),
(272,-22,l),
(272,152,l),
(222,152,l)
);
},
{
closed = 1;
nodes = (
(222,117,l),
(272,117,l),
(272,291,l),
(222,291,l)
);
},
{
closed = 1;
nodes = (
(222,256,l),
(272,256,l),
(272,430,l),
(222,430,l)
);
},
{
closed = 1;
nodes = (
(222,395,l),
(272,395,l),
(272,569,l),
(222,569,l)
);
},
{
closed = 1;
nodes = (
(222,534,l),
(272,534,l),
(272,708,l),
(222,708,l)
);
},
{
closed = 1;
nodes = (
(178,791,l),
(295,662,l),
(332,696,l),
(215,825,l)
);
},
{
closed = 1;
nodes = (
(122,928,l),
(85,894,l),
(201,765,l),
(238,799,l)
);
}
);
};
layerId = "BE691341-D8A5-4739-82E3-AB614D387AD5";
shapes = (
{
closed = 1;
nodes = (
(183,716,l),
(67,846,l),
(30,813,l),
(145,683,l)
);
},
{
closed = 1;
nodes = (
(177,0,l),
(177,174,l),
(127,174,l),
(127,0,l)
);
},
{
closed = 1;
nodes = (
(177,139,l),
(127,139,l),
(127,0,l),
(177,0,l)
);
},
{
closed = 1;
nodes = (
(177,0,l),
(177,174,l),
(127,174,l),
(127,0,l)
);
},
{
closed = 1;
nodes = (
(272,-22,l),
(272,152,l),
(222,152,l),
(222,-22,l)
);
},
{
closed = 1;
nodes = (
(177,139,l),
(177,313,l),
(127,313,l),
(127,139,l)
);
},
{
closed = 1;
nodes = (
(272,-22,l),
(272,152,l),
(222,152,l),
(222,-22,l)
);
},
{
closed = 1;
nodes = (
(177,139,l),
(177,313,l),
(127,313,l),
(127,139,l)
);
},
{
closed = 1;
nodes = (
(272,117,l),
(272,291,l),
(222,291,l),
(222,117,l)
);
},
{
closed = 1;
nodes = (
(177,174,l),
(177,417,l),
(127,417,l),
(127,174,l)
);
},
{
closed = 1;
nodes = (
(272,117,l),
(272,291,l),
(222,291,l),
(222,117,l)
);
},
{
closed = 1;
nodes = (
(177,278,l),
(177,452,l),
(127,452,l),
(127,278,l)
);
},
{
closed = 1;
nodes = (
(272,256,l),
(272,430,l),
(222,430,l),
(222,256,l)
);
},
{
closed = 1;
nodes = (
(177,417,l),
(177,591,l),
(127,591,l),
(127,417,l)
);
},
{
closed = 1;
nodes = (
(272,256,l),
(272,430,l),
(222,430,l),
(222,256,l)
);
},
{
closed = 1;
nodes = (
(177,417,l),
(177,591,l),
(127,591,l),
(127,417,l)
);
},
{
closed = 1;
nodes = (
(272,395,l),
(272,569,l),
(222,569,l),
(222,395,l)
);
},
{
closed = 1;
nodes = (
(177,452,l),
(177,730,l),
(127,730,l),
(127,452,l)
);
},
{
closed = 1;
nodes = (
(272,395,l),
(272,569,l),
(222,569,l),
(222,395,l)
);
},
{
closed = 1;
nodes = (
(177,556,l),
(177,730,l),
(127,730,l),
(127,556,l)
);
},
{
closed = 1;
nodes = (
(272,534,l),
(272,708,l),
(222,708,l),
(222,534,l)
);
},
{
closed = 1;
nodes = (
(145,683,l),
(183,716,l),
(67,846,l),
(30,813,l)
);
},
{
closed = 1;
nodes = (
(272,534,l),
(272,708,l),
(222,708,l),
(222,534,l)
);
},
{
closed = 1;
nodes = (
(332,696,l),
(215,825,l),
(178,791,l),
(295,662,l)
);
},
{
closed = 1;
nodes = (
(332,696,l),
(215,825,l),
(178,791,l),
(295,662,l)
);
},
{
closed = 1;
nodes = (
(238,799,l),
(122,928,l),
(85,894,l),
(201,765,l)
);
}
);
width = 362;
}
);
note = l;
unicode = 108;
},
{
glyphname = m;
layers = (
{
layerId = m01;
shapes = (
{
closed = 1;
nodes = (
(232,433,l),
(213,450,l),
(156,385,l),
(175,368,l)
);
},
{
closed = 1;
nodes = (
(117,0,l),
(117,25,l),
(30,25,l),
(30,0,l)
);
},
{
closed = 1;
nodes = (
(64,17,l),
(64,104,l),
(39,104,l),
(39,17,l)
);
},
{
closed = 1;
nodes = (
(186,0,l),
(186,25,l),
(99,25,l),
(99,0,l)
);
},
{
closed = 1;
nodes = (
(64,87,l),
(64,173,l),
(39,173,l),
(39,87,l)
);
},
{
closed = 1;
nodes = (
(157,37,l),
(157,124,l),
(131,124,l),
(131,37,l)
);
},
{
closed = 1;
nodes = (
(64,156,l),
(64,243,l),
(39,243,l),
(39,156,l)
);
},
{
closed = 1;
nodes = (
(157,107,l),
(157,194,l),
(131,194,l),
(131,107,l)
);
},
{
closed = 1;
nodes = (
(331,0,l),
(331,25,l),
(244,25,l),
(244,0,l)
);
},
{
closed = 1;
nodes = (
(64,226,l),
(64,312,l),
(39,312,l),
(39,226,l)
);
},
{
closed = 1;
nodes = (
(286,24,l),
(286,111,l),
(261,111,l),
(260,24,l)
);
},
{
closed = 1;
nodes = (
(157,176,l),
(157,263,l),
(131,263,l),
(131,176,l)
);
},
{
closed = 1;
nodes = (
(401,0,l),
(401,25,l),
(314,25,l),
(314,0,l)
);
},
{
closed = 1;
nodes = (
(64,295,l),
(64,382,l),
(39,382,l),
(39,295,l)
);
},
{
closed = 1;
nodes = (
(286,93,l),
(287,180,l),
(262,180,l),
(261,93,l)
);
},
{
closed = 1;
nodes = (
(157,246,l),
(157,333,l),
(131,333,l),
(131,246,l)
);
},
{
closed = 1;
nodes = (
(378,30,l),
(378,117,l),
(353,117,l),
(353,30,l)
);
},
{
closed = 1;
nodes = (
(64,364,l),
(64,451,l),
(39,451,l),
(39,364,l)
);
},
{
closed = 1;
nodes = (
(287,163,l),
(287,250,l),
(262,250,l),
(262,163,l)
);
},
{
closed = 1;
nodes = (
(186,381,l),
(167,398,l),
(110,333,l),
(129,316,l)
);
},
{
closed = 1;
nodes = (
(378,100,l),
(378,187,l),
(353,187,l),
(353,100,l)
);
},
{
closed = 1;
nodes = (
(64,434,l),
(64,521,l),
(39,521,l),
(39,434,l)
);
},
{
closed = 1;
nodes = (
(316,270,l),
(234,299,l),
(226,275,l),
(308,247,l)
);
},
{
closed = 1;
nodes = (
(583,0,l),
(583,25,l),
(496,25,l),
(496,0,l)
);
},
{
closed = 1;
nodes = (
(271,351,l),
(247,360,l),
(218,278,l),
(242,269,l)
);
},
{
closed = 1;
nodes = (
(378,169,l),
(378,256,l),
(353,256,l),
(353,169,l)
);
},
{
closed = 1;
nodes = (
(533,19,l),
(533,106,l),
(508,106,l),
(508,19,l)
);
},
{
closed = 1;
nodes = (
(64,503,l),
(64,590,l),
(39,590,l),
(39,503,l)
);
},
{
closed = 1;
nodes = (
(653,0,l),
(653,25,l),
(566,25,l),
(566,0,l)
);
},
{
closed = 1;
nodes = (
(294,417,l),
(270,425,l),
(241,343,l),
(265,335,l)
);
},
{
closed = 1;
nodes = (
(378,239,l),
(378,326,l),
(353,326,l),
(353,239,l)
);
},
{
closed = 1;
nodes = (
(533,89,l),
(533,176,l),
(508,176,l),
(508,89,l)
);
},
{
closed = 1;
nodes = (
(136,563,l),
(136,588,l),
(49,588,l),
(49,563,l)
);
},
{
closed = 1;
nodes = (
(211,512,l),
(206,536,l),
(121,519,l),
(126,494,l)
);
},
{
closed = 1;
nodes = (
(298,434,l),
(294,458,l),
(208,442,l),
(213,417,l)
);
},
{
closed = 1;
nodes = (
(625,35,l),
(625,122,l),
(600,122,l),
(600,35,l)
);
},
{
closed = 1;
nodes = (
(157,515,l),
(157,602,l),
(131,602,l),
(131,515,l)
);
},
{
closed = 1;
nodes = (
(378,308,l),
(378,395,l),
(353,395,l),
(353,308,l)
);
},
{
closed = 1;
nodes = (
(533,158,l),
(533,245,l),
(508,245,l),
(508,158,l)
);
},
{
closed = 1;
nodes = (
(625,104,l),
(625,191,l),
(600,191,l),
(600,104,l)
);
},
{
closed = 1;
nodes = (
(279,525,l),
(274,550,l),
(189,533,l),
(194,508,l)
);
},
{
closed = 1;
nodes = (
(533,228,l),
(533,315,l),
(508,315,l),
(508,228,l)
);
},
{
closed = 1;
nodes = (
(456,408,l),
(442,429,l),
(369,383,l),
(382,362,l)
);
},
{
closed = 1;
nodes = (
(625,174,l),
(625,261,l),
(600,261,l),
(600,174,l)
);
},
{
closed = 1;
nodes = (
(366,459,l),
(331,538,l),
(308,528,l),
(344,449,l)
);
},
{
closed = 1;
nodes = (
(347,539,l),
(342,564,l),
(257,546,l),
(262,522,l)
);
},
{
closed = 1;
nodes = (
(533,297,l),
(533,384,l),
(508,384,l),
(508,297,l)
);
},
{
closed = 1;
nodes = (
(428,500,l),
(415,521,l),
(340,477,l),
(353,455,l)
);
},
{
closed = 1;
nodes = (
(625,243,l),
(625,330,l),
(600,330,l),
(600,243,l)
);
},
{
closed = 1;
nodes = (
(514,445,l),
(501,466,l),
(428,420,l),
(441,399,l)
);
},
{
closed = 1;
nodes = (
(533,367,l),
(533,454,l),
(508,454,l),
(508,367,l)
);
},
{
closed = 1;
nodes = (
(487,536,l),
(474,557,l),
(400,512,l),
(413,491,l)
);
},
{
closed = 1;
nodes = (
(625,313,l),
(625,400,l),
(600,400,l),
(600,313,l)
);
},
{
closed = 1;
nodes = (
(486,558,l),
(465,572,l),
(417,500,l),
(438,486,l)
);
},
{
closed = 1;
nodes = (
(654,452,l),
(633,467,l),
(584,395,l),
(605,381,l)
);
},
{
closed = 1;
nodes = (
(540,537,l),
(468,586,l),
(454,565,l),
(526,516,l)
);
},
{
closed = 1;
nodes = (
(597,497,l),
(526,547,l),
(511,526,l),
(583,477,l)
);
},
{
closed = 1;
nodes = (
(654,458,l),
(583,507,l),
(569,487,l),
(640,437,l)
);
}
);
width = 684;
},
{
layerId = "BE691341-D8A5-4739-82E3-AB614D387AD5";
shapes = (
{
closed = 1;
nodes = (
(295,470,l),
(257,504,l),
(143,373,l),
(180,340,l)
);
},
{
closed = 1;
nodes = (
(254,0,l),
(254,50,l),
(81,50,l),
(81,0,l)
);
},
{
closed = 1;
nodes = (
(102,-14,l),
(102,160,l),
(51,160,l),
(51,-14,l)
);
},
{
closed = 1;
nodes = (
(254,0,l),
(254,50,l),
(81,50,l),
(81,0,l)
);
},
{
closed = 1;
nodes = (
(102,-14,l),
(102,160,l),
(51,160,l),
(51,-14,l)
);
},
{
closed = 1;
nodes = (
(194,76,l),
(194,250,l),
(144,250,l),
(144,76,l)
);
},
{
closed = 1;
nodes = (
(102,125,l),
(102,299,l),
(51,299,l),
(51,125,l)
);
},
{
closed = 1;
nodes = (
(194,76,l),
(194,250,l),
(144,250,l),
(144,76,l)
);
},
{
closed = 1;
nodes = (
(399,0,l),
(399,50,l),
(226,50,l),
(226,0,l)
);
},
{
closed = 1;
nodes = (
(102,125,l),
(102,299,l),
(51,299,l),
(51,125,l)
);
},
{
closed = 1;
nodes = (
(226,0,l),
(399,0,l),
(399,50,l),
(226,50,l)
);
},
{
closed = 1;
nodes = (
(194,215,l),
(194,389,l),
(144,389,l),
(144,215,l)
);
},
{
closed = 1;
nodes = (
(365,0,l),
(415,0,l),
(415,173,l),
(365,173,l)
);
},
{
closed = 1;
nodes = (
(102,264,l),
(102,438,l),
(51,438,l),
(51,264,l)
);
},
{
closed = 1;
nodes = (
(323,62,l),
(324,236,l),
(274,236,l),
(273,63,l)
);
},
{
closed = 1;
nodes = (
(194,215,l),
(194,389,l),
(144,389,l),
(144,215,l)
);
},
{
closed = 1;
nodes = (
(415,0,l),
(415,173,l),
(365,173,l),
(365,0,l)
);
},
{
closed = 1;
nodes = (
(102,264,l),
(102,438,l),
(51,438,l),
(51,264,l)
);
},
{
closed = 1;
nodes = (
(323,62,l),
(324,236,l),
(274,236,l),
(273,63,l)
);
},
{
closed = 1;
nodes = (
(295,470,l),
(257,504,l),
(143,373,l),
(180,340,l)
);
},
{
closed = 1;
nodes = (
(415,0,l),
(415,173,l),
(365,173,l),
(365,0,l)
);
},
{
closed = 1;
nodes = (
(102,403,l),
(102,577,l),
(51,577,l),
(51,403,l)
);
},
{
closed = 1;
nodes = (
(386,280,l),
(222,338,l),
(205,290,l),
(369,233,l)
);
},
{
closed = 1;
nodes = (
(721,0,l),
(721,50,l),
(547,50,l),
(547,0,l)
);
},
{
closed = 1;
nodes = (
(222,338,l),
(205,290,l),
(369,233,l),
(386,280,l)
);
},
{
closed = 1;
nodes = (
(415,139,l),
(415,312,l),
(365,312,l),
(365,139,l)
);
},
{
closed = 1;
nodes = (
(570,-11,l),
(570,162,l),
(520,162,l),
(520,-11,l)
);
},
{
closed = 1;
nodes = (
(102,403,l),
(102,577,l),
(51,577,l),
(51,403,l)
);
},
{
closed = 1;
nodes = (
(721,0,l),
(721,50,l),
(547,50,l),
(547,0,l)
);
},
{
closed = 1;
nodes = (
(345,466,l),
(297,483,l),
(240,319,l),
(287,303,l)
);
},
{
closed = 1;
nodes = (
(415,139,l),
(415,312,l),
(365,312,l),
(365,139,l)
);
},
{
closed = 1;
nodes = (
(570,-11,l),
(570,162,l),
(520,162,l),
(520,-11,l)
);
},
{
closed = 1;
nodes = (
(204,563,l),
(204,613,l),
(30,613,l),
(30,563,l)
);
},
{
closed = 1;
nodes = (
(281,521,l),
(271,570,l),
(100,535,l),
(110,486,l)
);
},
{
closed = 1;
nodes = (
(345,466,l),
(297,483,l),
(240,319,l),
(287,303,l)
);
},
{
closed = 1;
nodes = (
(663,73,l),
(663,247,l),
(613,247,l),
(613,73,l)
);
},
{
closed = 1;
nodes = (
(30,563,l),
(204,563,l),
(204,613,l),
(30,613,l)
);
},
{
closed = 1;
nodes = (
(415,278,l),
(415,451,l),
(365,451,l),
(365,278,l)
);
},
{
closed = 1;
nodes = (
(570,128,l),
(570,301,l),
(520,301,l),
(520,128,l)
);
},
{
closed = 1;
nodes = (
(663,73,l),
(663,247,l),
(613,247,l),
(613,73,l)
);
},
{
closed = 1;
nodes = (
(417,548,l),
(407,597,l),
(237,563,l),
(247,514,l)
);
},
{
closed = 1;
nodes = (
(570,128,l),
(570,301,l),
(520,301,l),
(520,128,l)
);
},
{
closed = 1;
nodes = (
(583,471,l),
(556,513,l),
(409,420,l),
(436,378,l)
);
},
{
closed = 1;
nodes = (
(663,212,l),
(663,386,l),
(613,386,l),
(613,212,l)
);
},
{
closed = 1;
nodes = (
(470,567,l),
(321,477,l),
(347,435,l),
(496,524,l)
);
},
{
closed = 1;
nodes = (
(417,548,l),
(407,597,l),
(237,563,l),
(247,514,l)
);
},
{
closed = 1;
nodes = (
(570,267,l),
(570,440,l),
(520,440,l),
(520,267,l)
);
},
{
closed = 1;
nodes = (
(496,524,l),
(470,567,l),
(321,477,l),
(347,435,l)
);
},
{
closed = 1;
nodes = (
(663,212,l),
(663,386,l),
(613,386,l),
(613,212,l)
);
},
{
closed = 1;
nodes = (
(583,471,l),
(556,513,l),
(409,420,l),
(436,378,l)
);
},
{
closed = 1;
nodes = (
(570,267,l),
(570,437,l),
(520,440,l),
(520,267,l)
);
},
{
closed = 1;
nodes = (
(545,600,l),
(504,628,l),
(407,483,l),
(449,456,l)
);
},
{
closed = 1;
nodes = (
(663,212,l),
(663,386,l),
(613,386,l),
(613,212,l)
);
},
{
closed = 1;
nodes = (
(545,600,l),
(504,628,l),
(407,483,l),
(449,456,l)
);
},
{
closed = 1;
nodes = (
(714,494,l),
(672,522,l),
(574,379,l),
(616,350,l)
);
},
{
closed = 1;
nodes = (
(665,496,l),
(522,594,l),
(493,553,l),
(636,454,l)
);
},
{
closed = 1;
nodes = (
(665,496,l),
(522,594,l),
(493,553,l),
(636,454,l)
);
},
{
closed = 1;
nodes = (
(616,350,l),
(714,494,l),
(672,522,l),
(574,379,l)
);
}
);
width = 751;
}
);
note = m;
unicode = 109;
},
{
glyphname = n;
lastChange = "2023-05-12 18:34:41 +0000";
layers = (
{
layerId = m01;
shapes = (
{
closed = 1;
nodes = (
(261,380,l),
(242,397,l),
(184,332,l),
(202,315,l)
);
},
{
closed = 1;
nodes = (
(187,0,l),
(187,25,l),
(100,25,l),
(100,0,l)
);
},
{
closed = 1;
nodes = (
(136,18,l),
(136,105,l),
(111,105,l),
(111,18,l)
);
},
{
closed = 1;
nodes = (
(256,0,l),
(256,25,l),
(169,25,l),
(169,0,l)
);
},
{
closed = 1;
nodes = (
(136,88,l),
(136,175,l),
(111,175,l),
(111,88,l)
);
},
{
closed = 1;
nodes = (
(226,38,l),
(226,125,l),
(201,125,l),
(201,38,l)
);
},
{
closed = 1;
nodes = (
(136,157,l),
(136,244,l),
(111,244,l),
(111,157,l)
);
},
{
closed = 1;
nodes = (
(347,-28,l),
(347,59,l),
(322,59,l),
(322,-28,l)
);
},
{
closed = 1;
nodes = (
(226,107,l),
(226,194,l),
(201,194,l),
(201,107,l)
);
},
{
closed = 1;
nodes = (
(136,227,l),
(136,314,l),
(111,314,l),
(111,227,l)
);
},
{
closed = 1;
nodes = (
(445,0,l),
(445,25,l),
(358,25,l),
(358,0,l)
);
},
{
closed = 1;
nodes = (
(347,41,l),
(347,128,l),
(322,128,l),
(322,41,l)
);
},
{
closed = 1;
nodes = (
(226,177,l),
(226,264,l),
(201,264,l),
(201,177,l)
);
},
{
closed = 1;
nodes = (
(136,296,l),
(136,383,l),
(111,383,l),
(111,296,l)
);
},
{
closed = 1;
nodes = (
(514,0,l),
(514,25,l),
(427,25,l),
(427,0,l)
);
},
{
closed = 1;
nodes = (
(355,103,l),
(355,189,l),
(330,189,l),
(330,103,l)
);
},
{
closed = 1;
nodes = (
(226,246,l),
(226,333,l),
(201,333,l),
(201,246,l)
);
},
{
closed = 1;
nodes = (
(136,366,l),
(136,453,l),
(111,453,l),
(111,366,l)
);
},
{
closed = 1;
nodes = (
(498,83,l),
(498,108,l),
(412,108,l),
(412,83,l)
);
},
{
closed = 1;
nodes = (
(503,18,l),
(503,105,l),
(478,105,l),
(478,18,l)
);
},
{
closed = 1;
nodes = (
(355,172,l),
(355,259,l),
(330,259,l),
(330,172,l)
);
},
{
closed = 1;
nodes = (
(445,100,l),
(445,186,l),
(420,186,l),
(420,100,l)
);
},
{
closed = 1;
nodes = (
(136,435,l),
(136,522,l),
(111,522,l),
(111,435,l)
);
},
{
closed = 1;
nodes = (
(355,242,l),
(355,328,l),
(330,328,l),
(330,242,l)
);
},
{
closed = 1;
nodes = (
(445,169,l),
(445,256,l),
(420,256,l),
(420,169,l)
);
},
{
closed = 1;
nodes = (
(136,505,l),
(136,592,l),
(111,592,l),
(111,505,l)
);
},
{
closed = 1;
nodes = (
(307,431,l),
(289,448,l),
(230,384,l),
(249,367,l)
);
},
{
closed = 1;
nodes = (
(355,311,l),
(355,398,l),
(330,398,l),
(330,311,l)
);
},
{
closed = 1;
nodes = (
(445,239,l),
(445,325,l),
(420,325,l),
(420,239,l)
);
},
{
closed = 1;
nodes = (
(220,552,l),
(220,577,l),
(133,577,l),
(133,552,l)
);
},
{
closed = 1;
nodes = (
(226,489,l),
(226,576,l),
(201,576,l),
(201,489,l)
);
},
{
closed = 1;
nodes = (
(358,388,l),
(317,464,l),
(295,452,l),
(336,376,l)
);
},
{
closed = 1;
nodes = (
(294,503,l),
(288,527,l),
(203,509,l),
(209,485,l)
);
},
{
closed = 1;
nodes = (
(445,308,l),
(445,395,l),
(420,395,l),
(420,308,l)
);
},
{
closed = 1;
nodes = (
(362,517,l),
(356,542,l),
(271,524,l),
(277,499,l)
);
},
{
closed = 1;
nodes = (
(473,364,l),
(433,441,l),
(410,429,l),
(450,352,l)
);
},
{
closed = 1;
nodes = (
(441,425,l),
(400,502,l),
(378,491,l),
(418,414,l)
);
},
{
closed = 1;
nodes = (
(408,487,l),
(368,564,l),
(346,553,l),
(386,475,l)
);
}
);
width = 544;
},
{
background = {
shapes = (
{
closed = 1;
nodes = (
(270,416,l),
(233,450,l),
(116,321,l),
(153,287,l)
);
},
{
closed = 1;
nodes = (
(201,0,l),
(201,50,l),
(27,50,l),
(27,0,l)
);
},
{
closed = 1;
nodes = (
(119,57,l),
(119,231,l),
(69,231,l),
(69,57,l)
);
},
{
closed = 1;
nodes = (
(209,7,l),
(209,181,l),
(159,181,l),
(159,7,l)
);
},
{
closed = 1;
nodes = (
(330,-59,l),
(330,115,l),
(280,115,l),
(280,-59,l)
);
},
{
closed = 1;
nodes = (
(119,196,l),
(119,370,l),
(69,370,l),
(69,196,l)
);
},
{
closed = 1;
nodes = (
(209,146,l),
(209,320,l),
(159,320,l),
(159,146,l)
);
},
{
closed = 1;
nodes = (
(528,0,l),
(528,50,l),
(355,50,l),
(355,0,l)
);
},
{
closed = 1;
nodes = (
(338,72,l),
(338,246,l),
(288,246,l),
(288,72,l)
);
},
{
closed = 1;
nodes = (
(119,335,l),
(119,509,l),
(69,509,l),
(69,335,l)
);
},
{
closed = 1;
nodes = (
(513,83,l),
(513,134,l),
(339,134,l),
(339,83,l)
);
},
{
closed = 1;
nodes = (
(338,211,l),
(338,385,l),
(288,385,l),
(288,211,l)
);
},
{
closed = 1;
nodes = (
(429,138,l),
(429,312,l),
(379,312,l),
(379,138,l)
);
},
{
closed = 1;
nodes = (
(119,474,l),
(119,648,l),
(69,648,l),
(69,474,l)
);
},
{
closed = 1;
nodes = (
(209,458,l),
(209,632,l),
(159,632,l),
(159,458,l)
);
},
{
closed = 1;
nodes = (
(361,368,l),
(278,521,l),
(234,497,l),
(317,345,l)
);
},
{
closed = 1;
nodes = (
(429,277,l),
(429,451,l),
(379,451,l),
(379,277,l)
);
},
{
closed = 1;
nodes = (
(377,527,l),
(367,576,l),
(197,540,l),
(208,491,l)
);
},
{
closed = 1;
nodes = (
(443,406,l),
(362,560,l),
(318,536,l),
(398,382,l)
);
}
);
};
layerId = "BE691341-D8A5-4739-82E3-AB614D387AD5";
shapes = (
{
closed = 1;
nodes = (
(270,416,l),
(233,450,l),
(116,321,l),
(153,287,l)
);
},
{
closed = 1;
nodes = (
(201,0,l),
(201,50,l),
(27,50,l),
(27,0,l)
);
},
{
closed = 1;
nodes = (
(27,0,l),
(201,0,l),
(201,50,l),
(27,50,l)
);
},
{
closed = 1;
nodes = (
(201,0,l),
(201,50,l),
(27,50,l),
(27,0,l)
);
},
{
closed = 1;
nodes = (
(119,57,l),
(119,231,l),
(69,231,l),
(69,57,l)
);
},
{
closed = 1;
nodes = (
(209,7,l),
(209,181,l),
(159,181,l),
(159,7,l)
);
},
{
closed = 1;
nodes = (
(119,57,l),
(119,231,l),
(69,231,l),
(69,57,l)
);
},
{
closed = 1;
nodes = (
(330,-59,l),
(330,115,l),
(280,115,l),
(280,-59,l)
);
},
{
closed = 1;
nodes = (
(119,57,l),
(119,231,l),
(69,231,l),
(69,57,l)
);
},
{
closed = 1;
nodes = (
(119,196,l),
(119,370,l),
(69,370,l),
(69,196,l)
);
},
{
closed = 1;
nodes = (
(280,-59,l),
(330,-59,l),
(330,115,l),
(280,115,l)
);
},
{
closed = 1;
nodes = (
(330,-59,l),
(330,115,l),
(280,115,l),
(280,-59,l)
);
},
{
closed = 1;
nodes = (
(209,146,l),
(209,320,l),
(159,320,l),
(159,146,l)
);
},
{
closed = 1;
nodes = (
(119,196,l),
(119,370,l),
(69,370,l),
(69,196,l)
);
},
{
closed = 1;
nodes = (
(528,0,l),
(528,50,l),
(355,50,l),
(355,0,l)
);
},
{
closed = 1;
nodes = (
(338,72,l),
(338,246,l),
(288,246,l),
(288,72,l)
);
},
{
closed = 1;
nodes = (
(209,146,l),
(209,320,l),
(159,320,l),
(159,146,l)
);
},
{
closed = 1;
nodes = (
(119,335,l),
(119,509,l),
(69,509,l),
(69,335,l)
);
},
{
closed = 1;
nodes = (
(513,83,l),
(513,134,l),
(339,134,l),
(339,83,l)
);
},
{
closed = 1;
nodes = (
(355,0,l),
(528,0,l),
(528,50,l),
(355,50,l)
);
},
{
closed = 1;
nodes = (
(338,211,l),
(338,385,l),
(288,385,l),
(288,211,l)
);
},
{
closed = 1;
nodes = (
(339,83,l),
(513,83,l),
(513,134,l),
(339,134,l)
);
},
{
closed = 1;
nodes = (
(119,335,l),
(119,509,l),
(69,509,l),
(69,335,l)
);
},
{
closed = 1;
nodes = (
(338,211,l),
(338,385,l),
(288,385,l),
(288,211,l)
);
},
{
closed = 1;
nodes = (
(429,138,l),
(429,312,l),
(379,312,l),
(379,138,l)
);
},
{
closed = 1;
nodes = (
(119,474,l),
(119,648,l),
(69,648,l),
(69,474,l)
);
},
{
closed = 1;
nodes = (
(270,416,l),
(233,450,l),
(116,321,l),
(153,287,l)
);
},
{
closed = 1;
nodes = (
(338,211,l),
(338,385,l),
(288,385,l),
(288,211,l)
);
},
{
closed = 1;
nodes = (
(429,138,l),
(429,312,l),
(379,312,l),
(379,138,l)
);
},
{
closed = 1;
nodes = (
(69,474,l),
(119,474,l),
(119,648,l),
(69,648,l)
);
},
{
closed = 1;
nodes = (
(209,458,l),
(209,632,l),
(159,632,l),
(159,458,l)
);
},
{
closed = 1;
nodes = (
(361,368,l),
(278,521,l),
(234,497,l),
(317,345,l)
);
},
{
closed = 1;
nodes = (
(209,632,l),
(159,632,l),
(159,458,l),
(209,458,l)
);
},
{
closed = 1;
nodes = (
(429,277,l),
(429,451,l),
(379,451,l),
(379,277,l)
);
},
{
closed = 1;
nodes = (
(377,527,l),
(367,576,l),
(197,540,l),
(208,491,l)
);
},
{
closed = 1;
nodes = (
(429,277,l),
(429,451,l),
(379,451,l),
(379,277,l)
);
},
{
closed = 1;
nodes = (
(443,406,l),
(362,560,l),
(318,536,l),
(398,382,l)
);
},
{
closed = 1;
nodes = (
(361,368,l),
(278,521,l),
(234,497,l),
(317,345,l)
);
}
);
width = 561;
}
);
note = n;
unicode = 110;
},
{
glyphname = o;
lastChange = "2023-05-12 18:36:05 +0000";
layers = (
{
layerId = m01;
shapes = (
{
closed = 1;
nodes = (
(121,72,l),
(63,137,l),
(44,120,l),
(102,55,l)
);
},
{
closed = 1;
nodes = (
(207,-9,l),
(202,16,l),
(117,0,l),
(121,-25,l)
);
},
{
closed = 1;
nodes = (
(167,20,l),
(109,85,l),
(91,68,l),
(149,4,l)
);
},
{
closed = 1;
nodes = (
(78,117,l),
(69,203,l),
(44,201,l),
(53,114,l)
);
},
{
closed = 1;
nodes = (
(275,4,l),
(271,28,l),
(185,13,l),
(190,-12,l)
);
},
{
closed = 1;
nodes = (
(71,186,l),
(63,272,l),
(38,270,l),
(46,183,l)
);
},
{
closed = 1;
nodes = (
(243,86,l),
(184,151,l),
(166,134,l),
(224,70,l)
);
},
{
closed = 1;
nodes = (
(344,16,l),
(339,41,l),
(254,25,l),
(258,0,l)
);
},
{
closed = 1;
nodes = (
(188,127,l),
(154,207,l),
(130,197,l),
(165,118,l)
);
},
{
closed = 1;
nodes = (
(64,255,l),
(56,341,l),
(31,339,l),
(40,253,l)
);
},
{
closed = 1;
nodes = (
(170,189,l),
(163,276,l),
(138,274,l),
(145,187,l)
);
},
{
closed = 1;
nodes = (
(316,111,l),
(312,136,l),
(226,122,l),
(230,97,l)
);
},
{
closed = 1;
nodes = (
(377,0,l),
(360,85,l),
(336,80,l),
(353,-5,l)
);
},
{
closed = 1;
nodes = (
(84,389,l),
(61,398,l),
(30,317,l),
(53,308,l)
);
},
{
closed = 1;
nodes = (
(166,343,l),
(141,345,l),
(134,259,l),
(159,257,l)
);
},
{
closed = 1;
nodes = (
(356,189,l),
(337,205,l),
(281,139,l),
(300,123,l)
);
},
{
closed = 1;
nodes = (
(429,121,l),
(410,137,l),
(354,71,l),
(373,55,l)
);
},
{
closed = 1;
nodes = (
(109,454,l),
(86,463,l),
(55,382,l),
(78,373,l)
);
},
{
closed = 1;
nodes = (
(197,403,l),
(174,412,l),
(142,331,l),
(165,322,l)
);
},
{
closed = 1;
nodes = (
(355,270,l),
(330,273,l),
(320,187,l),
(345,184,l)
);
},
{
closed = 1;
nodes = (
(135,484,l),
(125,507,l),
(45,475,l),
(54,452,l)
);
},
{
closed = 1;
nodes = (
(474,174,l),
(455,190,l),
(399,124,l),
(418,108,l)
);
},
{
closed = 1;
nodes = (
(253,422,l),
(244,446,l),
(163,415,l),
(172,391,l)
);
},
{
closed = 1;
nodes = (
(363,339,l),
(338,342,l),
(328,256,l),
(353,253,l)
);
},
{
closed = 1;
nodes = (
(453,252,l),
(428,255,l),
(418,169,l),
(443,166,l)
);
},
{
closed = 1;
nodes = (
(199,510,l),
(190,533,l),
(109,501,l),
(119,478,l)
);
},
{
closed = 1;
nodes = (
(376,285,l),
(344,366,l),
(321,357,l),
(353,276,l)
);
},
{
closed = 1;
nodes = (
(316,419,l),
(240,460,l),
(228,437,l),
(305,396,l)
);
},
{
closed = 1;
nodes = (
(350,350,l),
(318,431,l),
(295,421,l),
(327,341,l)
);
},
{
closed = 1;
nodes = (
(460,321,l),
(435,324,l),
(426,238,l),
(451,235,l)
);
},
{
closed = 1;
nodes = (
(249,565,l),
(227,576,l),
(188,498,l),
(210,487,l)
);
},
{
closed = 1;
nodes = (
(476,302,l),
(444,382,l),
(420,373,l),
(453,292,l)
);
},
{
closed = 1;
nodes = (
(309,535,l),
(233,576,l),
(221,554,l),
(297,513,l)
);
},
{
closed = 1;
nodes = (
(450,366,l),
(417,447,l),
(394,437,l),
(427,357,l)
);
},
{
closed = 1;
nodes = (
(371,502,l),
(294,543,l),
(282,521,l),
(359,480,l)
);
},
{
closed = 1;
nodes = (
(432,469,l),
(355,510,l),
(343,488,l),
(420,447,l)
);
},
{
closed = 1;
nodes = (
(444,497,l),
(423,509,l),
(380,433,l),
(402,421,l)
);
}
);
width = 526;
},
{
layerId = "BE691341-D8A5-4739-82E3-AB614D387AD5";
shapes = (
{
closed = 1;
nodes = (
(189,33,l),
(74,163,l),
(36,129,l),
(152,0,l)
);
},
{
closed = 1;
nodes = (
(282,-28,l),
(273,21,l),
(102,-11,l),
(111,-60,l)
);
},
{
closed = 1;
nodes = (
(189,33,l),
(74,163,l),
(36,129,l),
(152,0,l)
);
},
{
closed = 1;
nodes = (
(118,129,l),
(101,302,l),
(51,297,l),
(68,124,l)
);
},
{
closed = 1;
nodes = (
(282,-28,l),
(273,21,l),
(102,-11,l),
(111,-60,l)
);
},
{
closed = 1;
nodes = (
(118,129,l),
(101,302,l),
(51,297,l),
(68,124,l)
);
},
{
closed = 1;
nodes = (
(325,90,l),
(160,147,l),
(144,100,l),
(308,43,l)
);
},
{
closed = 1;
nodes = (
(419,-3,l),
(409,46,l),
(239,15,l),
(248,-35,l)
);
},
{
closed = 1;
nodes = (
(216,132,l),
(202,305,l),
(152,301,l),
(166,128,l)
);
},
{
closed = 1;
nodes = (
(79,248,l),
(142,410,l),
(95,428,l),
(33,266,l)
);
},
{
closed = 1;
nodes = (
(216,132,l),
(202,305,l),
(152,301,l),
(166,128,l)
);
},
{
closed = 1;
nodes = (
(424,200,l),
(385,232,l),
(274,99,l),
(312,66,l)
);
},
{
closed = 1;
nodes = (
(409,46,l),
(239,15,l),
(248,-35,l),
(419,-3,l)
);
},
{
closed = 1;
nodes = (
(142,410,l),
(95,428,l),
(33,266,l),
(79,248,l)
);
},
{
closed = 1;
nodes = (
(255,423,l),
(209,442,l),
(144,281,l),
(191,262,l)
);
},
{
closed = 1;
nodes = (
(424,200,l),
(385,232,l),
(274,99,l),
(312,66,l)
);
},
{
closed = 1;
nodes = (
(497,131,l),
(458,164,l),
(346,31,l),
(385,-2,l)
);
},
{
closed = 1;
nodes = (
(210,474,l),
(191,520,l),
(30,456,l),
(49,409,l)
);
},
{
closed = 1;
nodes = (
(255,423,l),
(209,442,l),
(144,281,l),
(191,262,l)
);
},
{
closed = 1;
nodes = (
(410,366,l),
(361,372,l),
(341,199,l),
(391,193,l)
);
},
{
closed = 1;
nodes = (
(210,474,l),
(191,520,l),
(30,456,l),
(49,409,l)
);
},
{
closed = 1;
nodes = (
(497,131,l),
(458,164,l),
(346,31,l),
(385,-2,l)
);
},
{
closed = 1;
nodes = (
(237,476,l),
(214,432,l),
(367,350,l),
(391,394,l)
);
},
{
closed = 1;
nodes = (
(410,366,l),
(361,372,l),
(341,199,l),
(391,193,l)
);
},
{
closed = 1;
nodes = (
(500,279,l),
(450,285,l),
(431,112,l),
(481,107,l)
);
},
{
closed = 1;
nodes = (
(210,474,l),
(191,520,l),
(30,456,l),
(49,409,l)
);
},
{
closed = 1;
nodes = (
(434,235,l),
(369,396,l),
(323,378,l),
(387,216,l)
);
},
{
closed = 1;
nodes = (
(391,394,l),
(237,476,l),
(214,432,l),
(367,350,l)
);
},
{
closed = 1;
nodes = (
(434,235,l),
(369,396,l),
(323,378,l),
(387,216,l)
);
},
{
closed = 1;
nodes = (
(500,279,l),
(450,285,l),
(431,112,l),
(481,107,l)
);
},
{
closed = 1;
nodes = (
(310,583,l),
(265,606,l),
(187,450,l),
(232,428,l)
);
},
{
closed = 1;
nodes = (
(534,251,l),
(469,412,l),
(422,394,l),
(488,233,l)
);
},
{
closed = 1;
nodes = (
(232,428,l),
(310,583,l),
(265,606,l),
(187,450,l)
);
},
{
closed = 1;
nodes = (
(534,251,l),
(469,412,l),
(422,394,l),
(488,233,l)
);
},
{
closed = 1;
nodes = (
(445,477,l),
(292,560,l),
(268,516,l),
(421,433,l)
);
},
{
closed = 1;
nodes = (
(445,477,l),
(292,560,l),
(268,516,l),
(421,433,l)
);
},
{
closed = 1;
nodes = (
(507,514,l),
(463,538,l),
(378,387,l),
(421,362,l)
);
}
);
width = 564;
}
);
note = o;
unicode = 111;
},
{
glyphname = p;
layers = (
{
layerId = m01;
shapes = (
{
closed = 1;
nodes = (
(111,575,l),
(93,593,l),
(30,533,l),
(48,515,l)
);
},
{
closed = 1;
nodes = (
(126,-219,l),
(126,-132,l),
(101,-132,l),
(101,-219,l)
);
},
{
closed = 1;
nodes = (
(214,-200,l),
(214,-175,l),
(127,-175,l),
(127,-200,l)
);
},
{
closed = 1;
nodes = (
(126,-150,l),
(126,-63,l),
(101,-63,l),
(101,-150,l)
);
},
{
closed = 1;
nodes = (
(219,-198,l),
(219,-111,l),
(194,-111,l),
(194,-198,l)
);
},
{
closed = 1;
nodes = (
(126,-80,l),
(126,7,l),
(101,7,l),
(101,-80,l)
);
},
{
closed = 1;
nodes = (
(219,-128,l),
(219,-41,l),
(194,-41,l),
(194,-128,l)
);
},
{
closed = 1;
nodes = (
(126,-11,l),
(126,76,l),
(101,76,l),
(101,-11,l)
);
},
{
closed = 1;
nodes = (
(219,-59,l),
(219,28,l),
(194,28,l),
(194,-59,l)
);
},
{
closed = 1;
nodes = (
(126,59,l),
(126,146,l),
(101,146,l),
(101,59,l)
);
},
{
closed = 1;
nodes = (
(219,11,l),
(219,98,l),
(194,98,l),
(194,11,l)
);
},
{
closed = 1;
nodes = (
(126,128,l),
(126,215,l),
(101,215,l),
(101,128,l)
);
},
{
closed = 1;
nodes = (
(309,70,l),
(305,95,l),
(219,81,l),
(223,56,l)
);
},
{
closed = 1;
nodes = (
(126,198,l),
(126,284,l),
(101,284,l),
(101,198,l)
);
},
{
closed = 1;
nodes = (
(219,142,l),
(219,229,l),
(194,229,l),
(194,142,l)
);
},
{
closed = 1;
nodes = (
(375,69,l),
(300,112,l),
(287,90,l),
(363,47,l)
);
},
{
closed = 1;
nodes = (
(297,166,l),
(292,190,l),
(207,174,l),
(211,149,l)
);
},
{
closed = 1;
nodes = (
(126,267,l),
(126,354,l),
(101,354,l),
(101,267,l)
);
},
{
closed = 1;
nodes = (
(219,211,l),
(219,298,l),
(194,298,l),
(194,211,l)
);
},
{
closed = 1;
nodes = (
(126,337,l),
(126,423,l),
(101,423,l),
(101,337,l)
);
},
{
closed = 1;
nodes = (
(408,158,l),
(387,172,l),
(337,101,l),
(358,87,l)
);
},
{
closed = 1;
nodes = (
(343,230,l),
(323,244,l),
(273,173,l),
(293,159,l)
);
},
{
closed = 1;
nodes = (
(219,281,l),
(219,368,l),
(194,368,l),
(194,281,l)
);
},
{
closed = 1;
nodes = (
(126,406,l),
(126,493,l),
(101,493,l),
(101,406,l)
);
},
{
closed = 1;
nodes = (
(116,482,l),
(56,545,l),
(38,527,l),
(98,464,l)
);
},
{
closed = 1;
nodes = (
(459,188,l),
(449,211,l),
(369,178,l),
(379,155,l)
);
},
{
closed = 1;
nodes = (
(219,350,l),
(219,437,l),
(194,437,l),
(194,350,l)
);
},
{
closed = 1;
nodes = (
(375,294,l),
(352,303,l),
(321,222,l),
(344,213,l)
);
},
{
closed = 1;
nodes = (
(457,270,l),
(432,273,l),
(422,187,l),
(447,184,l)
);
},
{
closed = 1;
nodes = (
(278,440,l),
(272,464,l),
(188,445,l),
(193,420,l)
);
},
{
closed = 1;
nodes = (
(374,369,l),
(349,371,l),
(340,285,l),
(365,282,l)
);
},
{
closed = 1;
nodes = (
(380,307,l),
(363,392,l),
(338,387,l),
(356,302,l)
);
},
{
closed = 1;
nodes = (
(208,521,l),
(148,583,l),
(130,566,l),
(190,504,l)
);
},
{
closed = 1;
nodes = (
(160,571,l),
(99,633,l),
(81,616,l),
(142,554,l)
);
},
{
closed = 1;
nodes = (
(465,339,l),
(440,342,l),
(430,256,l),
(455,253,l)
);
},
{
closed = 1;
nodes = (
(346,455,l),
(340,480,l),
(255,460,l),
(261,436,l)
);
},
{
closed = 1;
nodes = (
(366,375,l),
(348,460,l),
(324,455,l),
(341,370,l)
);
},
{
closed = 1;
nodes = (
(278,540,l),
(273,565,l),
(188,547,l),
(193,523,l)
);
},
{
closed = 1;
nodes = (
(476,317,l),
(458,403,l),
(434,397,l),
(452,312,l)
);
},
{
closed = 1;
nodes = (
(330,595,l),
(310,609,l),
(260,537,l),
(281,523,l)
);
},
{
closed = 1;
nodes = (
(462,385,l),
(444,471,l),
(420,465,l),
(437,380,l)
);
},
{
closed = 1;
nodes = (
(398,529,l),
(322,573,l),
(310,551,l),
(385,508,l)
);
},
{
closed = 1;
nodes = (
(458,495,l),
(383,538,l),
(370,516,l),
(445,473,l)
);
},
{
closed = 1;
nodes = (
(473,521,l),
(452,534,l),
(405,461,l),
(426,448,l)
);
}
);
width = 506;
},
{
layerId = "BE691341-D8A5-4739-82E3-AB614D387AD5";
shapes = (
{
closed = 1;
nodes = (
(67,648,l),
(30,613,l),
(150,488,l),
(187,522,l)
);
},
{
closed = 1;
nodes = (
(170,-200,l),
(170,-26,l),
(119,-26,l),
(119,-200,l)
);
},
{
closed = 1;
nodes = (
(213,-178,l),
(263,-178,l),
(263,-4,l),
(213,-4,l)
);
},
{
closed = 1;
nodes = (
(170,-200,l),
(170,-26,l),
(119,-26,l),
(119,-200,l)
);
},
{
closed = 1;
nodes = (
(263,-178,l),
(263,-4,l),
(213,-4,l),
(213,-178,l)
);
},
{
closed = 1;
nodes = (
(170,-61,l),
(170,113,l),
(119,113,l),
(119,-61,l)
);
},
{
closed = 1;
nodes = (
(263,-178,l),
(263,-4,l),
(213,-4,l),
(213,-178,l)
);
},
{
closed = 1;
nodes = (
(170,-61,l),
(170,113,l),
(119,113,l),
(119,-61,l)
);
},
{
closed = 1;
nodes = (
(263,-39,l),
(263,135,l),
(213,135,l),
(213,-39,l)
);
},
{
closed = 1;
nodes = (
(170,78,l),
(170,252,l),
(119,252,l),
(119,78,l)
);
},
{
closed = 1;
nodes = (
(263,-39,l),
(263,135,l),
(213,135,l),
(213,-39,l)
);
},
{
closed = 1;
nodes = (
(170,78,l),
(170,252,l),
(119,252,l),
(119,78,l)
);
},
{
closed = 1;
nodes = (
(385,128,l),
(376,178,l),
(205,149,l),
(213,99,l)
);
},
{
closed = 1;
nodes = (
(170,113,l),
(170,356,l),
(119,356,l),
(119,113,l)
);
},
{
closed = 1;
nodes = (
(363,274,l),
(193,241,l),
(202,192,l),
(373,225,l)
);
},
{
closed = 1;
nodes = (
(213,99,l),
(385,128,l),
(376,178,l),
(205,149,l)
);
},
{
closed = 1;
nodes = (
(373,225,l),
(363,274,l),
(193,241,l),
(202,192,l)
);
},
{
closed = 1;
nodes = (
(170,217,l),
(170,391,l),
(119,391,l),
(119,217,l)
);
},
{
closed = 1;
nodes = (
(263,231,l),
(263,405,l),
(213,405,l),
(213,231,l)
);
},
{
closed = 1;
nodes = (
(170,356,l),
(170,530,l),
(119,530,l),
(119,356,l)
);
},
{
closed = 1;
nodes = (
(474,249,l),
(433,278,l),
(333,136,l),
(374,107,l)
);
},
{
closed = 1;
nodes = (
(325,249,l),
(372,231,l),
(433,394,l),
(386,411,l)
);
},
{
closed = 1;
nodes = (
(263,231,l),
(263,405,l),
(213,405,l),
(213,231,l)
);
},
{
closed = 1;
nodes = (
(170,356,l),
(170,530,l),
(119,530,l),
(119,356,l)
);
},
{
closed = 1;
nodes = (
(187,522,l),
(67,648,l),
(30,613,l),
(150,488,l)
);
},
{
closed = 1;
nodes = (
(474,249,l),
(433,278,l),
(333,136,l),
(374,107,l)
);
},
{
closed = 1;
nodes = (
(263,370,l),
(263,544,l),
(213,544,l),
(213,370,l)
);
},
{
closed = 1;
nodes = (
(433,394,l),
(386,411,l),
(325,249,l),
(372,231,l)
);
},
{
closed = 1;
nodes = (
(505,375,l),
(456,381,l),
(436,208,l),
(486,202,l)
);
},
{
closed = 1;
nodes = (
(263,544,l),
(213,544,l),
(213,370,l),
(263,370,l)
);
},
{
closed = 1;
nodes = (
(433,394,l),
(386,411,l),
(325,249,l),
(372,231,l)
);
},
{
closed = 1;
nodes = (
(432,330,l),
(397,500,l),
(348,490,l),
(383,320,l)
);
},
{
closed = 1;
nodes = (
(344,649,l),
(174,614,l),
(184,565,l),
(354,600,l)
);
},
{
closed = 1;
nodes = (
(230,612,l),
(109,736,l),
(73,702,l),
(194,577,l)
);
},
{
closed = 1;
nodes = (
(505,375,l),
(456,381,l),
(436,208,l),
(486,202,l)
);
},
{
closed = 1;
nodes = (
(422,516,l),
(411,565,l),
(241,526,l),
(253,477,l)
);
},
{
closed = 1;
nodes = (
(432,330,l),
(397,500,l),
(348,490,l),
(383,320,l)
);
},
{
closed = 1;
nodes = (
(354,600,l),
(344,649,l),
(174,614,l),
(184,565,l)
);
},
{
closed = 1;
nodes = (
(528,341,l),
(493,511,l),
(444,500,l),
(479,330,l)
);
},
{
closed = 1;
nodes = (
(322,668,l),
(297,625,l),
(448,538,l),
(473,582,l)
);
},
{
closed = 1;
nodes = (
(528,341,l),
(493,511,l),
(444,500,l),
(479,330,l)
);
},
{
closed = 1;
nodes = (
(473,582,l),
(322,668,l),
(297,625,l),
(448,538,l)
);
},
{
closed = 1;
nodes = (
(496,641,l),
(402,495,l),
(444,468,l),
(538,614,l)
);
},
{
closed = 1;
nodes = (
(538,614,l),
(496,641,l),
(402,495,l),
(444,468,l)
);
}
);
width = 568;
}
);
note = p;
unicode = 112;
},
{
glyphname = q;
lastChange = "2023-05-10 23:10:06 +0000";
layers = (
{
layerId = m01;
shapes = (
{
closed = 1;
nodes = (
(297,219,l),
(280,237,l),
(218,175,l),
(236,158,l)
);
},
{
closed = 1;
nodes = (
(316,-223,l),
(316,-136,l),
(291,-136,l),
(291,-223,l)
);
},
{
closed = 1;
nodes = (
(408,-200,l),
(408,-175,l),
(322,-175,l),
(322,-200,l)
);
},
{
closed = 1;
nodes = (
(316,-153,l),
(316,-66,l),
(291,-66,l),
(291,-153,l)
);
},
{
closed = 1;
nodes = (
(169,96,l),
(82,98,l),
(81,73,l),
(168,71,l)
);
},
{
closed = 1;
nodes = (
(136,102,l),
(94,178,l),
(72,166,l),
(114,90,l)
);
},
{
closed = 1;
nodes = (
(412,-195,l),
(412,-109,l),
(387,-108,l),
(387,-195,l)
);
},
{
closed = 1;
nodes = (
(316,-84,l),
(316,3,l),
(291,3,l),
(291,-84,l)
);
},
{
closed = 1;
nodes = (
(102,163,l),
(60,239,l),
(38,227,l),
(81,151,l)
);
},
{
closed = 1;
nodes = (
(238,94,l),
(151,96,l),
(151,71,l),
(238,69,l)
);
},
{
closed = 1;
nodes = (
(75,210,l),
(70,296,l),
(45,295,l),
(50,208,l)
);
},
{
closed = 1;
nodes = (
(412,-126,l),
(412,-39,l),
(387,-39,l),
(387,-126,l)
);
},
{
closed = 1;
nodes = (
(299,48,l),
(234,106,l),
(218,87,l),
(283,29,l)
);
},
{
closed = 1;
nodes = (
(316,-14,l),
(316,73,l),
(291,73,l),
(291,-14,l)
);
},
{
closed = 1;
nodes = (
(240,190,l),
(153,194,l),
(152,169,l),
(239,165,l)
);
},
{
closed = 1;
nodes = (
(71,279,l),
(66,366,l),
(41,364,l),
(46,277,l)
);
},
{
closed = 1;
nodes = (
(412,-56,l),
(413,30,l),
(388,31,l),
(387,-56,l)
);
},
{
closed = 1;
nodes = (
(180,193,l),
(171,280,l),
(146,277,l),
(155,191,l)
);
},
{
closed = 1;
nodes = (
(316,55,l),
(316,142,l),
(291,142,l),
(291,55,l)
);
},
{
closed = 1;
nodes = (
(79,429,l),
(55,436,l),
(30,353,l),
(54,345,l)
);
},
{
closed = 1;
nodes = (
(413,13,l),
(413,100,l),
(388,100,l),
(388,13,l)
);
},
{
closed = 1;
nodes = (
(172,262,l),
(163,349,l),
(138,346,l),
(148,260,l)
);
},
{
closed = 1;
nodes = (
(183,407,l),
(160,417,l),
(126,337,l),
(149,327,l)
);
},
{
closed = 1;
nodes = (
(413,83,l),
(414,169,l),
(389,169,l),
(388,83,l)
);
},
{
closed = 1;
nodes = (
(99,495,l),
(75,502,l),
(50,419,l),
(74,412,l)
);
},
{
closed = 1;
nodes = (
(316,204,l),
(316,291,l),
(291,291,l),
(291,204,l)
);
},
{
closed = 1;
nodes = (
(413,152,l),
(414,239,l),
(389,239,l),
(388,152,l)
);
},
{
closed = 1;
nodes = (
(211,471,l),
(188,481,l),
(154,401,l),
(177,391,l)
);
},
{
closed = 1;
nodes = (
(139,533,l),
(127,555,l),
(51,515,l),
(62,492,l)
);
},
{
closed = 1;
nodes = (
(316,274,l),
(316,361,l),
(291,361,l),
(291,274,l)
);
},
{
closed = 1;
nodes = (
(414,308,l),
(389,308,l),
(389,222,l),
(414,221,l)
);
},
{
closed = 1;
nodes = (
(316,343,l),
(316,430,l),
(291,430,l),
(291,343,l)
);
},
{
closed = 1;
nodes = (
(201,547,l),
(189,569,l),
(112,528,l),
(124,505,l)
);
},
{
closed = 1;
nodes = (
(283,483,l),
(271,505,l),
(195,464,l),
(206,442,l)
);
},
{
closed = 1;
nodes = (
(414,291,l),
(415,378,l),
(390,378,l),
(389,291,l)
);
},
{
closed = 1;
nodes = (
(316,413,l),
(316,500,l),
(291,500,l),
(291,413,l)
);
},
{
closed = 1;
nodes = (
(349,475,l),
(265,498,l),
(259,473,l),
(343,451,l)
);
},
{
closed = 1;
nodes = (
(262,580,l),
(250,602,l),
(173,561,l),
(185,539,l)
);
},
{
closed = 1;
nodes = (
(415,447,l),
(390,447,l),
(390,361,l),
(415,360,l)
);
},
{
closed = 1;
nodes = (
(256,616,l),
(232,623,l),
(207,540,l),
(231,533,l)
);
},
{
closed = 1;
nodes = (
(327,590,l),
(244,613,l),
(237,589,l),
(321,566,l)
);
},
{
closed = 1;
nodes = (
(415,430,l),
(415,517,l),
(390,517,l),
(390,430,l)
);
},
{
closed = 1;
nodes = (
(395,572,l),
(311,595,l),
(304,571,l),
(388,548,l)
);
},
{
closed = 1;
nodes = (
(416,586,l),
(391,586,l),
(390,500,l),
(415,499,l)
);
}
);
width = 446;
},
{
background = {
shapes = (
{
closed = 1;
nodes = (
(303,313,l),
(353,313,l),
(353,486,l),
(303,486,l)
);
},
{
closed = 1;
nodes = (
(303,174,l),
(353,174,l),
(353,347,l),
(303,347,l)
);
},
{
closed = 1;
nodes = (
(134,221,l),
(308,214,l),
(306,164,l),
(132,171,l)
);
},
{
closed = 1;
nodes = (
(195,406,l),
(213,233,l),
(164,228,l),
(145,401,l)
);
},
{
closed = 1;
nodes = (
(263,519,l),
(195,359,l),
(149,379,l),
(217,539,l)
);
},
{
closed = 1;
nodes = (
(405,441,l),
(237,485,l),
(250,534,l),
(418,490,l)
);
},
{
closed = 1;
nodes = (
(92,531,l),
(245,613,l),
(269,569,l),
(116,487,l)
);
},
{
closed = 1;
nodes = (
(50,394,l),
(100,560,l),
(148,546,l),
(98,380,l)
);
},
{
closed = 1;
nodes = (
(60,246,l),
(49,420,l),
(99,423,l),
(110,249,l)
);
},
{
closed = 1;
nodes = (
(30,271,l),
(114,120,l),
(158,144,l),
(74,296,l)
);
},
{
closed = 1;
nodes = (
(235,70,l),
(61,74,l),
(63,124,l),
(236,120,l)
);
},
{
closed = 1;
nodes = (
(331,4,l),
(201,119,l),
(234,157,l),
(364,41,l)
);
},
{
closed = 1;
nodes = (
(303,-45,l),
(353,-45,l),
(353,129,l),
(303,129,l)
);
},
{
closed = 1;
nodes = (
(303,-184,l),
(353,-184,l),
(353,-10,l),
(303,-10,l)
);
},
{
closed = 1;
nodes = (
(302,-200,l),
(476,-200,l),
(476,-149,l),
(302,-149,l)
);
},
{
closed = 1;
nodes = (
(449,17,l),
(448,-157,l),
(398,-156,l),
(399,17,l)
);
},
{
closed = 1;
nodes = (
(450,156,l),
(449,-18,l),
(399,-17,l),
(400,156,l)
);
},
{
closed = 1;
nodes = (
(451,295,l),
(450,121,l),
(400,122,l),
(400,295,l)
);
},
{
closed = 1;
nodes = (
(451,434,l),
(450,260,l),
(400,261,l),
(401,434,l)
);
},
{
closed = 1;
nodes = (
(452,573,l),
(451,399,l),
(401,400,l),
(402,573,l)
);
},
{
closed = 1;
nodes = (
(296,631,l),
(464,586,l),
(450,537,l),
(283,583,l)
);
},
{
closed = 1;
nodes = (
(257,681,l),
(206,515,l),
(254,500,l),
(305,667,l)
);
}
);
};
layerId = "BE691341-D8A5-4739-82E3-AB614D387AD5";
shapes = (
{
closed = 1;
nodes = (
(306,164,l),
(308,214,l),
(134,221,l),
(132,171,l)
);
},
{
closed = 1;
nodes = (
(353,-184,l),
(353,-10,l),
(303,-10,l),
(303,-184,l)
);
},
{
closed = 1;
nodes = (
(476,-200,l),
(476,-149,l),
(302,-149,l),
(302,-200,l)
);
},
{
closed = 1;
nodes = (
(353,-184,l),
(353,-10,l),
(303,-10,l),
(303,-184,l)
);
},
{
closed = 1;
nodes = (
(236,120,l),
(63,124,l),
(61,74,l),
(235,70,l)
);
},
{
closed = 1;
nodes = (
(236,120,l),
(63,124,l),
(61,74,l),
(235,70,l)
);
},
{
closed = 1;
nodes = (
(476,-149,l),
(302,-149,l),
(302,-200,l),
(476,-200,l)
);
},
{
closed = 1;
nodes = (
(353,-184,l),
(353,-10,l),
(303,-10,l),
(303,-184,l)
);
},
{
closed = 1;
nodes = (
(158,144,l),
(74,296,l),
(30,271,l),
(114,120,l)
);
},
{
closed = 1;
nodes = (
(236,120,l),
(63,124,l),
(61,74,l),
(235,70,l)
);
},
{
closed = 1;
nodes = (
(158,144,l),
(74,296,l),
(30,271,l),
(114,120,l)
);
},
{
closed = 1;
nodes = (
(448,-157,l),
(449,17,l),
(399,17,l),
(398,-156,l)
);
},
{
closed = 1;
nodes = (
(364,41,l),
(234,157,l),
(201,119,l),
(331,4,l)
);
},
{
closed = 1;
nodes = (
(353,-45,l),
(353,129,l),
(303,129,l),
(303,-45,l)
);
},
{
closed = 1;
nodes = (
(308,214,l),
(134,221,l),
(132,171,l),
(306,164,l)
);
},
{
closed = 1;
nodes = (
(110,249,l),
(99,423,l),
(49,420,l),
(60,246,l)
);
},
{
closed = 1;
nodes = (
(448,-157,l),
(449,17,l),
(399,17,l),
(398,-156,l)
);
},
{
closed = 1;
nodes = (
(213,233,l),
(195,406,l),
(145,401,l),
(164,228,l)
);
},
{
closed = 1;
nodes = (
(353,-45,l),
(353,129,l),
(303,129,l),
(303,-45,l)
);
},
{
closed = 1;
nodes = (
(99,423,l),
(49,420,l),
(60,246,l),
(110,249,l)
);
},
{
closed = 1;
nodes = (
(449,-18,l),
(450,156,l),
(400,156,l),
(399,-17,l)
);
},
{
closed = 1;
nodes = (
(213,233,l),
(195,406,l),
(145,401,l),
(164,228,l)
);
},
{
closed = 1;
nodes = (
(263,519,l),
(217,539,l),
(149,379,l),
(195,359,l)
);
},
{
closed = 1;
nodes = (
(449,-18,l),
(450,156,l),
(400,156,l),
(399,-17,l)
);
},
{
closed = 1;
nodes = (
(148,546,l),
(100,560,l),
(50,394,l),
(98,380,l)
);
},
{
closed = 1;
nodes = (
(353,174,l),
(353,347,l),
(303,347,l),
(303,174,l)
);
},
{
closed = 1;
nodes = (
(450,121,l),
(451,295,l),
(400,295,l),
(400,122,l)
);
},
{
closed = 1;
nodes = (
(263,519,l),
(217,539,l),
(149,379,l),
(195,359,l)
);
},
{
closed = 1;
nodes = (
(148,546,l),
(100,560,l),
(50,394,l),
(98,380,l)
);
},
{
closed = 1;
nodes = (
(353,174,l),
(353,347,l),
(303,347,l),
(303,174,l)
);
},
{
closed = 1;
nodes = (
(451,295,l),
(400,295,l),
(400,122,l),
(450,121,l)
);
},
{
closed = 1;
nodes = (
(353,313,l),
(353,486,l),
(303,486,l),
(303,313,l)
);
},
{
closed = 1;
nodes = (
(269,569,l),
(245,613,l),
(92,531,l),
(116,487,l)
);
},
{
closed = 1;
nodes = (
(405,441,l),
(418,490,l),
(250,534,l),
(237,485,l)
);
},
{
closed = 1;
nodes = (
(450,260,l),
(451,434,l),
(401,434,l),
(400,261,l)
);
},
{
closed = 1;
nodes = (
(353,313,l),
(353,486,l),
(303,486,l),
(303,313,l)
);
},
{
closed = 1;
nodes = (
(418,490,l),
(250,534,l),
(237,485,l),
(405,441,l)
);
},
{
closed = 1;
nodes = (
(269,569,l),
(245,613,l),
(92,531,l),
(116,487,l)
);
},
{
closed = 1;
nodes = (
(451,434,l),
(401,434,l),
(400,261,l),
(450,260,l)
);
},
{
closed = 1;
nodes = (
(305,667,l),
(257,681,l),
(206,515,l),
(254,500,l)
);
},
{
closed = 1;
nodes = (
(464,586,l),
(296,631,l),
(283,583,l),
(450,537,l)
);
},
{
closed = 1;
nodes = (
(451,399,l),
(452,573,l),
(402,573,l),
(401,400,l)
);
},
{
closed = 1;
nodes = (
(464,586,l),
(296,631,l),
(283,583,l),
(450,537,l)
);
},
{
closed = 1;
nodes = (
(452,573,l),
(402,573,l),
(401,400,l),
(451,399,l)
);
}
);
width = 506;
}
);
note = q;
unicode = 113;
},
{
glyphname = r;
lastChange = "2023-05-12 18:35:52 +0000";
layers = (
{
layerId = m01;
shapes = (
{
closed = 1;
nodes = (
(190,548,l),
(178,570,l),
(102,527,l),
(114,505,l)
);
},
{
closed = 1;
nodes = (
(55,-5,l),
(55,82,l),
(30,82,l),
(30,-5,l)
);
},
{
closed = 1;
nodes = (
(129,0,l),
(129,25,l),
(42,25,l),
(42,0,l)
);
},
{
closed = 1;
nodes = (
(55,65,l),
(55,152,l),
(30,152,l),
(30,65,l)
);
},
{
closed = 1;
nodes = (
(153,-16,l),
(153,71,l),
(127,71,l),
(127,-16,l)
);
},
{
closed = 1;
nodes = (
(55,134,l),
(55,221,l),
(30,221,l),
(30,134,l)
);
},
{
closed = 1;
nodes = (
(153,54,l),
(153,141,l),
(127,141,l),
(127,54,l)
);
},
{
closed = 1;
nodes = (
(55,204,l),
(55,291,l),
(30,291,l),
(30,204,l)
);
},
{
closed = 1;
nodes = (
(153,123,l),
(153,210,l),
(127,210,l),
(127,123,l)
);
},
{
closed = 1;
nodes = (
(55,273,l),
(55,360,l),
(30,360,l),
(30,273,l)
);
},
{
closed = 1;
nodes = (
(153,193,l),
(153,279,l),
(127,279,l),
(127,193,l)
);
},
{
closed = 1;
nodes = (
(55,343,l),
(55,430,l),
(30,430,l),
(30,343,l)
);
},
{
closed = 1;
nodes = (
(153,262,l),
(153,349,l),
(127,349,l),
(127,262,l)
);
},
{
closed = 1;
nodes = (
(55,412,l),
(55,499,l),
(30,499,l),
(30,412,l)
);
},
{
closed = 1;
nodes = (
(153,332,l),
(153,418,l),
(127,418,l),
(127,332,l)
);
},
{
closed = 1;
nodes = (
(55,482,l),
(55,569,l),
(30,569,l),
(30,482,l)
);
},
{
closed = 1;
nodes = (
(205,441,l),
(194,463,l),
(117,422,l),
(129,400,l)
);
},
{
closed = 1;
nodes = (
(55,551,l),
(55,638,l),
(30,638,l),
(30,551,l)
);
},
{
closed = 1;
nodes = (
(302,426,l),
(294,450,l),
(212,420,l),
(221,397,l)
);
},
{
closed = 1;
nodes = (
(267,474,l),
(255,496,l),
(178,455,l),
(190,433,l)
);
},
{
closed = 1;
nodes = (
(134,604,l),
(134,629,l),
(47,629,l),
(47,604,l)
);
},
{
closed = 1;
nodes = (
(153,553,l),
(153,640,l),
(127,640,l),
(127,553,l)
);
},
{
closed = 1;
nodes = (
(230,582,l),
(221,605,l),
(140,576,l),
(148,552,l)
);
},
{
closed = 1;
nodes = (
(368,450,l),
(359,474,l),
(278,444,l),
(286,420,l)
);
},
{
closed = 1;
nodes = (
(340,469,l),
(311,551,l),
(287,543,l),
(316,461,l)
);
},
{
closed = 1;
nodes = (
(295,605,l),
(287,628,l),
(205,599,l),
(213,576,l)
);
},
{
closed = 1;
nodes = (
(316,535,l),
(287,617,l),
(264,608,l),
(293,527,l)
);
}
);
width = 368;
},
{
background = {
shapes = (
{
closed = 1;
nodes = (
(120,529,l),
(271,614,l),
(296,570,l),
(144,485,l)
);
},
{
closed = 1;
nodes = (
(65,603,l),
(239,603,l),
(239,654,l),
(65,654,l)
);
},
{
closed = 1;
nodes = (
(79,451,l),
(129,451,l),
(129,624,l),
(79,624,l)
);
},
{
closed = 1;
nodes = (
(79,312,l),
(129,312,l),
(129,485,l),
(79,485,l)
);
},
{
closed = 1;
nodes = (
(79,173,l),
(129,173,l),
(129,346,l),
(79,346,l)
);
},
{
closed = 1;
nodes = (
(79,34,l),
(129,34,l),
(129,207,l),
(79,207,l)
);
},
{
closed = 1;
nodes = (
(60,0,l),
(234,0,l),
(234,50,l),
(60,50,l)
);
},
{
closed = 1;
nodes = (
(176,22,l),
(226,22,l),
(226,196,l),
(176,196,l)
);
},
{
closed = 1;
nodes = (
(176,161,l),
(226,161,l),
(226,335,l),
(176,335,l)
);
},
{
closed = 1;
nodes = (
(176,300,l),
(226,300,l),
(226,474,l),
(176,474,l)
);
},
{
closed = 1;
nodes = (
(372,495,l),
(219,414,l),
(196,458,l),
(349,539,l)
);
},
{
closed = 1;
nodes = (
(294,453,l),
(311,406,l),
(474,466,l),
(457,513,l)
);
},
{
closed = 1;
nodes = (
(346,674,l),
(299,657,l),
(357,494,l),
(404,510,l)
);
},
{
closed = 1;
nodes = (
(156,585,l),
(319,644,l),
(336,596,l),
(173,538,l)
);
}
);
};
layerId = "BE691341-D8A5-4739-82E3-AB614D387AD5";
shapes = (
{
closed = 1;
nodes = (
(296,570,l),
(271,614,l),
(120,529,l),
(144,485,l)
);
},
{
closed = 1;
nodes = (
(129,34,l),
(129,207,l),
(79,207,l),
(79,34,l)
);
},
{
closed = 1;
nodes = (
(234,0,l),
(234,50,l),
(60,50,l),
(60,0,l)
);
},
{
closed = 1;
nodes = (
(129,34,l),
(129,207,l),
(79,207,l),
(79,34,l)
);
},
{
closed = 1;
nodes = (
(60,0,l),
(234,0,l),
(234,50,l),
(60,50,l)
);
},
{
closed = 1;
nodes = (
(129,34,l),
(129,207,l),
(79,207,l),
(79,34,l)
);
},
{
closed = 1;
nodes = (
(226,22,l),
(226,196,l),
(176,196,l),
(176,22,l)
);
},
{
closed = 1;
nodes = (
(129,173,l),
(129,346,l),
(79,346,l),
(79,173,l)
);
},
{
closed = 1;
nodes = (
(226,22,l),
(226,196,l),
(176,196,l),
(176,22,l)
);
},
{
closed = 1;
nodes = (
(129,173,l),
(129,346,l),
(79,346,l),
(79,173,l)
);
},
{
closed = 1;
nodes = (
(226,161,l),
(226,335,l),
(176,335,l),
(176,161,l)
);
},
{
closed = 1;
nodes = (
(129,312,l),
(129,485,l),
(79,485,l),
(79,312,l)
);
},
{
closed = 1;
nodes = (
(226,161,l),
(226,335,l),
(176,335,l),
(176,161,l)
);
},
{
closed = 1;
nodes = (
(129,312,l),
(129,485,l),
(79,485,l),
(79,312,l)
);
},
{
closed = 1;
nodes = (
(226,300,l),
(226,474,l),
(176,474,l),
(176,300,l)
);
},
{
closed = 1;
nodes = (
(129,451,l),
(129,624,l),
(79,624,l),
(79,451,l)
);
},
{
closed = 1;
nodes = (
(372,495,l),
(349,539,l),
(196,458,l),
(219,414,l)
);
},
{
closed = 1;
nodes = (
(129,451,l),
(129,624,l),
(79,624,l),
(79,451,l)
);
},
{
closed = 1;
nodes = (
(474,466,l),
(457,513,l),
(294,453,l),
(311,406,l)
);
},
{
closed = 1;
nodes = (
(372,495,l),
(349,539,l),
(196,458,l),
(219,414,l)
);
},
{
closed = 1;
nodes = (
(239,603,l),
(239,654,l),
(65,654,l),
(65,603,l)
);
},
{
closed = 1;
nodes = (
(65,603,l),
(239,603,l),
(239,654,l),
(65,654,l)
);
},
{
closed = 1;
nodes = (
(336,596,l),
(319,644,l),
(156,585,l),
(173,538,l)
);
},
{
closed = 1;
nodes = (
(474,466,l),
(457,513,l),
(294,453,l),
(311,406,l)
);
},
{
closed = 1;
nodes = (
(404,510,l),
(346,674,l),
(299,657,l),
(357,494,l)
);
},
{
closed = 1;
nodes = (
(336,596,l),
(319,644,l),
(156,585,l),
(173,538,l)
);
},
{
closed = 1;
nodes = (
(404,510,l),
(346,674,l),
(299,657,l),
(357,494,l)
);
}
);
width = 474;
}
);
note = r;
unicode = 114;
},
{
glyphname = s;
lastChange = "2023-05-12 18:37:10 +0000";
layers = (
{
layerId = m01;
shapes = (
{
closed = 1;
nodes = (
(294,383,l),
(235,448,l),
(217,431,l),
(275,366,l)
);
},
{
closed = 1;
nodes = (
(236,-11,l),
(189,62,l),
(168,49,l),
(215,-25,l)
);
},
{
closed = 1;
nodes = (
(199,47,l),
(152,121,l),
(131,107,l),
(178,34,l)
);
},
{
closed = 1;
nodes = (
(297,14,l),
(210,25,l),
(207,0,l),
(293,-11,l)
);
},
{
closed = 1;
nodes = (
(186,146,l),
(173,167,l),
(100,119,l),
(113,98,l)
);
},
{
closed = 1;
nodes = (
(366,5,l),
(279,16,l),
(276,-9,l),
(362,-20,l)
);
},
{
closed = 1;
nodes = (
(245,183,l),
(231,204,l),
(158,157,l),
(172,136,l)
);
},
{
closed = 1;
nodes = (
(277,99,l),
(230,172,l),
(209,159,l),
(256,86,l)
);
},
{
closed = 1;
nodes = (
(434,-4,l),
(348,7,l),
(345,-18,l),
(431,-29,l)
);
},
{
closed = 1;
nodes = (
(342,103,l),
(256,115,l),
(252,90,l),
(338,78,l)
);
},
{
closed = 1;
nodes = (
(469,32,l),
(444,35,l),
(432,-51,l),
(457,-54,l)
);
},
{
closed = 1;
nodes = (
(381,139,l),
(357,146,l),
(333,62,l),
(357,55,l)
);
},
{
closed = 1;
nodes = (
(299,233,l),
(242,299,l),
(223,283,l),
(280,217,l)
);
},
{
closed = 1;
nodes = (
(479,101,l),
(454,104,l),
(442,18,l),
(467,15,l)
);
},
{
closed = 1;
nodes = (
(253,286,l),
(196,352,l),
(177,335,l),
(234,269,l)
);
},
{
closed = 1;
nodes = (
(208,338,l),
(151,404,l),
(132,388,l),
(189,322,l)
);
},
{
closed = 1;
nodes = (
(401,206,l),
(377,213,l),
(352,129,l),
(376,122,l)
);
},
{
closed = 1;
nodes = (
(172,443,l),
(152,458,l),
(100,389,l),
(120,374,l)
);
},
{
closed = 1;
nodes = (
(484,153,l),
(460,160,l),
(435,77,l),
(459,70,l)
);
},
{
closed = 1;
nodes = (
(358,250,l),
(286,298,l),
(272,277,l),
(345,229,l)
);
},
{
closed = 1;
nodes = (
(416,212,l),
(344,260,l),
(330,239,l),
(403,191,l)
);
},
{
closed = 1;
nodes = (
(214,498,l),
(194,513,l),
(142,444,l),
(162,429,l)
);
},
{
closed = 1;
nodes = (
(336,387,l),
(315,401,l),
(267,329,l),
(288,315,l)
);
},
{
closed = 1;
nodes = (
(504,219,l),
(480,227,l),
(455,143,l),
(479,136,l)
);
},
{
closed = 1;
nodes = (
(398,336,l),
(325,382,l),
(311,361,l),
(384,315,l)
);
},
{
closed = 1;
nodes = (
(456,298,l),
(383,345,l),
(370,324,l),
(443,277,l)
);
},
{
closed = 1;
nodes = (
(468,316,l),
(385,342,l),
(378,318,l),
(460,292,l)
);
},
{
closed = 1;
nodes = (
(525,284,l),
(501,292,l),
(474,209,l),
(498,201,l)
);
},
{
closed = 1;
nodes = (
(342,451,l),
(334,475,l),
(252,448,l),
(259,424,l)
);
},
{
closed = 1;
nodes = (
(263,540,l),
(249,561,l),
(177,513,l),
(191,492,l)
);
},
{
closed = 1;
nodes = (
(534,295,l),
(451,321,l),
(444,297,l),
(527,271,l)
);
},
{
closed = 1;
nodes = (
(369,497,l),
(344,500,l),
(331,415,l),
(356,411,l)
);
},
{
closed = 1;
nodes = (
(331,543,l),
(325,568,l),
(241,547,l),
(247,523,l)
);
},
{
closed = 1;
nodes = (
(446,436,l),
(361,451,l),
(356,427,l),
(442,412,l)
);
},
{
closed = 1;
nodes = (
(465,495,l),
(440,499,l),
(425,414,l),
(450,410,l)
);
},
{
closed = 1;
nodes = (
(399,560,l),
(393,584,l),
(309,563,l),
(315,539,l)
);
},
{
closed = 1;
nodes = (
(476,564,l),
(452,568,l),
(437,482,l),
(462,478,l)
);
},
{
closed = 1;
nodes = (
(437,603,l),
(352,618,l),
(348,594,l),
(433,578,l)
);
},
{
closed = 1;
nodes = (
(506,591,l),
(420,606,l),
(416,581,l),
(501,566,l)
);
}
);
width = 604;
},
{
background = {
shapes = (
{
closed = 1;
nodes = (
(266,343,l),
(429,403,l),
(447,356,l),
(284,296,l)
);
},
{
closed = 1;
nodes = (
(176,338,l),
(273,482,l),
(314,455,l),
(218,310,l)
);
},
{
closed = 1;
nodes = (
(331,491,l),
(166,437,l),
(150,485,l),
(315,539,l)
);
},
{
closed = 1;
nodes = (
(426,430,l),
(255,460,l),
(264,510,l),
(435,479,l)
);
},
{
closed = 1;
nodes = (
(440,643,l),
(410,472,l),
(361,480,l),
(390,651,l)
);
},
{
closed = 1;
nodes = (
(255,677,l),
(246,627,l),
(417,597,l),
(426,646,l)
);
},
{
closed = 1;
nodes = (
(140,587,l),
(308,629,l),
(320,580,l),
(152,538,l)
);
},
{
closed = 1;
nodes = (
(49,456,l),
(154,594,l),
(194,564,l),
(89,425,l)
);
},
{
closed = 1;
nodes = (
(151,319,l),
(38,451,l),
(75,483,l),
(189,352,l)
);
},
{
closed = 1;
nodes = (
(243,214,l),
(129,346,l),
(167,378,l),
(280,247,l)
);
},
{
closed = 1;
nodes = (
(376,196,l),
(230,291,l),
(258,333,l),
(403,238,l)
);
},
{
closed = 1;
nodes = (
(253,63,l),
(301,229,l),
(349,215,l),
(301,49,l)
);
},
{
closed = 1;
nodes = (
(160,254,l),
(255,108,l),
(213,81,l),
(118,227,l)
);
},
{
closed = 1;
nodes = (
(0,145,l),
(27,103,l),
(173,197,l),
(146,239,l)
);
},
{
closed = 1;
nodes = (
(171,-30,l),
(78,117,l),
(120,144,l),
(214,-3,l)
);
},
{
closed = 1;
nodes = (
(347,0,l),
(175,23,l),
(182,72,l),
(354,50,l)
);
},
{
closed = 1;
nodes = (
(357,-53,l),
(407,-61,l),
(431,111,l),
(382,119,l)
);
},
{
closed = 1;
nodes = (
(452,229,l),
(403,63,l),
(355,77,l),
(404,243,l)
);
},
{
closed = 1;
nodes = (
(392,210,l),
(440,195,l),
(494,360,l),
(446,375,l)
);
},
{
closed = 1;
nodes = (
(291,405,l),
(457,353,l),
(442,305,l),
(276,358,l)
);
}
);
};
layerId = "BE691341-D8A5-4739-82E3-AB614D387AD5";
shapes = (
{
closed = 1;
nodes = (
(315,539,l),
(150,485,l),
(166,437,l),
(331,491,l)
);
},
{
closed = 1;
nodes = (
(214,-3,l),
(120,144,l),
(78,117,l),
(171,-30,l)
);
},
{
closed = 1;
nodes = (
(214,-3,l),
(120,144,l),
(78,117,l),
(171,-30,l)
);
},
{
closed = 1;
nodes = (
(354,50,l),
(182,72,l),
(175,23,l),
(347,0,l)
);
},
{
closed = 1;
nodes = (
(173,197,l),
(146,239,l),
(0,145,l),
(27,103,l)
);
},
{
closed = 1;
nodes = (
(354,50,l),
(182,72,l),
(175,23,l),
(347,0,l)
);
},
{
closed = 1;
nodes = (
(173,197,l),
(146,239,l),
(0,145,l),
(27,103,l)
);
},
{
closed = 1;
nodes = (
(255,108,l),
(160,254,l),
(118,227,l),
(213,81,l)
);
},
{
closed = 1;
nodes = (
(354,50,l),
(182,72,l),
(175,23,l),
(347,0,l)
);
},
{
closed = 1;
nodes = (
(255,108,l),
(160,254,l),
(118,227,l),
(213,81,l)
);
},
{
closed = 1;
nodes = (
(431,111,l),
(382,119,l),
(357,-53,l),
(407,-61,l)
);
},
{
closed = 1;
nodes = (
(349,215,l),
(301,229,l),
(253,63,l),
(301,49,l)
);
},
{
closed = 1;
nodes = (
(280,247,l),
(167,378,l),
(129,346,l),
(243,214,l)
);
},
{
closed = 1;
nodes = (
(452,229,l),
(404,243,l),
(355,77,l),
(403,63,l)
);
},
{
closed = 1;
nodes = (
(189,352,l),
(75,483,l),
(38,451,l),
(151,319,l)
);
},
{
closed = 1;
nodes = (
(189,352,l),
(75,483,l),
(38,451,l),
(151,319,l)
);
},
{
closed = 1;
nodes = (
(349,215,l),
(301,229,l),
(253,63,l),
(301,49,l)
);
},
{
closed = 1;
nodes = (
(194,564,l),
(154,594,l),
(49,456,l),
(89,425,l)
);
},
{
closed = 1;
nodes = (
(452,229,l),
(404,243,l),
(355,77,l),
(403,63,l)
);
},
{
closed = 1;
nodes = (
(403,238,l),
(258,333,l),
(230,291,l),
(376,196,l)
);
},
{
closed = 1;
nodes = (
(403,238,l),
(258,333,l),
(230,291,l),
(376,196,l)
);
},
{
closed = 1;
nodes = (
(194,564,l),
(154,594,l),
(49,456,l),
(89,425,l)
);
},
{
closed = 1;
nodes = (
(314,455,l),
(273,482,l),
(176,338,l),
(218,310,l)
);
},
{
closed = 1;
nodes = (
(494,360,l),
(446,375,l),
(392,210,l),
(440,195,l)
);
},
{
closed = 1;
nodes = (
(457,353,l),
(291,405,l),
(276,358,l),
(442,305,l)
);
},
{
closed = 1;
nodes = (
(429,403,l),
(266,343,l),
(284,296,l),
(447,356,l)
);
},
{
closed = 1;
nodes = (
(457,353,l),
(291,405,l),
(276,358,l),
(442,305,l)
);
},
{
closed = 1;
nodes = (
(494,360,l),
(446,375,l),
(392,210,l),
(440,195,l)
);
},
{
closed = 1;
nodes = (
(331,491,l),
(315,539,l),
(150,485,l),
(166,437,l)
);
},
{
closed = 1;
nodes = (
(320,580,l),
(308,629,l),
(140,587,l),
(152,538,l)
);
},
{
closed = 1;
nodes = (
(429,403,l),
(266,343,l),
(284,296,l),
(447,356,l)
);
},
{
closed = 1;
nodes = (
(426,430,l),
(435,479,l),
(264,510,l),
(255,460,l)
);
},
{
closed = 1;
nodes = (
(320,580,l),
(308,629,l),
(140,587,l),
(152,538,l)
);
},
{
closed = 1;
nodes = (
(435,479,l),
(264,510,l),
(255,460,l),
(426,430,l)
);
},
{
closed = 1;
nodes = (
(440,643,l),
(390,651,l),
(361,480,l),
(410,472,l)
);
},
{
closed = 1;
nodes = (
(417,597,l),
(426,646,l),
(255,677,l),
(246,627,l)
);
},
{
closed = 1;
nodes = (
(440,643,l),
(390,651,l),
(361,480,l),
(410,472,l)
);
},
{
closed = 1;
nodes = (
(426,646,l),
(255,677,l),
(246,627,l),
(417,597,l)
);
},
{
closed = 1;
nodes = (
(426,646,l),
(255,677,l),
(246,627,l),
(417,597,l)
);
}
);
width = 524;
}
);
note = s;
unicode = 115;
},
{
glyphname = t;
lastChange = "2023-05-12 18:34:59 +0000";
layers = (
{
layerId = m01;
shapes = (
{
closed = 1;
nodes = (
(321,38,l),
(303,55,l),
(242,-6,l),
(260,-24,l)
);
},
{
closed = 1;
nodes = (
(192,4,l),
(192,91,l),
(167,91,l),
(167,4,l)
);
},
{
closed = 1;
nodes = (
(258,0,l),
(258,25,l),
(171,25,l),
(171,0,l)
);
},
{
closed = 1;
nodes = (
(192,74,l),
(192,160,l),
(167,160,l),
(167,74,l)
);
},
{
closed = 1;
nodes = (
(192,143,l),
(192,230,l),
(167,230,l),
(167,143,l)
);
},
{
closed = 1;
nodes = (
(294,42,l),
(294,129,l),
(269,129,l),
(269,42,l)
);
},
{
closed = 1;
nodes = (
(192,213,l),
(192,299,l),
(167,299,l),
(167,213,l)
);
},
{
closed = 1;
nodes = (
(294,111,l),
(294,198,l),
(269,198,l),
(269,111,l)
);
},
{
closed = 1;
nodes = (
(192,282,l),
(192,369,l),
(167,369,l),
(167,282,l)
);
},
{
closed = 1;
nodes = (
(294,181,l),
(294,268,l),
(269,268,l),
(269,181,l)
);
},
{
closed = 1;
nodes = (
(126,449,l),
(39,450,l),
(39,425,l),
(126,424,l)
);
},
{
closed = 1;
nodes = (
(72,440,l),
(73,527,l),
(47,527,l),
(47,440,l)
);
},
{
closed = 1;
nodes = (
(192,351,l),
(192,438,l),
(167,438,l),
(167,351,l)
);
},
{
closed = 1;
nodes = (
(294,250,l),
(294,337,l),
(269,337,l),
(269,250,l)
);
},
{
closed = 1;
nodes = (
(195,424,l),
(195,449,l),
(108,449,l),
(108,424,l)
);
},
{
closed = 1;
nodes = (
(117,527,l),
(117,552,l),
(30,552,l),
(30,527,l)
);
},
{
closed = 1;
nodes = (
(294,320,l),
(294,407,l),
(269,407,l),
(269,320,l)
);
},
{
closed = 1;
nodes = (
(186,527,l),
(186,552,l),
(100,552,l),
(100,527,l)
);
},
{
closed = 1;
nodes = (
(294,389,l),
(294,476,l),
(269,476,l),
(269,389,l)
);
},
{
closed = 1;
nodes = (
(192,529,l),
(192,616,l),
(167,616,l),
(167,529,l)
);
},
{
closed = 1;
nodes = (
(345,408,l),
(345,495,l),
(320,495,l),
(320,408,l)
);
},
{
closed = 1;
nodes = (
(192,598,l),
(192,685,l),
(167,685,l),
(167,598,l)
);
},
{
closed = 1;
nodes = (
(326,560,l),
(316,583,l),
(237,548,l),
(247,525,l)
);
},
{
closed = 1;
nodes = (
(294,521,l),
(294,608,l),
(269,608,l),
(269,521,l)
);
},
{
closed = 1;
nodes = (
(425,496,l),
(415,519,l),
(335,484,l),
(345,461,l)
);
},
{
closed = 1;
nodes = (
(278,644,l),
(278,669,l),
(191,669,l),
(191,644,l)
);
},
{
closed = 1;
nodes = (
(294,590,l),
(294,677,l),
(269,677,l),
(269,590,l)
);
},
{
closed = 1;
nodes = (
(390,589,l),
(379,612,l),
(300,576,l),
(310,553,l)
);
},
{
closed = 1;
nodes = (
(457,490,l),
(421,569,l),
(399,559,l),
(434,479,l)
);
},
{
closed = 1;
nodes = (
(429,553,l),
(393,632,l),
(370,622,l),
(406,543,l)
);
}
);
width = 507;
},
{
background = {
shapes = (
{
closed = 1;
nodes = (
(253,586,l),
(303,586,l),
(303,760,l),
(253,760,l)
);
},
{
closed = 1;
nodes = (
(151,595,l),
(202,595,l),
(202,768,l),
(151,768,l)
);
},
{
closed = 1;
nodes = (
(53,554,l),
(226,554,l),
(226,604,l),
(53,604,l)
);
},
{
closed = 1;
nodes = (
(30,437,l),
(80,436,l),
(82,610,l),
(32,610,l)
);
},
{
closed = 1;
nodes = (
(235,450,l),
(61,452,l),
(62,502,l),
(235,500,l)
);
},
{
closed = 1;
nodes = (
(151,278,l),
(202,278,l),
(202,452,l),
(151,452,l)
);
},
{
closed = 1;
nodes = (
(151,139,l),
(202,139,l),
(202,313,l),
(151,313,l)
);
},
{
closed = 1;
nodes = (
(151,0,l),
(202,0,l),
(202,174,l),
(151,174,l)
);
},
{
closed = 1;
nodes = (
(199,12,l),
(234,-24,l),
(357,99,l),
(322,135,l)
);
},
{
closed = 1;
nodes = (
(253,108,l),
(303,108,l),
(303,281,l),
(253,281,l)
);
},
{
closed = 1;
nodes = (
(253,247,l),
(303,247,l),
(303,420,l),
(253,420,l)
);
},
{
closed = 1;
nodes = (
(253,386,l),
(303,386,l),
(303,559,l),
(253,559,l)
);
},
{
closed = 1;
nodes = (
(287,517,l),
(307,471,l),
(466,542,l),
(466,542,l),
(446,588,l)
);
},
{
closed = 1;
nodes = (
(383,717,l),
(454,558,l),
(409,538,l),
(337,696,l)
);
},
{
closed = 1;
nodes = (
(189,581,l),
(347,652,l),
(368,606,l),
(209,535,l)
);
}
);
};
layerId = "BE691341-D8A5-4739-82E3-AB614D387AD5";
shapes = (
{
closed = 1;
nodes = (
(357,99,l),
(322,135,l),
(199,12,l),
(234,-24,l)
);
},
{
closed = 1;
nodes = (
(202,0,l),
(202,174,l),
(151,174,l),
(151,0,l)
);
},
{
closed = 1;
nodes = (
(202,174,l),
(151,174,l),
(151,0,l),
(202,0,l)
);
},
{
closed = 1;
nodes = (
(202,0,l),
(202,174,l),
(151,174,l),
(151,0,l)
);
},
{
closed = 1;
nodes = (
(202,139,l),
(202,313,l),
(151,313,l),
(151,139,l)
);
},
{
closed = 1;
nodes = (
(234,-24,l),
(357,99,l),
(322,135,l),
(199,12,l)
);
},
{
closed = 1;
nodes = (
(202,139,l),
(202,313,l),
(151,313,l),
(151,139,l)
);
},
{
closed = 1;
nodes = (
(303,108,l),
(303,281,l),
(253,281,l),
(253,108,l)
);
},
{
closed = 1;
nodes = (
(202,278,l),
(202,452,l),
(151,452,l),
(151,278,l)
);
},
{
closed = 1;
nodes = (
(303,108,l),
(303,281,l),
(253,281,l),
(253,108,l)
);
},
{
closed = 1;
nodes = (
(235,500,l),
(62,502,l),
(61,452,l),
(235,450,l)
);
},
{
closed = 1;
nodes = (
(80,436,l),
(82,610,l),
(32,610,l),
(30,437,l)
);
},
{
closed = 1;
nodes = (
(202,278,l),
(202,452,l),
(151,452,l),
(151,278,l)
);
},
{
closed = 1;
nodes = (
(303,247,l),
(303,420,l),
(253,420,l),
(253,247,l)
);
},
{
closed = 1;
nodes = (
(235,450,l),
(235,500,l),
(62,502,l),
(61,452,l)
);
},
{
closed = 1;
nodes = (
(226,554,l),
(226,604,l),
(53,604,l),
(53,554,l)
);
},
{
closed = 1;
nodes = (
(303,247,l),
(303,420,l),
(253,420,l),
(253,247,l)
);
},
{
closed = 1;
nodes = (
(226,554,l),
(226,604,l),
(53,604,l),
(53,554,l)
);
},
{
closed = 1;
nodes = (
(303,386,l),
(303,559,l),
(253,559,l),
(253,386,l)
);
},
{
closed = 1;
nodes = (
(53,554,l),
(226,554,l),
(226,604,l),
(53,604,l)
);
},
{
closed = 1;
nodes = (
(307,471,l),
(466,542,l),
(446,588,l),
(287,517,l)
);
},
{
closed = 1;
nodes = (
(202,595,l),
(202,768,l),
(151,768,l),
(151,595,l)
);
},
{
closed = 1;
nodes = (
(368,606,l),
(347,652,l),
(189,581,l),
(209,535,l)
);
},
{
closed = 1;
nodes = (
(303,386,l),
(303,559,l),
(253,559,l),
(253,386,l)
);
},
{
closed = 1;
nodes = (
(466,542,l),
(446,588,l),
(287,517,l),
(307,471,l)
);
},
{
closed = 1;
nodes = (
(253,586,l),
(303,586,l),
(303,760,l),
(253,760,l)
);
},
{
closed = 1;
nodes = (
(303,586,l),
(303,760,l),
(253,760,l),
(253,586,l)
);
},
{
closed = 1;
nodes = (
(368,606,l),
(347,652,l),
(189,581,l),
(209,535,l)
);
},
{
closed = 1;
nodes = (
(454,558,l),
(383,717,l),
(337,696,l),
(409,538,l)
);
},
{
closed = 1;
nodes = (
(454,558,l),
(383,717,l),
(337,696,l),
(409,538,l)
);
}
);
width = 496;
}
);
note = t;
unicode = 116;
},
{
glyphname = u;
lastChange = "2023-05-10 23:45:32 +0000";
layers = (
{
layerId = m01;
shapes = (
{
closed = 1;
nodes = (
(341,540,l),
(323,558,l),
(262,497,l),
(280,479,l)
);
},
{
closed = 1;
nodes = (
(117,10,l),
(117,35,l),
(30,35,l),
(30,10,l)
);
},
{
closed = 1;
nodes = (
(66,29,l),
(66,116,l),
(41,116,l),
(41,29,l)
);
},
{
closed = 1;
nodes = (
(151,-37,l),
(127,46,l),
(103,39,l),
(127,-44,l)
);
},
{
closed = 1;
nodes = (
(219,-17,l),
(212,8,l),
(128,-16,l),
(135,-40,l)
);
},
{
closed = 1;
nodes = (
(66,98,l),
(66,185,l),
(41,185,l),
(41,98,l)
);
},
{
closed = 1;
nodes = (
(161,48,l),
(161,135,l),
(136,135,l),
(136,48,l)
);
},
{
closed = 1;
nodes = (
(286,2,l),
(279,26,l),
(195,3,l),
(202,-21,l)
);
},
{
closed = 1;
nodes = (
(66,168,l),
(66,254,l),
(41,254,l),
(41,168,l)
);
},
{
closed = 1;
nodes = (
(243,87,l),
(236,111,l),
(152,88,l),
(159,63,l)
);
},
{
closed = 1;
nodes = (
(161,117,l),
(161,204,l),
(136,204,l),
(136,117,l)
);
},
{
closed = 1;
nodes = (
(352,0,l),
(352,25,l),
(265,25,l),
(265,0,l)
);
},
{
closed = 1;
nodes = (
(66,237,l),
(66,324,l),
(41,324,l),
(41,237,l)
);
},
{
closed = 1;
nodes = (
(294,143,l),
(274,159,l),
(221,91,l),
(240,75,l)
);
},
{
closed = 1;
nodes = (
(161,187,l),
(161,274,l),
(136,274,l),
(136,187,l)
);
},
{
closed = 1;
nodes = (
(422,0,l),
(422,25,l),
(335,25,l),
(335,0,l)
);
},
{
closed = 1;
nodes = (
(66,307,l),
(66,393,l),
(41,393,l),
(41,307,l)
);
},
{
closed = 1;
nodes = (
(161,256,l),
(161,343,l),
(136,343,l),
(136,256,l)
);
},
{
closed = 1;
nodes = (
(439,-10,l),
(439,77,l),
(414,77,l),
(414,-10,l)
);
},
{
closed = 1;
nodes = (
(327,208,l),
(303,217,l),
(274,135,l),
(298,126,l)
);
},
{
closed = 1;
nodes = (
(66,376,l),
(66,463,l),
(41,463,l),
(41,376,l)
);
},
{
closed = 1;
nodes = (
(411,139,l),
(391,155,l),
(338,86,l),
(358,71,l)
);
},
{
closed = 1;
nodes = (
(161,326,l),
(161,413,l),
(136,413,l),
(136,326,l)
);
},
{
closed = 1;
nodes = (
(439,60,l),
(439,147,l),
(414,147,l),
(414,60,l)
);
},
{
closed = 1;
nodes = (
(314,197,l),
(314,284,l),
(289,284,l),
(289,197,l)
);
},
{
closed = 1;
nodes = (
(66,446,l),
(66,532,l),
(41,532,l),
(41,446,l)
);
},
{
closed = 1;
nodes = (
(454,194,l),
(434,210,l),
(381,141,l),
(400,126,l)
);
},
{
closed = 1;
nodes = (
(161,395,l),
(161,482,l),
(136,482,l),
(136,395,l)
);
},
{
closed = 1;
nodes = (
(407,160,l),
(407,247,l),
(382,247,l),
(382,160,l)
);
},
{
closed = 1;
nodes = (
(314,267,l),
(314,354,l),
(289,354,l),
(289,267,l)
);
},
{
closed = 1;
nodes = (
(135,508,l),
(135,533,l),
(48,533,l),
(48,508,l)
);
},
{
closed = 1;
nodes = (
(161,465,l),
(161,552,l),
(136,552,l),
(136,465,l)
);
},
{
closed = 1;
nodes = (
(407,230,l),
(407,317,l),
(382,317,l),
(382,230,l)
);
},
{
closed = 1;
nodes = (
(314,336,l),
(314,423,l),
(289,423,l),
(289,336,l)
);
},
{
closed = 1;
nodes = (
(407,299,l),
(407,386,l),
(382,386,l),
(382,299,l)
);
},
{
closed = 1;
nodes = (
(314,406,l),
(314,493,l),
(289,493,l),
(289,406,l)
);
},
{
closed = 1;
nodes = (
(407,369,l),
(407,455,l),
(382,455,l),
(382,369,l)
);
},
{
closed = 1;
nodes = (
(407,438,l),
(407,525,l),
(382,525,l),
(382,438,l)
);
},
{
closed = 1;
nodes = (
(410,510,l),
(410,535,l),
(323,535,l),
(323,510,l)
);
}
);
width = 484;
},
{
background = {
shapes = (
{
closed = 1;
nodes = (
(371,129,l),
(421,129,l),
(421,303,l),
(371,303,l)
);
},
{
closed = 1;
nodes = (
(371,268,l),
(421,268,l),
(421,442,l),
(371,442,l)
);
},
{
closed = 1;
nodes = (
(371,407,l),
(421,407,l),
(421,581,l),
(371,581,l)
);
},
{
closed = 1;
nodes = (
(346,610,l),
(224,487,l),
(259,452,l),
(382,575,l)
);
},
{
closed = 1;
nodes = (
(278,305,l),
(328,305,l),
(328,479,l),
(278,479,l)
);
},
{
closed = 1;
nodes = (
(278,166,l),
(328,166,l),
(328,340,l),
(278,340,l)
);
},
{
closed = 1;
nodes = (
(185,77,l),
(293,213,l),
(332,182,l),
(225,46,l)
);
},
{
closed = 1;
nodes = (
(124,17,l),
(175,17,l),
(175,190,l),
(124,190,l)
);
},
{
closed = 1;
nodes = (
(124,156,l),
(175,156,l),
(175,329,l),
(124,329,l)
);
},
{
closed = 1;
nodes = (
(124,295,l),
(175,295,l),
(175,468,l),
(124,468,l)
);
},
{
closed = 1;
nodes = (
(124,434,l),
(175,434,l),
(175,607,l),
(124,607,l)
);
},
{
closed = 1;
nodes = (
(30,415,l),
(80,415,l),
(80,588,l),
(30,588,l)
);
},
{
closed = 1;
nodes = (
(30,276,l),
(80,276,l),
(80,449,l),
(30,449,l)
);
},
{
closed = 1;
nodes = (
(30,137,l),
(80,137,l),
(80,310,l),
(30,310,l)
);
},
{
closed = 1;
nodes = (
(30,-2,l),
(80,-2,l),
(80,171,l),
(30,171,l)
);
},
{
closed = 1;
nodes = (
(80,90,l),
(128,-77,l),
(176,-63,l),
(128,104,l)
);
},
{
closed = 1;
nodes = (
(332,14,l),
(165,-33,l),
(151,15,l),
(319,63,l)
);
},
{
closed = 1;
nodes = (
(293,0,l),
(466,0,l),
(466,50,l),
(293,50,l)
);
},
{
closed = 1;
nodes = (
(403,29,l),
(453,29,l),
(453,202,l),
(403,202,l)
);
},
{
closed = 1;
nodes = (
(345,127,l),
(385,96,l),
(491,233,l),
(452,264,l)
);
}
);
};
layerId = "BE691341-D8A5-4739-82E3-AB614D387AD5";
shapes = (
{
closed = 1;
nodes = (
(382,575,l),
(346,610,l),
(224,487,l),
(259,452,l)
);
},
{
closed = 1;
nodes = (
(80,171,l),
(30,171,l),
(30,-2,l),
(80,-2,l)
);
},
{
closed = 1;
nodes = (
(80,-2,l),
(80,171,l),
(30,171,l),
(30,-2,l)
);
},
{
closed = 1;
nodes = (
(176,-63,l),
(128,104,l),
(80,90,l),
(128,-77,l)
);
},
{
closed = 1;
nodes = (
(332,14,l),
(319,63,l),
(151,15,l),
(165,-33,l)
);
},
{
closed = 1;
nodes = (
(80,-2,l),
(80,171,l),
(30,171,l),
(30,-2,l)
);
},
{
closed = 1;
nodes = (
(175,17,l),
(175,190,l),
(124,190,l),
(124,17,l)
);
},
{
closed = 1;
nodes = (
(332,14,l),
(319,63,l),
(151,15,l),
(165,-33,l)
);
},
{
closed = 1;
nodes = (
(80,137,l),
(80,310,l),
(30,310,l),
(30,137,l)
);
},
{
closed = 1;
nodes = (
(332,182,l),
(293,213,l),
(185,77,l),
(225,46,l)
);
},
{
closed = 1;
nodes = (
(175,17,l),
(175,190,l),
(124,190,l),
(124,17,l)
);
},
{
closed = 1;
nodes = (
(466,0,l),
(466,50,l),
(293,50,l),
(293,0,l)
);
},
{
closed = 1;
nodes = (
(80,137,l),
(80,310,l),
(30,310,l),
(30,137,l)
);
},
{
closed = 1;
nodes = (
(332,182,l),
(293,213,l),
(185,77,l),
(225,46,l)
);
},
{
closed = 1;
nodes = (
(175,156,l),
(175,329,l),
(124,329,l),
(124,156,l)
);
},
{
closed = 1;
nodes = (
(466,0,l),
(466,50,l),
(293,50,l),
(293,0,l)
);
},
{
closed = 1;
nodes = (
(80,276,l),
(80,449,l),
(30,449,l),
(30,276,l)
);
},
{
closed = 1;
nodes = (
(175,156,l),
(175,329,l),
(124,329,l),
(124,156,l)
);
},
{
closed = 1;
nodes = (
(453,29,l),
(453,202,l),
(403,202,l),
(403,29,l)
);
},
{
closed = 1;
nodes = (
(328,340,l),
(278,340,l),
(278,166,l),
(328,166,l)
);
},
{
closed = 1;
nodes = (
(80,276,l),
(80,449,l),
(30,449,l),
(30,276,l)
);
},
{
closed = 1;
nodes = (
(491,233,l),
(452,264,l),
(345,127,l),
(385,96,l)
);
},
{
closed = 1;
nodes = (
(175,295,l),
(175,468,l),
(124,468,l),
(124,295,l)
);
},
{
closed = 1;
nodes = (
(453,29,l),
(453,202,l),
(403,202,l),
(403,29,l)
);
},
{
closed = 1;
nodes = (
(328,166,l),
(328,340,l),
(278,340,l),
(278,166,l)
);
},
{
closed = 1;
nodes = (
(80,415,l),
(80,588,l),
(30,588,l),
(30,415,l)
);
},
{
closed = 1;
nodes = (
(491,233,l),
(452,264,l),
(345,127,l),
(385,96,l)
);
},
{
closed = 1;
nodes = (
(175,295,l),
(175,468,l),
(124,468,l),
(124,295,l)
);
},
{
closed = 1;
nodes = (
(421,129,l),
(421,303,l),
(371,303,l),
(371,129,l)
);
},
{
closed = 1;
nodes = (
(328,166,l),
(328,340,l),
(278,340,l),
(278,166,l)
);
},
{
closed = 1;
nodes = (
(30,415,l),
(80,415,l),
(80,588,l),
(30,588,l)
);
},
{
closed = 1;
nodes = (
(175,434,l),
(175,607,l),
(124,607,l),
(124,434,l)
);
},
{
closed = 1;
nodes = (
(421,129,l),
(421,303,l),
(371,303,l),
(371,129,l)
);
},
{
closed = 1;
nodes = (
(328,305,l),
(328,479,l),
(278,479,l),
(278,305,l)
);
},
{
closed = 1;
nodes = (
(421,268,l),
(421,442,l),
(371,442,l),
(371,268,l)
);
},
{
closed = 1;
nodes = (
(328,305,l),
(328,479,l),
(278,479,l),
(278,305,l)
);
},
{
closed = 1;
nodes = (
(421,268,l),
(421,442,l),
(371,442,l),
(371,268,l)
);
},
{
closed = 1;
nodes = (
(421,407,l),
(421,581,l),
(371,581,l),
(371,407,l)
);
},
{
closed = 1;
nodes = (
(421,581,l),
(371,581,l),
(371,407,l),
(421,407,l)
);
}
);
width = 521;
}
);
note = u;
unicode = 117;
},
{
glyphname = v;
lastChange = "2023-05-12 17:57:41 +0000";
layers = (
{
layerId = m01;
shapes = (
{
closed = 1;
nodes = (
(492,544,l),
(468,552,l),
(440,469,l),
(464,461,l)
);
},
{
closed = 1;
nodes = (
(261,-5,l),
(260,82,l),
(235,82,l),
(236,-5,l)
);
},
{
closed = 1;
nodes = (
(335,0,l),
(335,25,l),
(248,25,l),
(248,0,l)
);
},
{
closed = 1;
nodes = (
(403,-8,l),
(321,19,l),
(313,-4,l),
(395,-32,l)
);
},
{
closed = 1;
nodes = (
(260,65,l),
(260,152,l),
(235,152,l),
(235,65,l)
);
},
{
closed = 1;
nodes = (
(276,156,l),
(269,180,l),
(186,156,l),
(192,132,l)
);
},
{
closed = 1;
nodes = (
(430,47,l),
(407,55,l),
(379,-28,l),
(403,-36,l)
);
},
{
closed = 1;
nodes = (
(232,178,l),
(207,261,l),
(183,254,l),
(208,171,l)
);
},
{
closed = 1;
nodes = (
(212,245,l),
(187,328,l),
(163,321,l),
(188,238,l)
);
},
{
closed = 1;
nodes = (
(453,112,l),
(429,120,l),
(401,38,l),
(425,30,l)
);
},
{
closed = 1;
nodes = (
(192,311,l),
(168,395,l),
(144,388,l),
(168,304,l)
);
},
{
closed = 1;
nodes = (
(380,215,l),
(356,223,l),
(328,141,l),
(352,133,l)
);
},
{
closed = 1;
nodes = (
(141,429,l),
(141,454,l),
(54,454,l),
(54,429,l)
);
},
{
closed = 1;
nodes = (
(358,154,l),
(358,241,l),
(333,241,l),
(333,154,l)
);
},
{
closed = 1;
nodes = (
(78,435,l),
(78,522,l),
(53,522,l),
(53,435,l)
);
},
{
closed = 1;
nodes = (
(362,227,l),
(362,252,l),
(275,252,l),
(275,227,l)
);
},
{
closed = 1;
nodes = (
(172,378,l),
(148,461,l),
(124,454,l),
(148,371,l)
);
},
{
closed = 1;
nodes = (
(313,254,l),
(288,338,l),
(264,331,l),
(289,247,l)
);
},
{
closed = 1;
nodes = (
(475,178,l),
(451,186,l),
(423,104,l),
(447,96,l)
);
},
{
closed = 1;
nodes = (
(117,528,l),
(117,553,l),
(30,553,l),
(30,528,l)
);
},
{
closed = 1;
nodes = (
(402,281,l),
(378,289,l),
(350,206,l),
(374,198,l)
);
},
{
closed = 1;
nodes = (
(293,321,l),
(268,404,l),
(244,397,l),
(269,314,l)
);
},
{
closed = 1;
nodes = (
(273,388,l),
(248,471,l),
(224,464,l),
(249,381,l)
);
},
{
closed = 1;
nodes = (
(497,244,l),
(473,252,l),
(445,170,l),
(469,162,l)
);
},
{
closed = 1;
nodes = (
(186,528,l),
(186,553,l),
(99,553,l),
(99,528,l)
);
},
{
closed = 1;
nodes = (
(425,346,l),
(401,354,l),
(373,272,l),
(397,264,l)
);
},
{
closed = 1;
nodes = (
(247,450,l),
(247,537,l),
(222,537,l),
(222,450,l)
);
},
{
closed = 1;
nodes = (
(256,528,l),
(256,553,l),
(169,553,l),
(169,528,l)
);
},
{
closed = 1;
nodes = (
(519,310,l),
(495,318,l),
(468,236,l),
(491,228,l)
);
},
{
closed = 1;
nodes = (
(447,412,l),
(423,420,l),
(395,338,l),
(419,330,l)
);
},
{
closed = 1;
nodes = (
(541,376,l),
(517,384,l),
(490,302,l),
(513,294,l)
);
},
{
closed = 1;
nodes = (
(470,478,l),
(446,486,l),
(418,404,l),
(441,396,l)
);
},
{
closed = 1;
nodes = (
(563,442,l),
(539,450,l),
(512,367,l),
(535,359,l)
);
},
{
closed = 1;
nodes = (
(585,508,l),
(561,516,l),
(534,433,l),
(558,425,l)
);
},
{
closed = 1;
nodes = (
(514,609,l),
(491,617,l),
(463,535,l),
(486,527,l)
);
},
{
closed = 1;
nodes = (
(544,602,l),
(461,627,l),
(454,603,l),
(537,578,l)
);
},
{
closed = 1;
nodes = (
(607,574,l),
(584,582,l),
(556,499,l),
(580,491,l)
);
},
{
closed = 1;
nodes = (
(611,582,l),
(527,607,l),
(520,583,l),
(603,558,l)
);
}
);
width = 641;
},
{
background = {
shapes = (
{
closed = 1;
nodes = (
(457,445,l),
(514,609,l),
(561,593,l),
(505,429,l)
);
},
{
closed = 1;
nodes = (
(412,313,l),
(469,478,l),
(516,462,l),
(460,297,l)
);
},
{
closed = 1;
nodes = (
(368,182,l),
(424,346,l),
(471,330,l),
(415,166,l)
);
},
{
closed = 1;
nodes = (
(364,123,l),
(414,123,l),
(414,297,l),
(364,297,l)
);
},
{
closed = 1;
nodes = (
(331,395,l),
(380,229,l),
(332,215,l),
(283,381,l)
);
},
{
closed = 1;
nodes = (
(291,529,l),
(341,362,l),
(292,348,l),
(243,514,l)
);
},
{
closed = 1;
nodes = (
(169,528,l),
(342,528,l),
(342,578,l),
(169,578,l)
);
},
{
closed = 1;
nodes = (
(30,528,l),
(203,528,l),
(203,578,l),
(30,578,l)
);
},
{
closed = 1;
nodes = (
(54,429,l),
(228,429,l),
(228,479,l),
(54,479,l)
);
},
{
closed = 1;
nodes = (
(212,271,l),
(162,438,l),
(210,452,l),
(260,286,l)
);
},
{
closed = 1;
nodes = (
(251,138,l),
(202,305,l),
(250,319,l),
(299,152,l)
);
},
{
closed = 1;
nodes = (
(266,34,l),
(265,207,l),
(315,208,l),
(316,34,l)
);
},
{
closed = 1;
nodes = (
(248,0,l),
(421,0,l),
(421,50,l),
(248,50,l)
);
},
{
closed = 1;
nodes = (
(396,-53,l),
(444,-69,l),
(499,96,l),
(452,112,l)
);
},
{
closed = 1;
nodes = (
(543,228,l),
(488,63,l),
(441,79,l),
(496,244,l)
);
},
{
closed = 1;
nodes = (
(588,360,l),
(532,195,l),
(485,211,l),
(540,376,l)
);
},
{
closed = 1;
nodes = (
(632,491,l),
(577,327,l),
(529,343,l),
(584,507,l)
);
},
{
closed = 1;
nodes = (
(573,474,l),
(621,458,l),
(676,623,l),
(629,639,l)
);
},
{
closed = 1;
nodes = (
(466,663,l),
(451,615,l),
(618,566,l),
(632,614,l)
);
}
);
};
layerId = "BE691341-D8A5-4739-82E3-AB614D387AD5";
shapes = (
{
closed = 1;
nodes = (
(561,593,l),
(514,609,l),
(457,445,l),
(505,429,l)
);
},
{
closed = 1;
nodes = (
(316,34,l),
(315,208,l),
(265,207,l),
(266,34,l)
);
},
{
closed = 1;
nodes = (
(421,0,l),
(421,50,l),
(248,50,l),
(248,0,l)
);
},
{
closed = 1;
nodes = (
(421,50,l),
(248,50,l),
(248,0,l),
(421,0,l)
);
},
{
closed = 1;
nodes = (
(316,34,l),
(315,208,l),
(265,207,l),
(266,34,l)
);
},
{
closed = 1;
nodes = (
(315,208,l),
(265,207,l),
(266,34,l),
(316,34,l)
);
},
{
closed = 1;
nodes = (
(499,96,l),
(452,112,l),
(396,-53,l),
(444,-69,l)
);
},
{
closed = 1;
nodes = (
(299,152,l),
(250,319,l),
(202,305,l),
(251,138,l)
);
},
{
closed = 1;
nodes = (
(299,152,l),
(250,319,l),
(202,305,l),
(251,138,l)
);
},
{
closed = 1;
nodes = (
(499,96,l),
(452,112,l),
(396,-53,l),
(444,-69,l)
);
},
{
closed = 1;
nodes = (
(260,286,l),
(210,452,l),
(162,438,l),
(212,271,l)
);
},
{
closed = 1;
nodes = (
(414,297,l),
(364,297,l),
(364,123,l),
(414,123,l)
);
},
{
closed = 1;
nodes = (
(228,429,l),
(228,479,l),
(54,479,l),
(54,429,l)
);
},
{
closed = 1;
nodes = (
(414,123,l),
(414,297,l),
(364,297,l),
(364,123,l)
);
},
{
closed = 1;
nodes = (
(54,429,l),
(228,429,l),
(228,479,l),
(54,479,l)
);
},
{
closed = 1;
nodes = (
(364,123,l),
(414,123,l),
(414,297,l),
(364,297,l)
);
},
{
closed = 1;
nodes = (
(260,286,l),
(210,452,l),
(162,438,l),
(212,271,l)
);
},
{
closed = 1;
nodes = (
(380,229,l),
(331,395,l),
(283,381,l),
(332,215,l)
);
},
{
closed = 1;
nodes = (
(543,228,l),
(496,244,l),
(441,79,l),
(488,63,l)
);
},
{
closed = 1;
nodes = (
(203,528,l),
(203,578,l),
(30,578,l),
(30,528,l)
);
},
{
closed = 1;
nodes = (
(471,330,l),
(424,346,l),
(368,182,l),
(415,166,l)
);
},
{
closed = 1;
nodes = (
(380,229,l),
(331,395,l),
(283,381,l),
(332,215,l)
);
},
{
closed = 1;
nodes = (
(341,362,l),
(291,529,l),
(243,514,l),
(292,348,l)
);
},
{
closed = 1;
nodes = (
(543,228,l),
(496,244,l),
(441,79,l),
(488,63,l)
);
},
{
closed = 1;
nodes = (
(203,528,l),
(203,578,l),
(30,578,l),
(30,528,l)
);
},
{
closed = 1;
nodes = (
(471,330,l),
(424,346,l),
(368,182,l),
(415,166,l)
);
},
{
closed = 1;
nodes = (
(341,362,l),
(291,529,l),
(243,514,l),
(292,348,l)
);
},
{
closed = 1;
nodes = (
(342,528,l),
(342,578,l),
(169,578,l),
(169,528,l)
);
},
{
closed = 1;
nodes = (
(588,360,l),
(540,376,l),
(485,211,l),
(532,195,l)
);
},
{
closed = 1;
nodes = (
(516,462,l),
(469,478,l),
(412,313,l),
(460,297,l)
);
},
{
closed = 1;
nodes = (
(588,360,l),
(540,376,l),
(485,211,l),
(532,195,l)
);
},
{
closed = 1;
nodes = (
(516,462,l),
(469,478,l),
(412,313,l),
(460,297,l)
);
},
{
closed = 1;
nodes = (
(632,491,l),
(584,507,l),
(529,343,l),
(577,327,l)
);
},
{
closed = 1;
nodes = (
(632,491,l),
(584,507,l),
(529,343,l),
(577,327,l)
);
},
{
closed = 1;
nodes = (
(561,593,l),
(514,609,l),
(457,445,l),
(505,429,l)
);
},
{
closed = 1;
nodes = (
(632,614,l),
(466,663,l),
(451,615,l),
(618,566,l)
);
},
{
closed = 1;
nodes = (
(676,623,l),
(629,639,l),
(573,474,l),
(621,458,l)
);
},
{
closed = 1;
nodes = (
(632,614,l),
(466,663,l),
(451,615,l),
(618,566,l)
);
}
);
width = 706;
}
);
note = v;
unicode = 118;
},
{
glyphname = w;
lastChange = "2023-05-11 00:06:15 +0000";
layers = (
{
layerId = m01;
shapes = (
{
closed = 1;
nodes = (
(700,73,l),
(682,90,l),
(622,27,l),
(640,10,l)
);
},
{
closed = 1;
nodes = (
(287,-2,l),
(215,46,l),
(201,25,l),
(274,-23,l)
);
},
{
closed = 1;
nodes = (
(335,10,l),
(314,24,l),
(266,-49,l),
(287,-63,l)
);
},
{
closed = 1;
nodes = (
(260,23,l),
(235,106,l),
(211,99,l),
(236,15,l)
);
},
{
closed = 1;
nodes = (
(240,89,l),
(216,172,l),
(192,165,l),
(216,82,l)
);
},
{
closed = 1;
nodes = (
(374,68,l),
(353,82,l),
(305,9,l),
(326,-5,l)
);
},
{
closed = 1;
nodes = (
(220,156,l),
(196,239,l),
(172,232,l),
(196,149,l)
);
},
{
closed = 1;
nodes = (
(201,222,l),
(176,306,l),
(152,298,l),
(177,215,l)
);
},
{
closed = 1;
nodes = (
(410,96,l),
(386,103,l),
(362,20,l),
(386,13,l)
);
},
{
closed = 1;
nodes = (
(330,119,l),
(306,202,l),
(282,195,l),
(306,111,l)
);
},
{
closed = 1;
nodes = (
(117,390,l),
(117,415,l),
(30,415,l),
(30,390,l)
);
},
{
closed = 1;
nodes = (
(181,289,l),
(156,372,l),
(132,365,l),
(157,282,l)
);
},
{
closed = 1;
nodes = (
(310,185,l),
(286,268,l),
(262,261,l),
(286,178,l)
);
},
{
closed = 1;
nodes = (
(349,232,l),
(325,239,l),
(301,155,l),
(325,148,l)
);
},
{
closed = 1;
nodes = (
(76,419,l),
(76,505,l),
(51,505,l),
(51,419,l)
);
},
{
closed = 1;
nodes = (
(161,356,l),
(136,439,l),
(112,432,l),
(137,348,l)
);
},
{
closed = 1;
nodes = (
(429,163,l),
(405,170,l),
(381,87,l),
(405,80,l)
);
},
{
closed = 1;
nodes = (
(521,2,l),
(490,83,l),
(467,74,l),
(497,-7,l)
);
},
{
closed = 1;
nodes = (
(577,5,l),
(569,28,l),
(487,0,l),
(495,-24,l)
);
},
{
closed = 1;
nodes = (
(291,252,l),
(266,335,l),
(242,328,l),
(267,245,l)
);
},
{
closed = 1;
nodes = (
(541,96,l),
(532,119,l),
(451,87,l),
(460,64,l)
);
},
{
closed = 1;
nodes = (
(139,487,l),
(139,512,l),
(53,512,l),
(53,487,l)
);
},
{
closed = 1;
nodes = (
(271,318,l),
(247,402,l),
(223,395,l),
(247,311,l)
);
},
{
closed = 1;
nodes = (
(368,299,l),
(344,306,l),
(320,222,l),
(344,215,l)
);
},
{
closed = 1;
nodes = (
(449,230,l),
(424,237,l),
(400,153,l),
(424,146,l)
);
},
{
closed = 1;
nodes = (
(643,28,l),
(634,52,l),
(552,23,l),
(561,-1,l)
);
},
{
closed = 1;
nodes = (
(506,117,l),
(482,201,l),
(458,194,l),
(482,110,l)
);
},
{
closed = 1;
nodes = (
(242,380,l),
(242,467,l),
(216,467,l),
(216,380,l)
);
},
{
closed = 1;
nodes = (
(209,487,l),
(209,512,l),
(122,512,l),
(122,487,l)
);
},
{
closed = 1;
nodes = (
(487,184,l),
(463,267,l),
(439,261,l),
(463,177,l)
);
},
{
closed = 1;
nodes = (
(388,366,l),
(363,372,l),
(339,289,l),
(364,282,l)
);
},
{
closed = 1;
nodes = (
(468,297,l),
(444,304,l),
(420,220,l),
(444,213,l)
);
},
{
closed = 1;
nodes = (
(242,450,l),
(242,536,l),
(216,536,l),
(216,450,l)
);
},
{
closed = 1;
nodes = (
(610,175,l),
(586,182,l),
(562,98,l),
(586,91,l)
);
},
{
closed = 1;
nodes = (
(602,128,l),
(577,211,l),
(553,204,l),
(578,121,l)
);
},
{
closed = 1;
nodes = (
(407,432,l),
(383,439,l),
(359,356,l),
(383,349,l)
);
},
{
closed = 1;
nodes = (
(582,195,l),
(558,278,l),
(534,271,l),
(558,187,l)
);
},
{
closed = 1;
nodes = (
(704,155,l),
(680,162,l),
(656,79,l),
(680,72,l)
);
},
{
closed = 1;
nodes = (
(630,242,l),
(606,249,l),
(581,165,l),
(606,158,l)
);
},
{
closed = 1;
nodes = (
(563,261,l),
(538,344,l),
(514,337,l),
(539,254,l)
);
},
{
closed = 1;
nodes = (
(426,499,l),
(402,506,l),
(378,423,l),
(402,416,l)
);
},
{
closed = 1;
nodes = (
(724,222,l),
(700,229,l),
(676,145,l),
(700,138,l)
);
},
{
closed = 1;
nodes = (
(543,328,l),
(518,411,l),
(494,404,l),
(519,321,l)
);
},
{
closed = 1;
nodes = (
(649,308,l),
(625,315,l),
(601,232,l),
(625,225,l)
);
},
{
closed = 1;
nodes = (
(523,394,l),
(499,478,l),
(475,471,l),
(499,387,l)
);
},
{
closed = 1;
nodes = (
(445,566,l),
(421,573,l),
(397,489,l),
(421,482,l)
);
},
{
closed = 1;
nodes = (
(743,289,l),
(719,296,l),
(695,212,l),
(719,205,l)
);
},
{
closed = 1;
nodes = (
(668,375,l),
(644,382,l),
(620,299,l),
(644,292,l)
);
},
{
closed = 1;
nodes = (
(519,534,l),
(435,558,l),
(428,534,l),
(512,510,l)
);
},
{
closed = 1;
nodes = (
(536,538,l),
(512,545,l),
(488,461,l),
(512,454,l)
);
},
{
closed = 1;
nodes = (
(762,355,l),
(738,362,l),
(714,279,l),
(738,272,l)
);
},
{
closed = 1;
nodes = (
(687,442,l),
(663,449,l),
(639,366,l),
(663,359,l)
);
},
{
closed = 1;
nodes = (
(781,422,l),
(757,429,l),
(733,346,l),
(757,339,l)
);
},
{
closed = 1;
nodes = (
(707,509,l),
(682,516,l),
(658,432,l),
(683,425,l)
);
},
{
closed = 1;
nodes = (
(801,489,l),
(776,496,l),
(752,412,l),
(777,406,l)
);
},
{
closed = 1;
nodes = (
(754,525,l),
(670,548,l),
(664,524,l),
(747,501,l)
);
},
{
closed = 1;
nodes = (
(821,507,l),
(737,530,l),
(731,506,l),
(814,483,l)
);
}
);
width = 851;
},
{
background = {
shapes = (
{
closed = 1;
nodes = (
(620,268,l),
(670,102,l),
(622,87,l),
(572,254,l)
);
},
{
closed = 1;
nodes = (
(581,402,l),
(630,235,l),
(582,221,l),
(533,387,l)
);
},
{
closed = 1;
nodes = (
(542,535,l),
(591,368,l),
(543,354,l),
(494,521,l)
);
},
{
closed = 1;
nodes = (
(440,594,l),
(426,546,l),
(593,498,l),
(607,546,l)
);
},
{
closed = 1;
nodes = (
(397,396,l),
(445,563,l),
(493,549,l),
(445,382,l)
);
},
{
closed = 1;
nodes = (
(359,263,l),
(407,430,l),
(455,416,l),
(407,249,l)
);
},
{
closed = 1;
nodes = (
(320,129,l),
(368,296,l),
(417,282,l),
(369,115,l)
);
},
{
closed = 1;
nodes = (
(329,326,l),
(378,159,l),
(330,145,l),
(281,311,l)
);
},
{
closed = 1;
nodes = (
(290,459,l),
(339,292,l),
(291,278,l),
(242,445,l)
);
},
{
closed = 1;
nodes = (
(247,418,l),
(297,418,l),
(297,592,l),
(247,592,l)
);
},
{
closed = 1;
nodes = (
(53,486,l),
(226,486,l),
(226,536,l),
(53,536,l)
);
},
{
closed = 1;
nodes = (
(30,389,l),
(204,389,l),
(204,440,l),
(30,440,l)
);
},
{
closed = 1;
nodes = (
(200,248,l),
(151,415,l),
(199,429,l),
(248,263,l)
);
},
{
closed = 1;
nodes = (
(240,115,l),
(191,282,l),
(239,296,l),
(288,130,l)
);
},
{
closed = 1;
nodes = (
(280,-18,l),
(230,149,l),
(278,163,l),
(328,-3,l)
);
},
{
closed = 1;
nodes = (
(254,0,l),
(264,-49,l),
(434,-15,l),
(424,34,l)
);
},
{
closed = 1;
nodes = (
(477,147,l),
(429,-20,l),
(381,-6,l),
(429,160,l)
);
},
{
closed = 1;
nodes = (
(516,280,l),
(468,113,l),
(420,127,l),
(468,294,l)
);
},
{
closed = 1;
nodes = (
(506,144,l),
(458,311,l),
(506,325,l),
(554,158,l)
);
},
{
closed = 1;
nodes = (
(478,37,l),
(555,192,l),
(600,170,l),
(523,14,l)
);
},
{
closed = 1;
nodes = (
(666,19,l),
(502,-38,l),
(485,9,l),
(649,67,l)
);
},
{
closed = 1;
nodes = (
(782,108,l),
(663,-18,l),
(627,16,l),
(746,142,l)
);
},
{
closed = 1;
nodes = (
(791,272,l),
(743,105,l),
(695,119,l),
(743,286,l)
);
},
{
closed = 1;
nodes = (
(830,406,l),
(781,239,l),
(733,253,l),
(781,419,l)
);
},
{
closed = 1;
nodes = (
(772,386,l),
(820,372,l),
(868,539,l),
(820,553,l)
);
},
{
closed = 1;
nodes = (
(675,584,l),
(843,538,l),
(829,489,l),
(662,535,l)
);
},
{
closed = 1;
nodes = (
(658,339,l),
(707,506,l),
(755,492,l),
(707,325,l)
);
},
{
closed = 1;
nodes = (
(620,206,l),
(668,373,l),
(716,359,l),
(668,192,l)
);
},
{
closed = 1;
nodes = (
(581,72,l),
(630,239,l),
(678,225,l),
(630,58,l)
);
}
);
};
layerId = "BE691341-D8A5-4739-82E3-AB614D387AD5";
shapes = (
{
closed = 1;
nodes = (
(782,108,l),
(746,142,l),
(627,16,l),
(663,-18,l)
);
},
{
closed = 1;
nodes = (
(328,-3,l),
(278,163,l),
(230,149,l),
(280,-18,l)
);
},
{
closed = 1;
nodes = (
(434,-15,l),
(424,34,l),
(254,0,l),
(264,-49,l)
);
},
{
closed = 1;
nodes = (
(328,-3,l),
(278,163,l),
(230,149,l),
(280,-18,l)
);
},
{
closed = 1;
nodes = (
(288,130,l),
(239,296,l),
(191,282,l),
(240,115,l)
);
},
{
closed = 1;
nodes = (
(434,-15,l),
(424,34,l),
(254,0,l),
(264,-49,l)
);
},
{
closed = 1;
nodes = (
(288,130,l),
(239,296,l),
(191,282,l),
(240,115,l)
);
},
{
closed = 1;
nodes = (
(248,263,l),
(199,429,l),
(151,415,l),
(200,248,l)
);
},
{
closed = 1;
nodes = (
(477,147,l),
(429,160,l),
(381,-6,l),
(429,-20,l)
);
},
{
closed = 1;
nodes = (
(371,114,l),
(417,282,l),
(368,296,l),
(320,129,l)
);
},
{
closed = 1;
nodes = (
(204,389,l),
(204,440,l),
(30,440,l),
(30,389,l)
);
},
{
closed = 1;
nodes = (
(248,263,l),
(199,429,l),
(151,415,l),
(200,248,l)
);
},
{
closed = 1;
nodes = (
(378,159,l),
(329,326,l),
(281,311,l),
(330,145,l)
);
},
{
closed = 1;
nodes = (
(417,282,l),
(368,296,l),
(320,129,l),
(369,115,l)
);
},
{
closed = 1;
nodes = (
(30,389,l),
(204,389,l),
(204,440,l),
(30,440,l)
);
},
{
closed = 1;
nodes = (
(248,263,l),
(199,429,l),
(151,415,l),
(200,248,l)
);
},
{
closed = 1;
nodes = (
(477,147,l),
(429,160,l),
(381,-6,l),
(429,-20,l)
);
},
{
closed = 1;
nodes = (
(523,14,l),
(600,170,l),
(555,192,l),
(478,37,l)
);
},
{
closed = 1;
nodes = (
(666,19,l),
(649,67,l),
(485,9,l),
(502,-38,l)
);
},
{
closed = 1;
nodes = (
(378,159,l),
(329,326,l),
(281,311,l),
(330,145,l)
);
},
{
closed = 1;
nodes = (
(600,170,l),
(555,192,l),
(478,37,l),
(523,14,l)
);
},
{
closed = 1;
nodes = (
(226,486,l),
(226,536,l),
(53,536,l),
(53,486,l)
);
},
{
closed = 1;
nodes = (
(339,292,l),
(290,459,l),
(242,445,l),
(291,278,l)
);
},
{
closed = 1;
nodes = (
(455,416,l),
(407,430,l),
(359,263,l),
(407,249,l)
);
},
{
closed = 1;
nodes = (
(516,280,l),
(468,294,l),
(420,127,l),
(468,113,l)
);
},
{
closed = 1;
nodes = (
(666,19,l),
(649,67,l),
(485,9,l),
(502,-38,l)
);
},
{
closed = 1;
nodes = (
(554,158,l),
(506,325,l),
(458,311,l),
(506,144,l)
);
},
{
closed = 1;
nodes = (
(297,418,l),
(297,592,l),
(247,592,l),
(247,418,l)
);
},
{
closed = 1;
nodes = (
(226,486,l),
(226,536,l),
(53,536,l),
(53,486,l)
);
},
{
closed = 1;
nodes = (
(554,158,l),
(506,325,l),
(458,311,l),
(506,144,l)
);
},
{
closed = 1;
nodes = (
(455,416,l),
(407,430,l),
(359,263,l),
(407,249,l)
);
},
{
closed = 1;
nodes = (
(516,280,l),
(468,294,l),
(420,127,l),
(468,113,l)
);
},
{
closed = 1;
nodes = (
(297,418,l),
(297,592,l),
(247,592,l),
(247,418,l)
);
},
{
closed = 1;
nodes = (
(678,225,l),
(630,239,l),
(581,72,l),
(630,58,l)
);
},
{
closed = 1;
nodes = (
(670,102,l),
(620,268,l),
(572,254,l),
(622,87,l)
);
},
{
closed = 1;
nodes = (
(455,416,l),
(407,430,l),
(359,263,l),
(407,249,l)
);
},
{
closed = 1;
nodes = (
(630,235,l),
(581,402,l),
(533,387,l),
(582,221,l)
);
},
{
closed = 1;
nodes = (
(791,272,l),
(743,286,l),
(695,119,l),
(743,105,l)
);
},
{
closed = 1;
nodes = (
(678,225,l),
(630,239,l),
(581,72,l),
(630,58,l)
);
},
{
closed = 1;
nodes = (
(630,235,l),
(581,402,l),
(533,387,l),
(582,221,l)
);
},
{
closed = 1;
nodes = (
(493,549,l),
(445,563,l),
(397,396,l),
(445,382,l)
);
},
{
closed = 1;
nodes = (
(791,272,l),
(743,286,l),
(695,119,l),
(743,105,l)
);
},
{
closed = 1;
nodes = (
(591,368,l),
(542,535,l),
(494,521,l),
(543,354,l)
);
},
{
closed = 1;
nodes = (
(716,359,l),
(668,373,l),
(620,206,l),
(668,192,l)
);
},
{
closed = 1;
nodes = (
(591,368,l),
(542,535,l),
(494,521,l),
(543,354,l)
);
},
{
closed = 1;
nodes = (
(493,549,l),
(445,563,l),
(397,396,l),
(445,382,l)
);
},
{
closed = 1;
nodes = (
(830,406,l),
(781,419,l),
(733,253,l),
(781,239,l)
);
},
{
closed = 1;
nodes = (
(755,492,l),
(707,506,l),
(658,339,l),
(707,325,l)
);
},
{
closed = 1;
nodes = (
(607,546,l),
(440,594,l),
(426,546,l),
(593,498,l)
);
},
{
closed = 1;
nodes = (
(593,498,l),
(607,546,l),
(440,594,l),
(426,546,l)
);
},
{
closed = 1;
nodes = (
(830,406,l),
(781,419,l),
(733,253,l),
(781,239,l)
);
},
{
closed = 1;
nodes = (
(755,492,l),
(707,506,l),
(658,339,l),
(707,325,l)
);
},
{
closed = 1;
nodes = (
(868,539,l),
(820,553,l),
(772,386,l),
(820,372,l)
);
},
{
closed = 1;
nodes = (
(755,492,l),
(707,506,l),
(658,339,l),
(706,328,l)
);
},
{
closed = 1;
nodes = (
(868,539,l),
(820,553,l),
(772,386,l),
(820,372,l)
);
},
{
closed = 1;
nodes = (
(843,538,l),
(675,584,l),
(662,535,l),
(829,489,l)
);
},
{
closed = 1;
nodes = (
(843,538,l),
(675,584,l),
(662,535,l),
(829,489,l)
);
}
);
width = 898;
}
);
note = w;
unicode = 119;
},
{
glyphname = x;
lastChange = "2023-05-12 18:00:03 +0000";
layers = (
{
layerId = m01;
shapes = (
{
closed = 1;
nodes = (
(291,197,l),
(270,211,l),
(222,139,l),
(243,125,l)
);
},
{
closed = 1;
nodes = (
(126,22,l),
(53,69,l),
(39,48,l),
(112,1,l)
);
},
{
closed = 1;
nodes = (
(184,-16,l),
(111,32,l),
(98,11,l),
(170,-37,l)
);
},
{
closed = 1;
nodes = (
(125,117,l),
(104,130,l),
(57,58,l),
(78,44,l)
);
},
{
closed = 1;
nodes = (
(214,81,l),
(193,95,l),
(145,23,l),
(166,9,l)
);
},
{
closed = 1;
nodes = (
(163,175,l),
(142,189,l),
(95,116,l),
(116,102,l)
);
},
{
closed = 1;
nodes = (
(253,139,l),
(232,153,l),
(184,81,l),
(205,67,l)
);
},
{
closed = 1;
nodes = (
(201,233,l),
(180,247,l),
(133,174,l),
(154,160,l)
);
},
{
closed = 1;
nodes = (
(434,-28,l),
(389,47,l),
(368,34,l),
(412,-41,l)
);
},
{
closed = 1;
nodes = (
(398,32,l),
(354,106,l),
(332,93,l),
(377,19,l)
);
},
{
closed = 1;
nodes = (
(363,91,l),
(318,166,l),
(297,153,l),
(341,79,l)
);
},
{
closed = 1;
nodes = (
(496,25,l),
(483,47,l),
(409,0,l),
(423,-21,l)
);
},
{
closed = 1;
nodes = (
(239,291,l),
(218,305,l),
(171,232,l),
(192,219,l)
);
},
{
closed = 1;
nodes = (
(327,151,l),
(283,226,l),
(261,213,l),
(306,138,l)
);
},
{
closed = 1;
nodes = (
(516,26,l),
(471,100,l),
(450,87,l),
(495,13,l)
);
},
{
closed = 1;
nodes = (
(273,289,l),
(229,364,l),
(207,351,l),
(251,276,l)
);
},
{
closed = 1;
nodes = (
(480,85,l),
(435,160,l),
(414,147,l),
(459,72,l)
);
},
{
closed = 1;
nodes = (
(97,545,l),
(75,558,l),
(30,483,l),
(52,470,l)
);
},
{
closed = 1;
nodes = (
(237,349,l),
(193,424,l),
(172,411,l),
(216,336,l)
);
},
{
closed = 1;
nodes = (
(444,145,l),
(399,219,l),
(378,206,l),
(423,132,l)
);
},
{
closed = 1;
nodes = (
(155,465,l),
(79,508,l),
(67,487,l),
(142,444,l)
);
},
{
closed = 1;
nodes = (
(202,409,l),
(158,484,l),
(137,471,l),
(181,396,l)
);
},
{
closed = 1;
nodes = (
(408,204,l),
(363,279,l),
(342,266,l),
(387,191,l)
);
},
{
closed = 1;
nodes = (
(400,302,l),
(387,323,l),
(313,278,l),
(326,257,l)
);
},
{
closed = 1;
nodes = (
(132,604,l),
(111,617,l),
(66,543,l),
(88,530,l)
);
},
{
closed = 1;
nodes = (
(198,551,l),
(122,593,l),
(110,571,l),
(186,529,l)
);
},
{
closed = 1;
nodes = (
(407,374,l),
(386,387,l),
(340,313,l),
(362,300,l)
);
},
{
closed = 1;
nodes = (
(313,410,l),
(268,485,l),
(246,472,l),
(291,397,l)
);
},
{
closed = 1;
nodes = (
(277,470,l),
(232,544,l),
(211,531,l),
(255,457,l)
);
},
{
closed = 1;
nodes = (
(350,465,l),
(328,478,l),
(282,405,l),
(303,391,l)
);
},
{
closed = 1;
nodes = (
(241,529,l),
(196,604,l),
(175,591,l),
(220,516,l)
);
},
{
closed = 1;
nodes = (
(444,433,l),
(422,446,l),
(377,372,l),
(398,359,l)
);
},
{
closed = 1;
nodes = (
(387,524,l),
(366,537,l),
(319,464,l),
(340,450,l)
);
},
{
closed = 1;
nodes = (
(480,492,l),
(459,505,l),
(413,431,l),
(435,418,l)
);
},
{
closed = 1;
nodes = (
(424,582,l),
(403,596,l),
(356,522,l),
(377,509,l)
);
},
{
closed = 1;
nodes = (
(516,551,l),
(495,564,l),
(450,490,l),
(471,477,l)
);
},
{
closed = 1;
nodes = (
(469,597,l),
(396,643,l),
(383,622,l),
(456,575,l)
);
},
{
closed = 1;
nodes = (
(528,559,l),
(455,606,l),
(441,585,l),
(515,538,l)
);
}
);
width = 558;
},
{
background = {
shapes = (
{
closed = 1;
nodes = (
(319,440,l),
(412,587,l),
(454,560,l),
(361,413,l)
);
},
{
closed = 1;
nodes = (
(290,535,l),
(379,386,l),
(336,360,l),
(247,509,l)
);
},
{
closed = 1;
nodes = (
(218,654,l),
(308,505,l),
(265,479,l),
(175,628,l)
);
},
{
closed = 1;
nodes = (
(67,518,l),
(156,667,l),
(199,642,l),
(110,493,l)
);
},
{
closed = 1;
nodes = (
(207,418,l),
(56,504,l),
(81,547,l),
(232,461,l)
);
},
{
closed = 1;
nodes = (
(261,299,l),
(173,449,l),
(216,474,l),
(304,325,l)
);
},
{
closed = 1;
nodes = (
(170,209,l),
(265,355,l),
(307,328,l),
(212,182,l)
);
},
{
closed = 1;
nodes = (
(94,93,l),
(189,239,l),
(231,211,l),
(136,66,l)
);
},
{
closed = 1;
nodes = (
(30,68,l),
(175,-26,l),
(203,16,l),
(57,110,l)
);
},
{
closed = 1;
nodes = (
(282,117,l),
(186,-28,l),
(145,0,l),
(241,145,l)
);
},
{
closed = 1;
nodes = (
(359,233,l),
(263,88,l),
(221,116,l),
(317,261,l)
);
},
{
closed = 1;
nodes = (
(386,41,l),
(297,191,l),
(340,216,l),
(429,67,l)
);
},
{
closed = 1;
nodes = (
(368,71,l),
(457,-78,l),
(500,-52,l),
(411,97,l)
);
},
{
closed = 1;
nodes = (
(450,125,l),
(540,-24,l),
(583,2,l),
(493,150,l)
);
},
{
closed = 1;
nodes = (
(421,269,l),
(511,121,l),
(468,95,l),
(378,243,l)
);
},
{
closed = 1;
nodes = (
(478,320,l),
(329,230,l),
(303,273,l),
(452,363,l)
);
},
{
closed = 1;
nodes = (
(511,470,l),
(420,322,l),
(377,348,l),
(468,496,l)
);
},
{
closed = 1;
nodes = (
(450,467,l),
(493,440,l),
(584,588,l),
(541,615,l)
);
},
{
closed = 1;
nodes = (
(400,683,l),
(373,641,l),
(520,548,l),
(546,591,l)
);
}
);
};
layerId = "BE691341-D8A5-4739-82E3-AB614D387AD5";
shapes = (
{
closed = 1;
nodes = (
(359,233,l),
(317,261,l),
(221,116,l),
(263,88,l)
);
},
{
closed = 1;
nodes = (
(203,16,l),
(57,110,l),
(30,68,l),
(175,-26,l)
);
},
{
closed = 1;
nodes = (
(203,16,l),
(57,110,l),
(30,68,l),
(175,-26,l)
);
},
{
closed = 1;
nodes = (
(231,211,l),
(189,239,l),
(94,93,l),
(136,66,l)
);
},
{
closed = 1;
nodes = (
(282,117,l),
(241,145,l),
(145,0,l),
(186,-28,l)
);
},
{
closed = 1;
nodes = (
(231,211,l),
(189,239,l),
(94,93,l),
(136,66,l)
);
},
{
closed = 1;
nodes = (
(282,117,l),
(241,145,l),
(145,0,l),
(186,-28,l)
);
},
{
closed = 1;
nodes = (
(307,328,l),
(265,355,l),
(170,209,l),
(212,182,l)
);
},
{
closed = 1;
nodes = (
(500,-52,l),
(411,97,l),
(368,71,l),
(457,-78,l)
);
},
{
closed = 1;
nodes = (
(429,67,l),
(340,216,l),
(297,191,l),
(386,41,l)
);
},
{
closed = 1;
nodes = (
(429,67,l),
(340,216,l),
(297,191,l),
(386,41,l)
);
},
{
closed = 1;
nodes = (
(411,97,l),
(368,71,l),
(457,-78,l),
(500,-52,l)
);
},
{
closed = 1;
nodes = (
(307,328,l),
(265,355,l),
(170,209,l),
(212,182,l)
);
},
{
closed = 1;
nodes = (
(263,88,l),
(359,233,l),
(317,261,l),
(221,116,l)
);
},
{
closed = 1;
nodes = (
(583,2,l),
(493,150,l),
(450,125,l),
(540,-24,l)
);
},
{
closed = 1;
nodes = (
(212,182,l),
(307,328,l),
(265,355,l),
(170,209,l)
);
},
{
closed = 1;
nodes = (
(583,2,l),
(493,150,l),
(450,125,l),
(540,-24,l)
);
},
{
closed = 1;
nodes = (
(207,418,l),
(232,461,l),
(81,547,l),
(56,504,l)
);
},
{
closed = 1;
nodes = (
(304,325,l),
(216,474,l),
(173,449,l),
(261,299,l)
);
},
{
closed = 1;
nodes = (
(511,121,l),
(421,269,l),
(378,243,l),
(468,95,l)
);
},
{
closed = 1;
nodes = (
(232,461,l),
(81,547,l),
(56,504,l),
(207,418,l)
);
},
{
closed = 1;
nodes = (
(304,325,l),
(216,474,l),
(173,449,l),
(261,299,l)
);
},
{
closed = 1;
nodes = (
(511,121,l),
(421,269,l),
(378,243,l),
(468,95,l)
);
},
{
closed = 1;
nodes = (
(478,320,l),
(452,363,l),
(303,273,l),
(329,230,l)
);
},
{
closed = 1;
nodes = (
(199,642,l),
(156,667,l),
(67,518,l),
(110,493,l)
);
},
{
closed = 1;
nodes = (
(156,667,l),
(67,518,l),
(110,493,l),
(199,642,l)
);
},
{
closed = 1;
nodes = (
(511,470,l),
(468,496,l),
(377,348,l),
(420,322,l)
);
},
{
closed = 1;
nodes = (
(379,386,l),
(290,535,l),
(247,509,l),
(336,360,l)
);
},
{
closed = 1;
nodes = (
(308,505,l),
(218,654,l),
(175,628,l),
(265,479,l)
);
},
{
closed = 1;
nodes = (
(454,560,l),
(412,587,l),
(319,440,l),
(361,413,l)
);
},
{
closed = 1;
nodes = (
(308,505,l),
(218,654,l),
(175,628,l),
(265,479,l)
);
},
{
closed = 1;
nodes = (
(511,470,l),
(468,496,l),
(377,348,l),
(420,322,l)
);
},
{
closed = 1;
nodes = (
(454,560,l),
(412,587,l),
(319,440,l),
(361,413,l)
);
},
{
closed = 1;
nodes = (
(584,588,l),
(541,615,l),
(450,467,l),
(493,440,l)
);
},
{
closed = 1;
nodes = (
(454,560,l),
(412,587,l),
(319,440,l),
(361,413,l)
);
},
{
closed = 1;
nodes = (
(584,588,l),
(541,615,l),
(450,467,l),
(493,440,l)
);
},
{
closed = 1;
nodes = (
(546,591,l),
(400,683,l),
(373,641,l),
(520,548,l)
);
},
{
closed = 1;
nodes = (
(546,591,l),
(400,683,l),
(373,641,l),
(520,548,l)
);
}
);
width = 614;
}
);
note = x;
unicode = 120;
},
